<mxfile host="app.diagrams.net" modified="2020-09-28T01:59:22.285Z" agent="5.0 (Windows)" etag="Q75snaQQh9Ul44BG6rjm" version="13.7.5" type="gitlab">
  <diagram id="Or3sESxA86kh55XFHpkY" name="Page-1">
    <mxGraphModel dx="1589" dy="1159" grid="1" gridSize="10" guides="1" tooltips="1" connect="1" arrows="1" fold="1" page="1" pageScale="1" pageWidth="850" pageHeight="1100" math="0" shadow="0">
      <root>
        <mxCell id="0" />
        <mxCell id="1" parent="0" />
        <mxCell id="9xmN-UpCPUkyQyn0io4q-2" value="" style="shape=image;verticalLabelPosition=bottom;labelBackgroundColor=#ffffff;verticalAlign=top;aspect=fixed;imageAspect=0;image=data:image/png,iVBORw0KGgoAAAANSUhEUgAABV4AAAJoCAYAAACeOfq1AAAAAXNSR0IArs4c6QAAAARnQU1BAACxjwv8YQUAAAAJcEhZcwAADsQAAA7EAZUrDhsAAP+lSURBVHhe7N0JeBRF+sfxdxWVW85wY1C5FgTkFgQXFkFYPFAURUQFxRVXVFRc/3isCOvC4rHgsagoILAeICCoXIKgKJcICAKCGLnvS0FRMf/8Kt3DJEzuSTKTfD/P089U9/TM9PRMMlVvV731h/gEBgAAAAAAAAAIm9O8WwAAAAAAAABAmBB4BQAAAAAAAIAwI/AKAAAAAAAAAGFG4BUAAAAAAAAAwozAKwAAAAAAAACEGYFXAAAAAAAAAAgzAq8AAAAAAAAAEGYEXgEAAAAAAAAgzAi8AgAAAAAAAECYEXgFAAAAAAAAgDAj8AoAAAAAAAAAYUbgFQAAAAAAAADCjMArAAAAAAAAAIQZgVcAAAAAAAAACDMCrwAAAAAAAAAQZgReAQAAAAAAACDMCLwCAAAAAAAAQJgReAUAAAAAAACAMCPwCgAAAAAAAABhRuAVAAAAAAAAAMKMwCsAAAAAAAAAhBmBVwAAAAAAAAAIMwKvAAAAAAAAABBmBF4BAAAAAAAAIMwIvAIAAAAAAABAmBF4BQAAAAAAAIAwI/AKAAAAAAAAAGFG4BUAAAAAAAAAwozAKwAAAAAAAACE2R/iE3hlABFsz5497rZgwYJWvHhxV5Zjx47Zjz/+6MoxMTHuNi9L6TwAAAAAeV1qdeH8VE/Ob20gANGLwCsQJhs2bLDPP//cVXj279/vKjtVqlSxBg0aWL169by9Mu+ss86yX375xfr27WsvvPCCt9Vs2LBh9tBDD7myXrdUqVKuHKmWL19u33//vSu3adMmw8d7+umn2++//279+vWz//znP97WnJXV95CTcvJYjxw5YnFxcd6aWWxsLMFxAACQr+RWm0BSuy/SZLWOOmTIEHvkkUdc+fDhw7lS51Tw98MPP3TlsmXLWuvWrV05EmXXsSav/ydXuHBh99kQHEe+psArgMw5fvx4/KhRo+JjY6vpAkaKS7mYCvH9+vWL37hxo/fIjDvzzDPdcyVUpLwtiYYOHRp4nYTKnbc1cvXs2TNwvAsWLPC2JtJ7eeKJJ+KnT5/ubTnVaaed5h6r85lbUnsPkSar5zsj+vfvH3gtLQMGDPDuAQAAyLsioU0gqd0XabJaRx08eHDg8YcPH/a25qwtW7a4tomWVq1aeVsjU2rHumTJEne+tWT0XM6ZMyfwOaS2lCsbE9+nTx93HEB+Q45XIJO2bt1qF110kd1xxx0WF/ed21aseHFr2LChJfyYWa1atSyh8uO2796z00aMGGHVq1e3hQsXum041eAhQ+zxxx+3KVOmeFuQncJ5vtULecL4/3lriSZOmOi2AwAA5FW0CcIvmtoEqutGS303pWNdsmSJO99a/PQN6XXixAmvlLrde/fYyy+/bHXq1rXPPvvM2wrkDwRegUzQ0KEWF7WwFStWuPXGjRvbnDlz7NDBg/bFF1+4itS6devsYML6+++/b+3bt3f7SUZ/zPKau+++2yZNmuSWugk/vNEomt5DTh3rvHnzXGNC1MiQbdu32YIFC1wZAAAgr6FNkHl5oU1QunTpwHsYPHiwtzUy5cSxDh8+3LZv3x5YtmzZYmvWrHGvqXQS8sORI3bLLbe4MpBfEHgFMuH66693QSXp2bOnu0rYrl07O+20pH9SymnTqVMnmzVrlquEVahYybsn/1KF9JprrnFLpOejTUk0vYecOtbXX3/d3ZYpU8bGjRvnyjJmzBivBAAAkLfQJsi8vNAm0Ofqv4dIzu8qOXGsJUuWtIoVKwYW5TauU6eOe825c+e6nt6ycePGVPPCAnkNk2sBGaQK02WXXebKzZo2s88+/+yUylVKDhw4YEePHnU/QqKr5PoR2rRpk/3www8u0Xnz5s3t4osvPuU5szK51o4dO+zjjz+2bdu22a+//uoSnOvKcrNmzdyPcChKwL5r1y5XLl++fMj9NFTF/9E899xz3W1yes+HDh1yZe2jBOz79u1z65p8Se9T50FX/RtceKG7Ctq1a1cbOnSo28d3xhlnuPMWanKttWvXuh6XuqpaokQJ975U6c0sTYqwaNEid5x6PR1ny5Yt3XmQUO/Bt3nzZner4wj+LPTZ7d692z2fnsd/jM6zPptvv/3WPa8eU79+ffc98Pfxz4+kdJ4l+Fz7x5XV850eeg9lY8rYsaM/Bb6fbdu2tfnz57uhdrt27kzxewYAABCNwtkmUN1Wk01pCPbOhHqT6mHnn3++6yGrAFawrEyupdf59NNPbdWqVa4XbsGCBa1y5crWqFEjq1mzprdXUpHaJgg1uZY/gZTaBjq/5513nnXu3PmUc5heabUJJKW6f6h6uU/3+fV+f1Kw7G4TSPJj1XdF7cPXXnvNnU/R+w1+f6KOFSlNXhb8dzB69Gjr1auXK4dy00032fjx411Z38FwTDYHRAWX6RVAuiVUgAJJwhN+mLytGaOk5Up6n/AjGHiu4KV69eqnJJnPzORa27dvj+/SpUvg/uSLnlP3J1TwvEectH79+sB+Sl4fytSpUwP7fPHFF97WpLp37+7ur1CxklsPdbzdunULbEtp0WQF4p8zTUywZs2a+DZt2pyyr5aGDRu6958ROud6XKjn09KxY8f4efPmpXrOg49P9B3Rdyb4sx4+fHh8QmXQTUblf67JF52vgQMHBr4r2la4SCH3nCnR5+S/jp8YP6vnOz3Gjh0beJyS80tCxSuw7a233nLbAAAA8opwtAlk5syZ8bVq1Qo8V/Ciep3qgZq8y5dSm0BSu0/1NdUvg58/eFHdT/W35CK1TaBj8bfp8Xq+YsWLJ9lXi87JiBEj3GPSK71tAknpnCevl6vur7p91cqxgefR8eZUm0CSH6smefNfJ7VF352U6Pvr7xfq+xOsa9eubj8dW/BxAXld+i7JAXB0VVBXIkVDJVq0aOHKGaErkK1bt7IXX3zRdHVYifcTfvxcD05dkU34QXTDLy699NIsJR7XFdGLmrUMJKXX8V5xxRVuqVunjtum96P7/aufwXTVO+GH3pVTSv7/9ttveyWzd9991ysl9dlnn7vbP7dNzOsTLrNnz3bnTr0qpVzZGLf4lGvr2muv9dbS9uqrr7rcQ36OrsqVKrt1vYY+E9EV9GeeecaV0/Lzzz+7SRZ0VVzHqs/ap/tatLjIPZc+Az2/hlspN2pCZczts3PHdnflWb2hf/vtN7ctPYJfJ6eMHZN45TqhImxNmzZ1ZfVQ8M8b6QYAAEBeEo42gWiyIfUWXL9+vRslpPpT//79Xa9BPa/qdWozXHXVVd4jMkcj5G6++WZXv1T9THVcvZZuS5Qo6fbRxGATxr/pysEivU0gbROeUyMA1UtW70/1eL8eqs9K7SyNMkyPcLYJ/Hq5zlvNGjXtqaeesi3bTg6xP3Hi11xtE6R3YqxwUK/pWQltIlGO15R60AJ5EYFXIAM0BEg/iuJPIJRRPXr0sFWrVrvK1cyZM13ifQ0F0rD56dOnuwT8CmDpdfSjlNlA2qOPPup+2PUDroTm33zzjU2bNs0tX61Z44a9Dx061A0dSYlfMfp88eJTjkPHN33GDG8taYXLpx9Yf3ZXBZJT8uabb6r3vTsnosqm1oOX775LGhxWBfWsggVt4MCBLnn7rj273aKgdf36icNWFLhOqYIYTPspSKr3qMqV0hZs3bbV3erz0VCssWPHBvISpYcq0lr0nvR+NIPtK6+84pLZq0Kq74Ao6L53715btmyZO9bvt37nktDrMaelc7haRmXmfKdEaSzmzZ/jyjfe2N3diipTf/nLX1xZQ5B0IQAAACAvCEebYOnSpXbnnXe6crdu3Wzb1q32zjvv2NNPP+2GbKvurnqu6oMK9I0LyqGfEVsTnvfhhx92ZQUQlcpAdVy9lm7379/nbjt27Oj2CSWS2wSierU+B7WtfvrpJ1ePVxq3Z5991tvDbNCgQV4pZdnRJpDLL7/c5QJu0riJawuoTaC2QUzZ8rnaJlBQXedUx+JTuyr5OVf+4vRQegelSfAX1f+VrkHB7GZNLnKBcX0HR44c6T0CyB8IvAIZoIqK749//KNXSj/9iKriJBMnTLAOHTq4cjDl63nuucRKgoKI+qHPjNmzE4Nh6nGphObJxcTE2IABA9yPYa1atbytSfkVI/1I6oc/mHqaaruCxKJjXb06seLgU44gX1Zyroaiq87r161zlZfgvE3KhzVixMkfc/U2TUv/+/q7ClbhIoVs/sfzXYUgmHJZqcKhc6DKWHqpAqVKtCrPmrn1tttuc1ex/Svoffr0cUH35Fd8lYRej/n8889d3t9I9r///c8rJV69DqaeFaJzO3HiRFcGAACIdlltE8gDDzzg6kiqG6qeFKoHoOq5F1xQ1wXeXnzhRW9rxqjO7gdL9XzBeUhFz6267wcffGAvvhQ6IBbJbQIZNWqUa2epbeUHKdX55N577w3U63UMfrA8JdnVJtC50aRqi5csdsF0tQlq1KgRCEbnhTaBqGfx2WefHVjKlSvn2pm333676xCksjqmMPcD8hsCr0AG7N+/3yslztqYUbq6KeqRqbQCKdFVUX8oiz+MKaN+/00pdMz27tkTqGyFospX8gqYL7hitGDBAq+UyL+afeedfw1c6U9+hXvx4sXuVleFM5vUPiWagCyl59R9Pl3lT40Cz0uWLnHl23rf7gK3KdFnktrnFkxXp0NVoPzZ//VcTz75pCunRMP20zvBVW4Z470fNRqSnzv1nPB7LLzxxhvuFgAAINpltU2gNF+ffPKJKz/++OOp9mi89trr3O2y5cvcBEwFzjjdradXcDsgOGAcSkoTbEVym0Cuv/56r3QqpYHQ+dV50EitlGRXm0AWLfr0lIBzXmsTpIdGLOo7cPXVV7sesUB+QeAVyIDgSlFqwcyUfPpp4tXeKlWquqvDKS2q0JQuk3hV8/vvv3e3GdWoyYXuds3atdalSxc3dCajx6yKkT+UJnjIvp7nvffec2X9cN5www2unLyS5eeoTX61OLvpc/LzVamCmprgymNW82cFK1q0qFdK6uP5iedRgUr1Oo5m6s2g75eEGoKkiuS1Xbu6snr5aoZZAACAaJf1NsGnXsns+PHjIdsD/qIAlf8aGrr9268Zy8vZpEkTr2R2222320svvZThFFDR2iYQ9br0z5+Gwqcku9oEEqpdkJfaBD715lVKBn9R2oQlS5a43r5KZ6D3KppjpGWLFmm204C8gsArkAG6ou1XtDRJVkZt2ZIYRJ0xY4a1bds21UWJ1CWzVwP/8Y9/uMCXqEKklAPFihe11q1b2z333OOGE6WnougPLfpkwclKliqL+/btcz13dTVYgV3R0CI/uKahPMp/Je3bt3e3OalokSJeKXVbtmzxSolpCrKTzvfuPYk9DbL7tXKCclyJ/iaUmywUP92AjMtkbjIAAIBIktU2QfCILE1yFaot4C+aGEtUj8xMu0DD1bt3T8zDf+jQQZcKS8HIatXOdT1Fn3vuuTRHiEm0tgmKFSvmlVJHmyDrlDJP6eD8RYFW9dZVb1+lXVMQVmkVRJ03nn/+eVcG8joCr0AGaIiHH6xctWqVu00vXdHzH6srxldccUW6FgVMM6NevXouH1Bwwv9jR39yw5p0xVETH1WsUNlNfJQav4K0e+8eNyxK3nrrLVfZ9Ic+lS9fPvA6fs7PlStXBvIo5cbV7QJnnOGVUqfE+74i6QzWZtaPP/7olVLuERst9F2eMD7xs1b5/ITvdPGzzz5l6Xz55W4fmThhYuBvAAAAIFplpU0gwcFaDVkP1QYItYTKA5seGtb+xBNPBEaEifKLqk5/3333WdWqVe2mm25KNbAbrW0CP0CeFtoE2U+fxVNPPRX4TDTBG5AfEHgFMqBBgwYu2bp8NPdkovr0UBJx/0dGlY5p06ala9EEWJmlK40aDqQruBMmTHAJz/08R6IrrZ06dQpM9hRKcAXJH1o0Zeo0996Dezn6Q4smT57sbv0hRTqGlHLIRgJdBffPR3bnGgquWAVXuKKRhgz5V+pFkyqktPg0m2vyvGAAAADRJittAgmuG2vypFBtgFBLbGys96iM0Si4xx57zHbv3uXqYsOHD3c9bStUrOTtYTZ+/PhTJkoNRpsgfPJSmyCj9B0oV76CK8fFxblbIK8j8ApkgCotl7T+kysr6PTmm2+6cnpVrXqOu00+G2h201V5DTH6z3/+42b0PHjwYCCgq8rSs88+68qh6Mq6n49HvWWXLl3q0iD4Q4p8/tAiJU3X0CK/QvanPyWer0il9+BXlr/++mt3m11UmatcqbIrZ+a1fv7puFfKfeO8tAH6m1AvCqUdSGkJ/n6NGTPGKwEAAESnrLYJgidKUs78nKLjVtqx+++/3/U23LF9m2sb+PlblXvT782aHG2C8InkNsGJExnLIZwZv/6SePxFi6YvDQQQ7Qi8Ahn04IMPeiWzBx4ckKG8TvXqXeBuNbPnpk2bXDk3qOI0dOhQi42t5tZVMUqN8kuJKlkaUiT+kCJf8qFFy5Yuc+WM5HI6K6EyKD///LO7zQmqfPr8K/PZqfUlia+nXFfpvcrrXxVXZTC12VgzKrPnW2kzpk6b4soa9qbeEZpcK6Xl3nvvtbp16rj9p0ydSiJ9AAAQ9bLSJgie2d+f3T63aDTcI4884q0l5mdNCW2C8ImkNkGBAgW8UuJkb9lJIy2VF1guvLCBuwXyOgKvQAZpmE3Hjh1dWVd5lWg+rR8+5TUaOXKkzZw5063rx7LHjT3SDEDpSrJ/lTgj9PyqQPn5lFLykzezZ9myZd1tSvxk+qqITXhjvCtreFJy/tCiV195zQ0r19Xc4ByzaSlfrpy7TS31QbgpCbx/jOqNqXOekl27drmZYLPitttu80rmJjnzr6yHMnHiRBegr1mzprclcWK2UNSj4E0vl1Z6ZfZ8T5o0yeULlh49erjbtNzUs6e7VeqBqVOnujIAAEC0ykqbQHMtaOi9qL6XVqDPf1xm6PlTq99K8Gz/mjgsJbQJEuW1NkFMTIxXyt5zrr+Pm702gQSfAyAvI/AKZIKGE/lDcvTjVKt2bRfoVNkPdio3kH6wBw0aZOede57Lr6r7/Ku9S5YusUaNGrmKVnAAVo97++23rUOHDtasWbNM94wdMmSIxVY7182EmnzI0J49e+yOO+6wvfsTrzZqRtPU6AqwhiaJEuqr92LwD7/PH1rk5/7UxGDKbZteLRL2V8VMPXB13vzzospNWpOAZYXyXOl1VeFpl1ChfPnll5PkdtqwYYM99NBDViPhPX/wwQfe1sxRJV2TKMh7773nysFDzPSe9Z3QOb/xxhvdcQT3EBg4cKDL8aXt2ld5s3r37u0mU9PsoBmR2fM9dkxiRVsTNPgNjrT4FXBRDjEAAIBol5U2gerixbzJshS8VPBNdc5geh49X6VKlWzY0GHe1ozRUHa1Ka6++mpXv/OPyzd//nx74vF/uLLei59OIBTaBHmzTaDPR+9b9H1T8Fb0XdF3ML3t0S+++MKdFy0KDOv4FDR+7rnnXHuzWrVqgWNTGjzNNQLkC/EAMmX//v3xCT9+8fozSr4k/HCF3F61cmx8wg9SfLdu3ZJs1/7lysbEJ1S+kmzXMnr0aPd6CZUct963b1+37hs6dGhgXx2TnDhxIrDNX8qUKROfUDlyx+A/l5aEHz33mLQkVA4Cj3niiSe8radq1apVqvuFOl7fxo0bA8emc6LFX4+Nreb28c9tQqXVradE+2u/hIqstyV1Y8eOTXJeVNZnErxNS0KlKNX3kJ7jO3z4cHyzps0Cz6FFn70+o+BtWvR9kT59+iTZ7r+Ov5QoUTLJZ6TXkKye7+S2b98eeL5evXp5W9OnRYsWgdfavXu3txUAACB6ZbZNsGbNmvh58+a5OlzwfaoTloupcMpjK1eq7F7Pr6slbxNIqPsGDhyY5Hm0T/Xq1eNr1aqVpO2h8rJly7xHpSxS2gSDBw8OPN6v94aiOr6/n855WjLSJhB/e/LPIz3Hl5NtAknpWKVnz56Bx2gJfr86JymZOXNmkselteh4+/fv79qrQH5Bj1cgkzQjo664Kn2Arj4m/Dh59yQO9fcl/Hi6K5ganv3d99+6YUW6Oq51/4qy9tdVY38G+IQfJPecyvkUavhOWvT46dOnu/yb/oyryqWjK4xbtsW5q5fK7zpq1CibMGGCuz8tf/7znwNXQoNnLk0uuGdju3btvFL6KKm9zqeutuucaPGvyhctkv6r5JmhXKSff/65O2d6n3pdfSb+6ydUuFwPBU1QllXKsbvwk4XuqrqfWF+fvZ/vSDTUSZ+NZs0VDS/T6/ufgf8d07qOfd26r91nlBGZOd/K1eW7+eabvVL6+GkJ9Dq6+g0AABDtMtsmqFOnjuv1uHbtGuvbt68bSSSqE6qnqP/YChUrWf/+/W3K1MT8+hml51bvyFq1arl11fWUKkC9SfVaOl61N1Z++WWqvV19tAnyXptAXnnlFevTp0/gef33KwULFvRKGafvV5kyZVwuYU3urB7YTz/9dOB1gPzgD4q+emUAWaAfpzVr1tjevXvt8OHDLm+qEuerwpDaD4sS8fuPU2JzPU4/rBkZjpMa/Rjr+bds2eKGoSgpuypeymMUyTSUZ+vWre486DzGxsZ692Q/naeVK1e6z+SMM86wc845x2rXrp1tFQQN31FSff97o89fFbFQlBtJlcGDBw+6yQtUiVGFP6ty83wDAADkFZltE/h19p07d7rHnX322e4x4ayzK92YhpH7E4FVqFAhrO2O7ECbIGfbBEpdoO+h3rueT+3GSP5+ANGAwCsAAAAAAAAAhBn9uwEAAAAAAAAgzAi8AgAAAAAAAECYEXgFAAAAAAAAgDAj8AoAAAAAAAAAYcbkWgAQRTQL7W+//WYFChQIy8ylAAAAAKLHL7/8YocOHXLlEiVK2JlnnunKACITPV6BfGD58uU2efJktyhwh+jVtWtXK1eunF166aXeFgAAACB1tAfyjsWLF7v2gJa5c+d6WwFEKgKvQD4wcuRIF7DTsmbNGm9r1g0bNswGDRpkM2bM8LbkbUuXLnXvV8uRI0e8rTlLvV0BAACAjMiu9kAk1I9zWn5rAwHIGgKvADJt8JAh9vjjj9uUKVO8LXnbkiVL3PvV8uOPP3pbc95pp/GvGwAAALkvUurHOSm/tYEAZA2tdyAfuPvuu23SpEluqVu3rrcV0er333/3SgAAAEDaaA8AQO4g8ArkA40bN7ZrrrnGLUzIFP3o8QoAAICMoD0AALnjD/EJvDKAPEr5lvbt2+fKsbGxSQJ3mzdvdreaEdOvhK1du9bmzZtnW7ZscdubNWtm7dq1c/fJnj173FCiBhdeaD8kPLdyRQ0dOtS7N9EZZ5xhVapU8dYSqaemEvt/9tlntnPnTrfP+eefb+3bt7eKFSt6e51Kx/j++++74znrrLOsRo0adtlll1mZMmUsLi7O7VO+fHkrXLiwK2vCAH+mz+TvV/fpfMTExFiBAgVs/fr1tnHjRvee9u7da6effrqVLVvWGjRo4CqoeqxmDt22bZu99tprNmTIEPc8ixYtcq8ZTMdTvHhxby3z71evN3v2bFuxYoUdPnzY7dukSRNr3bq1Wz755BNr2LChffHFF94jAAAAgJSFuz2Q2/VjTSx18cUXW4sWLQJtk4IFCwaeI9ztAclsG0iP0yRYmzZtsh9++ME9d/Pmzd3xBx9Xctr/ww8/PKUNpOO95JJL3D5qI3Xq1MmVAUQoBV4B5G0JFQJdYHHL/v37va2JEn7s3fZ+/frFr1mzJr5NmzaBfYOXhg0bxm/fvt09plu3biH3CV5iY6u5fX0zZ86Mr1WrVsh9dQx9+/aNP378uLd3ot27d8d36dIl5GPOPPPM+IQKWmA9odLhPSo+fvDgwYH3lVAxiz969Gj8wIED46tWjg3sX7hIIfcc/nqopXKlyvGTJk2KT6iIhbw/+TJ27FjvCDL3fkWvVy6mQsjH6ZxWqFjJlfV5AAAAAOkR7vZATtaPJ0yYkGL9uHr16q6OrHJw/Tjc7QHJaBtIr6v35B9H8kXHvmDBAm/vk/T5+K8V/FiVtTRr2iywLbgNBCAypXx5BUC+oivI6kU5f/58t16ubIxbfLq6fO2113prGfPyyy8Hrs4WK17cXR3u37+/9erVyxIqHO7K94svvmhXXXWV9wizXbt2WbNmzQNJ6xMqRe6Kc0JFwxIqQIGr3inx86AuXLjQataoaU899ZRt2ZbYO9an5xA9d906daxVq1buNXRlXrZt3+aOVVeaMyIz71deeuklt+/uPTvdus6/jkeP0THGxX1nO3dsd/cBAAAA4ZSR9sCJEyfcbXpltn48bNgwu/HGGwP149jYaq7Orrp74SKFXE9V1ZFDCWd7YPLkyW49vdSrtnXrVu496Th0Xvv27Wv9+vWzzp07u9fTsV966aWu969Pj2vZsqW99dZb3hZzx6XHly1Tzj3XkqVLvHsARAUvAAsgD0vPFW4tCZUgdyXYv5Ituppdv369wD7BV2W1v7YlVJi8LadasmRJ4DV05VZXfpPTa/r7+FfFg6+0DxgwwF2lDqbj0hVkf5/kPV797f6iK8Pa/sorr8SPGDEivkePHu7xuvKe/Mp6QkXSbfffn650ix7nP1/wOQqW2ff7xRdfBK64q1frnDlz3HafjlHHpGPRPsFX9AEAAIDUZFd7IDvrx3od/7nVO3TRokVuu0/146lTp4asH2dXe0DS0wbq2LGj20f76nmS+/bbbwM9dfXe9HoSPNqvT58+p3xWW7ZsSdKLlh6vQOQj8ArkA+mpaKmiklJlKbjSo0qRLz2VjlatWrl9GjduHKhQhKLKnI5FFSJVTvzX05CnlAQfV0qBV1Vokgcx0yv4vK1fvz5dFcuMvF/t16JFC7fuV84UfNUQr5T4z0/gFQAAAOmVXe2BcNeP/faA6FaPU5tDAceUhKofZ1d7QNJqAwWfq+nTp3tbT6Wgsb+fjm/ZsmWBdQWFU5JSGwhAZCLVAABHyd1TSmiv+3xbt271SmlTon5NBCWPP/54qsnjr732One7bPkye/31111ZQ3D0uKxYtOjTJBMBZET9+vW9ktmOHTu8Usoy+n51/+LFi9059dMZ3HLLLVanTh1XTklqzwsAAABkRiS1BzS5lz+k/o4+fU6ZsCq51J43J9sD8sorr7jb+vXrubQCKbn88stde0c+/vjjQBtIhiabtAtA9KL1DiBNqsiUKFHSlY8dO+Zu0+PTTz/1SmbHjx93+aJSWjSzqHIWaVn06SL3GOVX8mdWzayiRYt6pdD0eppldNCgQS5nlXIqacbQkiVLJZkh1M//lJrMvt8ZM2Z4j0qsgKVFjwEAAABySk63B2bOnOk9ytI1a39q9eOcbA/Ip15bpkqVqiHfp78sWLDASpcp6/b9/vvvbWHCujRs2DDFADiA6EPgFUC6FC1SxCulX/DVcCWlb9u2bYqLEuf7duxMvJp87rnnutvsosmsypUr55La6wr8pEmTXHJ7Jbo/dOhghgOcmX2/mzZt8krmJhdICz1eAQAAkNNysj2wZcsWr2R2zjnneKWUZbZ+HO72gGzZ8r27VeeKUO8zePEnzlXQeXPcZldOT3sAQPSg9Q4gXQqccYZXSj/NyunTMJsrrrgiXYtfwfGH3mSHe+65x80sum/fPvc6Xbp0sWeffdamT59uy5Yts2+//dZVvDIiM+9Xr/vzzz97jzIrVqyYV0pZZiqAAAAAQFbkVHtA9ePffvvNe5RZwYIFvVLKMlM/zo72gHoD+8eiAGqo9xdqUS/bY0d/cgHkIpkIcAOIXAReAWSb4DQBo0ePtmnTpqVr8QOuuvKbHZQz6vnnn3flunXquB6n7777rt17772uQqgUB+ptm9E0B5l5v3pdDSXyr9IHB2FTQo9XAAAARIPM1o+De7kePHjQK6Uso/Xj7GoPFC5cOHAsbdq0Cfn+Qi0DBgxwj1PQNj3tAQDRg9Y7gGwTnAR/9erVXiltNbzhNWvWrHG34fb++++7So0qNy+8+GKayfpDOXHihFc6KbPvt0KFCoEr45qAIC2ZuaIPAAAAZKdw1o/PO+88r5QYJE1LRuvH4WgPpKRq1cSgcUbbMhUrJOZ1jYuLc7cA8gYCrwAy7SyvZ2pKV2V1ldcXPEtnWlq0bOlu169fn2oFLb0J7pPbvj0xl5IqW7Vq1XLl9ChQoIBXSpwcILnMvt8GDRp4pcQZTdOS0Sv6AAAAQHbIrvqxht773nzzTa8UWqiAb1oy2x6QtNpArVu3creLFy9OMpdDWhpcmNgmWL58eYYmMAMQ2Wi9A8i08uXKudsVK1a42+R05bhjx46uPHHiRJs8ebIrp0SB1JEjR1rv3r29LWa33nqr7dmzx1tLpP1effVVu+GGG7wtGROcR/XLL7/0SkkpH5Vew3f66adbTEyMtxb6PWf2/SrwWrlSZbdt1KhRSXJhBVOi/3Xr1tHjFQAAABEhu+rH5cuXDzxuypQp9vLLL7tyMPWEvfrqq10dOaMy0x7wpdUGuuuuu9yt6uw9buyRZhB16dKltnDhQrvyyivdus7B8OHDXTk53Td27FhvDUA0IPAKINPUM1W9L9UzddCgQYFKxa5du2zWrFmurAT1xYoXd2XNZKok9hs2bHDrPlVaHnnkEatUqZINGzrMmjZtaj179gzcV+3cWLv88svt5ptvtk6dOlmZsmXt9ttvd4nwM0MJ7P1eo3/9653uWP1j18yrzz33nNWsWdNVDn26kq4r7/7jdLz+sCdVgHScuqKdmfer57z/gfvdfXpPl7RubXPnznXHpDy38+fPt+uvv969fmbfMwAAABBu2VU/Fj3On/vhjjvusAvq1rWbbrrJbrzxRleuV6+ey4+aGZlpD/jSagOpLdOrVy+3bcnSJdaoUSMXcPb3E9Xx3377bevQoYM1a9bMnafu3btbhYqV3P2PP/64Ox86Fp1LpSPTMZ137nn22muvuX0ARIl4AHne0KFD4/XnrmX//v3e1kQJlQa3vV+/ft6W0GJjq7n9EipL3pb4+I0bN8YnVIbcdj2PFn9d+/vmzZsXX6JESbfdXxIqX/HlYioEXt9fKleq7B5z/Phx91rB9wUvjRs3jh81alRgfebMme5xMnjw4MD2w4cPe1uTSqjYBPbxl+TH0qZNm0B5zpw57nE9e/ZMso//frWMHTvW7ZOZ93vixIkkrxdq0b7+59CwYUP3OAAAACAt2dUekOyqH4vq4Mkf5y96Hb2vVq1aufVmTZt5j8qe9oDf3khPG0htmW7dugUe6+9brmyMe9/B27WMHj3aPU6vkfwYki8tWrQIlN9//333OACRix6vADLt/PPPt4TKgVWvXt0NpdGiK7JStEhhdyvK7bR27Rrr27evJVSc3LYfjhyx3Xt2useIru7279/fpkyd4tYTKi/2zjvvWEJly/r06WPt27d3w41UVjL8ZcuWJZnttGTJxOdNL+WYSqhcBq50i38sCZU3W7JkiT366KNuXfzcUa+88oo7Bv9x/vuVggULutvMvF8934wZMwJXx4PpXOg1V61eZVWqJKYkAAAAACJBdtWPpV27dvbtt5vc0PsuXbq459Ht0KFD7bvvvrMBAwbYL8cTX+/sEme72/TKaHvAl542kOrvyk07adIka9y4sdum/Xbv3ePet+h11cbRcagnsKgHrHrN+mnIgikX7fTp0+2pp57ytgCIBn9Q9NUrA0CmabiQhsIULlzYKlasaLGxsd49SanCoRk+d+7caYcPH7azzz7bVVrOPfdcb4/0U64nDTsSPZ9yQWXUjh077NNPP7VDhw5Z6dKl7aKLLnLHnxYND9L70JChUqVKuYqQ3ntymXm/Gqa0aNEiO3jwoHtPrVu3tuLe8CwAAAAgEmVn/Tg15WPKuYCmgr+aLyGjMtsekPS2gZQvVu957969bkKysmXLunkeQp0f0TnSMSnFgIK4db3UCgCiD4FXAFFLCejfe++9hApONfvuu83eVgAAAAD5werVq61+/fqurEmn/HkiACBSkGoAQETyZ/cMHqrk0xVgJZdX0FVDdG67rbd3DwAAAIC8YsyYMa5HaihxcXF2Y/furqzJu/zh+gAQSejxCiAiPf300/bAAw9Y4SKFrFHDxlatWjUrWrSo7d+/3xZ9usi2bd/m9qtbp459sWJFYMZTAAAAAHlDkaKF7djRn1wqAg231xB9WbdunUvNpQ4ZMmHCBOvuBWEBIJIQeAUQkfzAa2o02db48eNdDikAAAAAeYsfeA1FI9+KFz/bXnjheYKuACIWgVcAEUnJ+T///HM3m+j3339v+/bts19//dVKlizp8jhddtllJJgHAAAA8rC1a9e69sAXX3zhJr/S5LMFCxa0ChUqWMuWLV16AUa+AYhkBF4BAAAAAAAAIMyYXAsAAAAAAAAAwozAKwAAAAAAAACEGYFXAAAAAAAAAAgzAq8AAAAAAAAAEGYEXgEAAAAAAAAgzAi8AgAAAAAAAECYEXgFAAAAAAAAgDAj8AoAAAAAAAAAYUbgFQAAAAAAAADCjMArAAAAAAAAAIQZgVcAAAAAAAAACDMCrwAAAAAAAAAQZgReAQAAAAAAACDMCLwCAAAAAAAAQJgReAUAAAAAAACAMCPwCgAAAAAAAABhRuAVAAAAAAAAAMKMwCsAAAAAAAAAhBmBVwAAAAAAAAAIMwKvAAAAAAAAABBmBF4BAAAAAAAAIMwIvAIAAAAAAABAmBF4BQAAAAAAAIAwI/AKAAAAAAAAAGFG4BUAAAAAAAAAwuwP8Qm8MoAcdv/999vKL7/y1k4qcMYf7PTTT7ciRYpYqVKlrGrVqla/fn1r3bq1FS9e3NsrZaGet+9dd9g111zjraVsxYoV9uADf3flho3q27///W9XTs31119ve/cc8NbMLvnTxfbYY495a5mzevVqu+/eB7y1pHR+zjzzTHcuypcvbzVr1rTmzZtbvXr1vD0AAACAyJdd7YFQdemzSxS1SZMm2Wmnpd3/6p577rE1X61z5REjn7U6deq4ckpoDwBAaARegVykitOiRYvs999/97akTpWkdu3a2d13322dO3f2tp4q1PPGxlazDRvWuwpKaubPn29t27Z15bZtLrWP5s125ZQoUNuoUSNvLVHhIoUSKl77rHDhwt6WjFu4cKFdcskl3lr6VK5U2brf2N1VYGNiYrytAAAAQGTKrvZAqLq0HvvSSy9Znz59vC0pa9mypS1evNgdl46vRYsW3j2noj0AACkj1QCQy9JbyRLtO3v2bLv88stdZWjz5s3ePadK/rxxcd/ZqFGjvLXwGTt2rFc66djRn2zq1KneWs7Ztn2bDRs2zKpUqWLPPfectxUAAACIXNnVHkhOj31y0JN27Ngxb0vq0ntctAcAIGUEXoFc5g/1GThwoB0/fjywHD582LZv3+6uMI8ePdq6du2apLfqZ599Zg0uvNDdhuI/b/fu3d2tDBo0KN0VrfRQZWzixInemiW56h6qApZZei/B5+bo0aO2e/duW79+vb3//vs2YMAAq1Wrlre32S+//GL33Xef3XjjjRmqyAIAAAA5LbvaA75mTZu50W+iwKR6vYYL7QEASB2BVyCXqSKgikShQoVcRcpflK+oYsWKblhPr1697J133rGtW7da3759vUea/XDkiF3WsaNt2LDB23KSX8Ho2bNnoBKyb98+e/bZZ105HGbOnOmeUxo2bGhDhgxxZZk7d67t2rXLW8u64HOjIUsaOqRcTp06dbKhQ4faunXrXKXLr1SKKoG33367twYAAABEnuxqD/jOPOvMhHr6YG/NbPDgIXYk4XHhQHsAAFJH4BXIZapkpfcqrCoXL7zwgkuKr7xJospW12uucVd1fQUKFPBKiRWUf/3rX96a2dBhw+zAgZOJ77Ni3LhxXsnspptucsns63qJ9/We3nzzTVfOKap0ffHFcmvfvr23xey1116zt99+21sLTRVPVQp1XoLPY2bs2bPHVXzTc471Wqo8p3d/X1aPV5/Njh07bO3ate710/v9C0WP1bHoufScWT1/AAAA+U12tAeCnThxwo2Cq18/ceKpQ4cOuuH44ZBX2gM6d6pbq16b1aC0nkspIOLi4tJVN9brqj2QkXp5JLUHRMej95zRdg2QHxB4BXJZZn7krkmoWI0c8by3ZrYm4QdTw498v/32m1dKdOWVV1rjxo1dWRWz4CvRmaUf1ylTpriyKouayVRu6tnT3cqYMa97pZyjWV91XNWrV/e2mPW7+95AhUTHrXxPOt7atWvbWWedZWeffbZVqFDBSpcu7darVK7i7v/ggw/cY4JNnjzZrr32WreMGTPGbdNzPvTQQ+5x5cqVcz2M9Vw1atQIOZRLE5jpMylZqoSboVb7ly1b1ho0qO+eP1hWjzeYKkO9e/d2x1ipUiWrW7eue/1ixYu696NhaqqE++9PFbGUqAeD3oMeq2PRc+k5ixUrZn9u295mzJjh7QkAAIDUZEd7IJR//vMpr2T27HPPuMBdVkRre0BUH7/nnnvc5GblY8q5OrXq1qrXqq5dpGhha9KkiUvVpo4Vyfn1ZS1+KrdZs2a5wK96Lp933nlWrVo1VzfWedm0aZPbx6dz98gjj7j2gl5X7QHVy0uULOnq68GvGantAQVY9R4uSHiOkgnHrffst4OqVTvXTXAW6twB+U48gFzTqlWr+IRKSrz+FAcPHuxtTb/27du7x2qJja3mbU36vPPmzXPbdOvve+aZZ8Zv377dbU8ueL+2bS71tp4qoWIX2E/H4duyZUtgu5Y1a9Z492TMggULAs+h95JRS5YsSXIcY8eOddu/+OKLJNvTWjp37hx/9OhR91jR5+Tf169fv/gJEybElyhRMsljki/du3d3j92/f398ly5dQu4TvAwfPtztL1k9Xt+IESPc5x7qMcGL/73Ros8gucOHD8dfccUVSR6T0tKtW7f448ePe48EAABActnVHgiuS7do0cLbmvh6/va+fft6W0+lx/j7LVq0yNuaVLS2B0R15uD7UltU13///fe9RyYKrjNv3LgxzecrVrx4/LJly9xj33rrrfgyZcqE3M9f9Fnu3r3b7R9p7QGZOnWqOy/B+4ZatI/fHgXyK3q8ArksK8M6gvM7xcV9ZytWrPDWTn3eNm3aBIbc6Grvo48+6sqZ5ff2FCWt92kG0YQKnbeWdL+c1LRp08AwJ1FOrOQSKgpuyJUmKujTp4/Lh9uxY0dLqAh5e5jruamcWqEoZ5Teu4ZrSeVKld1713PquX3a78EHH7T69eoHegWIrghr/+Cr8aLJAULl6crs8eoKeb9+/QJX+ZV+Qt8FPUePHj3cMSRUBt19qX0fdTW/detW9t5777l1DW/TMbz44os2YcIElz/4iiuucPdJQqWSnFoAAABpyK72QCjBKcj++9//uh6QmZUX2gNSrmyMqxurXqv6seraylfrU13/8ssvT7H350UXXRQY7aV6th6rvLwVKlZy20SjDpWK4Y477rBu3boF8uKWKFHSTX6m0Yl+6gjRZ6keo8nldntAxo0bZ1dddZU7L9pXx/PEE0+4ydTU6/qBBx5w7SLRPp0v/0vItg2Qb3gBWAC5IOEHLktXuNWbMOEHOnBF8dlnn3Xbg583+AqjrrL6++r+9evXe/eclJ4er8FXsfX6ya+ovvLKK4H7Eyoc8SdOnPDuSb+sXuGW4N6pusosuuKuHqjTp08PeSVYdF6DH6vFv1KffLuWhIpP/KpVq9z9vp07d8YnVKJO2VdXmQcOHHhKj2P1JNAx+vupN61k9Xh1pd//LmjRsfpXz4PpOXTlOvjqe/Ir3AmVssB9+o7pPYaS/L2kdKUcAAAgv8uu9kBwXTq4x6sE9870R2Yll1aP12huD8iAAQPihw4dGrI95FN9ulatWoHHqx7tC65faylXNiZ+1KhRp5yH119/Pcl+/tKwYcP4mTNnJjkvemzPnj0D++g1NGIuktoDek7/+6Z2jd5fKHoujX7zn0ffcyC/IvAK5CL9APk/RpmpaEndOnUCz9GrVy+3Lfh5kw/t0A+tf19w5cGXnsBr8I+6flCT03B0/RD7+8yZM8e7J/3CUdFSxcF/Di0ppVdIiYZM+Y9VxUyC33u5mAquwpQSVUz8fbUoEPvtt996955KFWXtp/dbv349b2v6hTre4O+CKtlp0ev6+wdXtIKD9tWrV3efcWpefPHFwP6hvmcAAADIvvZAaoHX5HVUP0AXLK3Aa35pD+i9+49VwNEPlAYHMhUsTa1uHJxqTOfED46HooBlcBozBVszIjvbA9KxY8fAfQo0p0bvpXKlyoH9Q33PgPyAVANALkv40fZKmVOx0skhLP6QlQIFCrjbUBIqSYHX1GyoaQ1HCkXDSHwa3pJc8eLF7S9/+Yu3lnT/nKQJq4L55ye9NPzG9/3333ulk7pdf6116NDBWztVnTp13PAh3zPPPmPnnnuut3YqJfcXDdnZuGmjK2dE8uPVcKhPPvnE22IuJUBmKY2A76mnnnKfcWpuvvlmN4RJ5s79yN0CAADgVNnRHkiN6qjdu3f31sz+/ve/e6X0yy/tAaUMKOylADh29Cc7dOiQKwcbOXJkqnVjpXzzP+OLW15i9957ryuHovqzUnv5MjpEPzvbA5og7MMPP3RlpXBQmoLU6L3cfMvN3prZvHnzvBKQvxB4BXJZVnI6SfCP/M8//+xuf/vtN3cbSs2aNe2WW27x1swefvhhr5Q+y5cvt40bE4OCyiV02WWXuXJywXme3p0yOTDbZ07SbJ/B/PMTyo4dO9x7U04k5aFSHqSPP/7Yu1f5iU6tZKVH5UoVvZLZDz/84JVCq1jx5L6q2KX23UjP8c6ZM8dbM5e3Sfm2MuujOXPdrSpQynGVlsKFC1sNL3etcjvpeAEAAHCq7GgPpGXIkCGBYKDqk5rNPr3yantA+U8V6Jw/f769/fbb9vLLL7vzFCwzbQLV8f3P+OjRI+42NeXLl/dKZgcPJs4lEUpOtweCA6fXXnedV0rdhRde6JXMVq5c6ZWA/IXAK5DLsnqFe//+/V4paaUrted98sknA70RZ8+e7SoX6fX6668Hnvu6hB/clF5HwTk/QbuCiFOnTnXlnHT48GGvlKhIkSJeyWzPnj3u6nTbtm2tZMlSVqlSJWvSpIk77ltvvdXuu+8+V4nJqiJFinolsxMnTnil0JJfKQ8OoGfmeL/66iuvZG7fzNq6davt3rvHlc8qWNDuvPNO6927d5rL3r0H3GMktUojAABAfpZd7YHUxMbG2l//+ldvLWO9XvNKe0DUDtKEVzVq1LBChQq5yW9V39YEWNr+yCOPuGPPiqJFT7YHfv3tV6+UsiT7/3py/9xsD8iiRYu8kka0zQ1Z/0++aLItH+0B5FdZ+w8PIMuyeoV7b8IPsC+4x2Rqz6v9/va3v3lribPop4euAuvqr//cuoqtcqhF6Q66XHWV209yY3jRzp07vVIi/wrv008/bdXOjXUze6qypR6Z2eXMsxID3OlRsGBBr5RUZo9XlTNf8Hcjo3bv3u2VEmdkfe2119K17N5z8vwfPXrUKwEAACCY6s5ZkVJ7IC2PP/54YBi9hqPPmjXLlVOTV9oD6tmqNF8KYqpnq3rw6pizgwK6GRFq/9xuD8jevXu9UuL3JVT9P/nipyYQ2gPIrwi8ArksK1e4jxw5Yl+vW+etmTVq1Mjdppbj1Tdw4MDAFWgNUZk2bZorp0a9Y4PzIrVs2dJOP/30FJdx48Z5eyZeFd21a5e3ljMWL17slXRVv5rrAXDPPffYAw88ELhyrcqmrmgrh+n06dNt1apVtn37dlcxGDVqlNsnq7LyGWfleI8dPe6VElMEZFZwigS9fts2l2Z4ST7MCwAAAImyoz2QHjExMXbfvf29NbOHHkq7M0ZeaA8oV+nFF1+cJPdp/fr1XGeUCRMm2IIFC1wgVj2JNWKtXNkYb6/cEQntAQnuPawcr6Hq/KktDRo08B4N5C8EXoFclpUrqxpKEvz4zp07u9vUcrz6SpUqZQ8F9XTV8KK0jiUrV6n13G+++aa3ljMmTZrslcw6deroAswjRozwtphLCL93zz53XEpyr/NXr149dzVYOUrDJTOfsSrgWT3es0ucHKakSnlmFStWzCslfG9KlLaP5s3O8KLcwgAAADhVuNoDqj+mlG81JQo2+pPBrlq12vVmTU20twdEvUb94HHlSpVdoHXlylU2dOhQN+mYesKef/75rr2UlaB4OChQHQntAQnuSHH/Aw+ErPOntuj8AvkRgVcgl2X2x1wVl2HDTv54XXHFFa5y4EvP8yoPkBLiy/r16238+PGuHIp+qN977z1vLTE5e3qW6t4ESzJmzOteKftNnjzZ4uK+89bM5Wh65ZVXAudFV111RTicAdaUZOYz1ucbXLHNzPFWqFDBKyV+vpnlf0dkx84duTIxAgAAQF4VrvaAgnDqxZoR6gH6yCMDvTVzOU39QG5yeaE9oKH3wcPf33r7LRdojVRr1qzxSrnbHpCyZct6JXO9hgGkT+b+wwMIm5QqNml57LHH3FVp36OPPuqVEqXnefWjrefxPTrwcfvpp9DJ43X1WzmdpGHDhrZw4cJ0LZMmTXKPER3v2rVrvbXsowpV8GQB/pXguLg4d15Uub2qS9oz84dLZj9jHa9k9niDE+h/PP/kDKcZpckX/CFWei/BM5oCAAAga7KrPZBemji1QsVKrqwh9q+++qorJ5cX2gPBAUP19G3RooW3FpkOHEjM5Zrb7QFRWgnfjBnTvRKAtBB4BXJZZq5w60r0U0895a2Z9e3b1xo3buytJUrv8+rKr/IdyZZtcfbSSy+5cnLB+Zluuukmr5Q2VXA0O6hvzJgxXil7KFG+cjb5w4eUA0mzf8rhQ4l5iTJbuc2szHzGcuDAAXeb2eNt37594LW3bd/mrvqnZseOHbZn78lZcYN16Hhy2NrgJwfn+DkEAADIq7KrPZBe6ozxj8dPdsb4xxOD7Oeff/bWTsoL7YHguQuiwXEv0B0J7QE9l08B9A8++MBbA5CazEUDAIRNRn5EdcVYQ2GGDBkSeJwqWEqsnlx6n1dJ1p944h/eWmKeqOTU8zI4+fx1113nldKnR48eXslswsT/ZUvQTkOfBg0aZE2aNnVX6n3jxr7hemxKlaqJs5iKJgZIjSYbG/LkycpsVmT2/fqzrkpmjle5nq688kpvzezWXr3cLKjJKcCr71St2rVt547t3taklP/Lt2z5Mrv77ru9tdSpR4NmuwUAAEBo2dUeyIjbbrstkBJA9cEVK1a4si+vtAcqV67sbuXQoYOnvM9gqiP37t3bdu/d423JeWcXPznXQm63B3QOu3bt6q2Z3XzzzS7InRb1kn766afTzB8M5FUEXoFc5l+B/Oabb9yPoBbN+KkA6MSJE23YsGHuB79K5Sp2ySWXJKnwaGjMRx99FHKGyoxcOVdFSDNTpkSze/ratGnjfsAz4oYbbvBKiRW5jA5VV8XMPzdaZs2a5a7WahjUQw89ZG3btrWSJUva448/bj8kVLhE50THfc0117h1ufzyk8NzdH41Q6iGIfn81+nUqZNdddVVrgdwOGSmF4NoSJQvs8f7n//8x4oVL+7KOjc6VxfUrWvXX3+9W5o3a+7yNanXhH/uQqmT8P3o3z9x1lu97osvvuieS5X/5BVnVXpVsdL5rpvwWp999rl3DwAAAJLLrvZARugYBg8e7K2dKq+0B1Sn9Uf7yTXXdHXPFUy9PhUoPO+88+21117ztuYOTfLly+32gDzzzDOB+R/Uo7hhowvd9zP4mHwKaus5zzv3PHvggQdC9qIG8oV4ALmmVatW8fozzOhSuEih+IEDB8afOHHCe6akgp83oVLjbU3d1KlTk7yGlrZtLnX3Va9ePbBt9OjRbltGNWvaLPAcPXr08LambMGCBYH9M7rotb744gvvmU7S+WrYsOEp+5coUTK+cqXK8QmVsyTbEyplgXL37t3dcyRUSAPb+vXr57alJvizeP/9972toen4/H0TKr/xR48ezfLxis5lQmUryb6hFn2n6tap48p6fT0umI5Pz5v8cXru+vXrufOuY9Bjg+/XNgAAAJwqu9oDwXXpFi1aeFvTpjpd8OtoWbRoUZ5pD8ikSZNO2V/16qqVY109O3h7uZgKSerc3377rXuO4Pru4cOH3baUBL8P1e3Tos/V33/AgAER1R4QfR+Snyct+o7ovOvxul+PDz5PY8eO9Z4ByF/o8QrksoQfI6+UtoSKkCX8GNrWLdvcFenUHpuR5xUNQUn4ofTWTlq6dGlgqE7CD3uS4SUZcWOPk8PN350yOewz4+sqro7t/ffft8VLFruE/8npnEyfPt2dx2AaZqScR/5kAQmVLrffww//3a1nVUY/C9HV6wIFCoTleDUcbe2aNa5ns3+12+eft1WrViXp5aDXL1GihLeWSO9DvQY0m6o/2ZboyrjyPC1ZusTNHBvcAzah8md33nlyYgMAAAAklZG6YkbaA5kxdOgwr3TS119/nWfaA6IesCNGjEhy7lSvVm9R1bN9PXv2tK/XrbHSZU7O5p8bIqk9IOplvXr1qiSj80TfEbUH1qxd645Pj9ei78wVV1xhjRo18vYE8pc/KPrqlQHksHHjxgVmrk+uYMGCVqhQITv77LNdPh0lpI+JORnsSk3w86rC4Oc0Ssvq1att6tSp3lri0BblQfr448QZMFXu1auXK2eUhp/897//9dYS0xuce+653tqptm7daq+//rq3ltTpp59uZ5xxhqsIlCtXzh2nclLpRz09VEHRUHkFETd8840d/fFHK1umnDVp2sgNg9IwHU0yoOExGtIj9evXd8FpDa33z0ezZs2sQ4cOrpyS4M+ie/fuSYYLhaK8VD4NzVGFMCvHm5yea9u2bQmVoUNWqlQpN0ws+LxpmJE/EcH27dtTHEam59F3RUPb9LqHDx+2I4cOW/ESZ1u1atXcDKo6rsxO8gAAAJAfZFd7ILguXbVqVbvllltcOT2ee+45lzrKp+H5ytsveaU9IGr7DB061OZ/vMB279ppBQudZdXPr55Qv7/MtaH0vkVpB44ePerKf/vb31wdWvlQT5w44bb9/e9/T/V1g9+H6tbKp5sapQ7w00m0atXKpXaIxPaA6HuhQLfaR1u3bLH9Bw/ZGaedYWViSrmUYzr2q6++2oonC/YC+QmBVwCAowq2cmMlXt0uaQcPHvDuAQAAAJDX0R4Awi+84xIAAFHrzTffdJUsadPmT+4WAAAAQP5AewAIPwKvAJDHaTbczZs3e2uhaebcBx580Fsz69u3r1cCAAAAEM1oDwC5h1QDAJDH1a5d29avX+8murr44pZ2wQUXuHxOsmPHDlfJ8vNIiZLfT5s2zVsDAAAAEM1oDwC5h8ArAORxfkUrPdq3b2/vvPMOCfABAACAPIL2AJB7SDUAAHlc69atrULFSt5aaPXr13OzrX744YdUsgAAAIA8hPYAkHvo8QoA+YSGEcXFxdmBAwfcUqRIETfEqH79+oGhRgAAAADyJtoDQM4j8AoAAAAAAAAAYUaqAQAAAAAAAAAIMwKvAAAAAAAAABBmBF4BAAAAAAAAIMwIvAIAAAAAAABAmBF4BQAAAAAAAIAwI/AKAAAAAAAAAGFG4BUAAAAAAAAAwozAKwAAAAAAAACEGYFXAAAAAAAAAAgzAq8AAAAAAAAAEGYEXgEAAAAAAAAgzAi8AgAAAAAAAECYEXgFAAAAAAAAgDAj8AoAAAAAAAAAYUbgFQAAAAAAAADCjMArAAAAAAAAAIQZgVcAAAAAAAAACDMCrwAAAAAAAAAQZn+IT+CVASCqHTlyxA4cOGC///67HTp0yNuaqESJEnbaaadZqVKlrHjx4t5WAAAAAHnFsWPHbP/+/fbrr7/ajz/+aL/99pt3j7k2gNoDahf4bQMAyG4EXgFEjbVr19r69evt22+/dUtcXJzt3r3L9u87YNu2b/P2Sp/KlSpbTLkYK1OmjMXGxlqNGjXs/PPPt1q1alnNmjW9vQAAAABEiq1bt9rXX39t33zzjWsXfPfdd3Zg/wHbuWO37dqzw3755Rdvz7SVKxtjJUuXsqpVq1r58uVde6B69ep27rnnWsOGDQnMAggLAq8AItKGDRvs888/d8uSJYtt46aNduzoT64CpB6t2alwkUJWq2Zta968uTVr1swtBGMBAACAnLNr1y5buHBhQltgiS1btsxWrlplPxw54t1r2dou0HOfd955rh3QtGlTa9mypQvGAkBGEXgFEBHUe3XevHn20Ucf2Udz5truvXu8e1J35plnWkzZGKtUqZKVKl3KihQp4oYRFShQwNsjkYYZKRWBn45g185dtifhNdJ7VbxcTAX7c7s29uc//9kuvfRSq1KlincPAAAAgKxSHX3+/PmuTfDBBx8mtA++8+5JnYKkZUuXsUpVKrvRbGoLFC5c2AoWLOjtcZJe4+eff3a3e/fute07trnOHanxA7zFEp734pYtrWPHjgRiAaQbgVcAuWbTpk327rvv2hvjxtnX69aleMValR0N/dGiK85KB6DAZ+XKla1ixYreXhmn19u+fbvt3LnTBX43btxoixcvdseloUupqVunjt3Us6ddeeWV9IYFAAAAMkG9Wt977z178803bcGCBan2YI2NrZbQHqhuDRo0sDoJdXGlCVOKALUJ1Bkjs/bs2WPbtm2zHTt2uFF36l27fv06W7dufYqdNNQ+qVihol1/w/XWpUsXa9GihXcPACRF4BVAjlKF5u2337Y33njDVqxY4W1NqkSJknbxxS3tT3/6k1100UVWt27dHJ8QSz1jV65c6QKxH3/8sX26aFGSoU3BdLX7lltusWuuuSZLgWAAAAAgr9MEWAq0vvXWWzZ37tyQwVYFUjXMv3Xr1taqVSu78MILLSYmxrs3ZyjoumbNGpfq4NNPP7X5Hy+wnTu2e/eepCBs1arn2NVXd7E+ffrQKQNAEgReAeQI5WcaOXKk6+EaqnLVuHFju+qqq1zF6uKLL3YVmEiiY1aF65NPPrHp7023JUuXePecpGO+9tprrW/fvq6SCAAAACCRepO++OKL9vqYMSE7NKhHq4KXbdq0sbZt27p0AZFGk/0qFcKMGTNc54xQPWLVnrnnnnvs8ssvz1JPXAB5A4FXANlGFZGJEyfa08OH25qESkpy6inarVs369GjR9T1FFXP3fHjx7sr9cl77ioA+8fate2+/v3de6PCBQAAgPzqgw8+sP/85z82e/Zsb8tJCrZ27XqNGz2m9AHRRCPkJk2alGLP3XJlY6z/A/fbbbfdZqVKlfK2AshvCLwCCDsNH3r55Zft6eFP27bt27ytiSpUrGS9br3FbrjhhqirXKVEV77/97//2Wuvjzll+FHlSpVtwEMDrHfv3hF51R4AAAAINwUhp0yZYv/85z9P6aRQuEghu77bDXbzzTfnmVFifjq10a++ekqHE73fv95xpz300EM5ni4BQO4j8AogbNTDdfTo0fbYY4/Zvn37vK2JmjVtZg8OeDBPD7nR+58+fbr961//suXLl3tbEyngPOiJf1jPnj3pAQsAAIA8Sz1cHxow4JQApHq39u9/nwu45vT8DTnps88+s+HDh9u0adOS9IJVG+DBBx9MOAf96QEL5CMEXgGExeTJk+3hhx+2jRs3elsSXXHFFTZw4EBr2rSptyV/UIXr2WefdcOPglWvXt3+/e9/25VXXultAQAAAKKferb2vbPvKXMh+B0wNPt/pM3jkJ3i4uJce+DV0a/YsaM/eVvNihUvbo8/9pjdfffddMgA8gECrwCyREny77zzTps/f763JZFytz7xxBP5flZPpSF48sknXe6nYJo0QJON5ZV0CwAAAMifDhw44HpyjhkzJkkPTwVcn/rXU67em5/t2bPHdbwYMWJEYDIuBaBr1Kjh2gPt2rVz2wDkTQReAWSKkskPGTLEnnvuuSSzebZv396eeuopN3EWTlIPgAceeCBJgFpXuP/617+6wGxeHm4FAACAvEdB1lGjRp2SZqxWrVou0NipU6d81cM1LcoD++ijj9prr73mbUmknsDPPPOMxcbGelsA5CUEXgFkmIKHvXr1tri477wtiUPoVWHo3LmztwWhzJgxw+V1Ck7JoHOnSmt+7w0AAACA6LBp06aE9kAv++STT7wtZiVKlLRBg56wO+64gyH0qQjVIUPpB4b/+9/Wp08fbwuAvILLTwDSTT1b77rrLmvbtm0g6KpK1eDBg23NmjUEXdNB50jnSgn3NcOpKAirc6pze+zYMbcNAAAAiEQaHt+wUaMkQVcFYb/9dhN5S9NBIwPnzZtnU6dOdRPwyg9HjriAdYcOHVzPWAB5Bz1eAaSLcpVe361bktlJW7RoYW+88Yade+653hZkxObNm+2mm25yE3H56tapYxMmTrR69ep5WwAAAIDcp1ylt9xyi3344YfeFrPY2Gr22mujGbmVSUrfdt999yVJP6Cew2PGvM5kvEAeQY9XAGmaOHGiuzLrB13VU1MzdOoqN0HXzNO50znUufR7v+ocN2nSxJ1zAAAAIBIsX77cGjVslCToqmHxa9euIeiaBZrnYfTo0TZ9+nSrXKmy23bo0EG76qqr7KGHHkoyWRmA6ESPVwApUmoBzVCqGTh96pE5afJkq1mzprcF4ZC8R7EmIrjtttvcUC6GawEAACC3vPTSS/a3v/0tEARUj8wJE8a7ybMQPgcOHLAePXokCW4rqP3mm29aTEyMtwVAtCHwCiAkDSXq2rVrktxNPXv2dBWvwoULe1sQTsrveuedd9r48eMDFVulc5gyZQqVLQAAAOQodcK4/fbbT6mbKhBYpUoVt47w0nnWXBAPP/xw4JwrD+yM6e+5EYgAog+BVwCn0CyluoLtz7yvHpeadV85nZD9lONJAVhVdkW5s2bO/JBexgAAAMgRyj167bXX2uzZs926RmOp1+u///1vRmPlgIULF9r1N3S3nTu2u3WlJXvrzbeZzBiIQgReASShiZ7+8pfOLreQ6Arr1CnvWtOmTd06csbSpUvtqi5XBypbZcqUsWnTprleBgAAAEB20az6Hdq3D6TAUqD19ddft+7du7t15Ax9Dgp++xPxKvit0YfKrQsgehB4BRCgK6udL7/cfjhyxK0rn+sHH37IUKJcsnXrVrv88s62atVqt16seHF75+23rUOHDm4dAAAACKfNmzfbZZddFhj5pov/kydPttatW7t15CylIrvhhhvsvffe87aYm3/j7rvv9tYARLrTvFsA+dysWbOsY6fLAkHX9u3b25KlSwm65iKd+4ULP3GfheizueKKK1zPVwAAACCclG7sktaXBIKuSnf1+eefE3TNRZpbQ/M9PPDAA94Ws379+tkjjzzirQGIdKf/I4FXBpBPKZCngN4vv/zq1jWp1qRJk6xgwYJuHbnnrLPOsm7dutnatWtt/fr1duLECXv33XetXr16VqtWLW8vAAAAIPM2bNhgrS9uZTt37XTrGvk2/+P5ds4557h15J4//OEPriOGgrBz58512zQB8m+//WZt27Z16wAiF6kGgHzugw8+sC5dugQmcurVq5e98sorLodQJFIActmyZfbVV1/Zvn373PCbSKIKkYZk1a5d2y666CKrk1BpDQfNanrrrbfauHHj3Lpybc2cOdPatGnj1gEAAIDMUE/XNn9qY9u2b3PrjRs3dqPhSpUq5dYjjXKffvrpp7Z69WrbuXOnmwgskqiervZAtWrV3DwZzZs3D1vbauTIka7Hq+/ZZ5+1e++911sDEIkIvAL5mBK1X9q+nR07+pNbV8L8N954I+KCrso1NWrUKJs4YaLt2LnDbStStKjZOZEZHP5p/zH7fddvrlyxQkXrfmN3F9CuWbOm25ZZCr7efPPNNn78eLeu2U3nz/uYic8AAACQKbt27XKpBPz0AvXr17PZs+dYTEyMW48UBw4ccBN8TZw40VasWOG2aRLgmLKlrXSpcm49Uvx8/Kjt3bvXvv/+e9crtXjxs+3qq7tY7969wzJR7tNPP50k9YDaSUy4BUQuAq9APqWeoxcl/PD7OV3V61XpBSIp6KoK1qOPPmr//e9/rWChs6x0qwpW6OKzrdSFkVW5SsmBL3fbT58etv2f7LSffzpuf/3rX+3xxx/PUkVWwVelglCuJ9HV9I8//jhsPWsBAACQP6inaMuE9sCahHaBKI3VggULIiroqlF56uU5ePAQO3bsqEuPpnaLhtiXL1/e2ysy6diXL1/uRhi+/fbbLritlAHPPPNMluvuQ4YMCeR5VftNqeM6d+7s1gFEFgKvQD60Z88ea9asucXFfefWVQGYPn26GxYTKTS8qUePHnbsp6NWvFOMxd5S27snOm2fsdn2j9tqZ55R0N54Y1yWKkaqxGm22fnz57t1TXywZMniiOuZAAAAgMiUvD5ZvXp1N3w/kuqTyjurEXkrV650HRjUISPSg60pUecJtbfuvfc+27Llexs2bJjdd999Wer08tBDD7nnEUbCAZErMsfpAsg2qmTpKrEfdG3WtJnrPRlJQVdd1e7UqZMdr/Cb1XixadQHXaVS53Pde/nlj7/ZlVdeaYMGDfLuyTh9VlOnTnWTHog+y+A8vQAAAEBq7rzzTte7VTSCSr0yIynoqkmkmjRt6uZz+Pzzz+2FF16I2qCrKMCqNsDatWtcmgAtmkA3K/NVPPXUUy4wLUod95e//MW2bt3q1gFEDnq8AvmMcgu99tprrly5UmX77PPPrEqVKm49EmjIjCoRMddUyRMB11DU+3XrS9/YwIEDbfDgwd7WjFPFqsVFLQITIfTs2dPGjh3rygAAAEAor776qt1+++2urAv66vUajtyj4aJh89ddd50blTdhwgQrXry4d0/eMWPGDOt2/XXWts2fbfLkyZnuBKOOF+3atbNPPvnErTds2NCVNeEvgMhA4BXIRxRwVeBViiVUYD5N+FGuV6+eW48EOj5VAvNy0NXnB19ffPFF1+MgszS5QKvWFwcmSHvllVfstttuc2UAAAAgmHKOtmzZMjBSSoFNv9dkJFi9erVd1KJ5lgOS0UC9etVLVfM3ZGWCY6WRu/jiiwMTpCldm54PQGQg8ArkE6rENGnSxFWy9KOuWUHVQzJSaLIvXaEt17ayVbq7hrc10c/7frL9i3daoUpFUp1YK/l+bnKr7UetdPMKVrBMIW+vU6W1n/+89t1vtv/IXitdvGziHdUKpPncCrCmdNzbR35ju+dtc8On9N4zS7O73njjja6syqmCsUy2BQAAgGCaTKt+/QYuTZXaA8qbqiH8kULD7uvUqWtlypR2aRCCe23q2DWy66yzzkp1Bv8dO3a4gG3p0qVdQFl5YmfPnm3VqlVLdY4FtZX0mrVr13Y9SJPTpL8zZ860RYsW2f79+12bqmTJklazZk3705/+ZI0bN04xcKqJtTRS7f777/e2nOTX47PaGcMPWPudMdTWu+WWW1wZQO4i8ArkA6rENGvaNDBjad++fSOqkqVk8xoy/8W2L63xK229rScpeLl7dJydVbOw1flXc2/rqeLGrLMD03YGgrcKbG6fHWeV7jjf5VhNydq/L7YTm49b6Z5VkuznAq7/22pbZ25OUpHS8YqCnL/99psVqVPcKnSrdkpwVQHdTY+tcvendNzLb59ndcrWsqVLl2Xpiv4999xjI0aMcGVNjqDeDHlxWBYAAAAy56abbrLx48e7suZ5WPjJwojqUar67KujX7FVK1fb+eef721NtGnTJhfkLF78bDt48IC39VQLFy60Sy65xGrVqmXr1q2zMWPGuBF/mj9Ck1ul5LnnnnOB0euvv971AvYpwKr0YC++9EIgqBlK1cqxdt/999i9997rbUmk3qj16l5gPxz7wY7+GDqfq47vnUmTbH3C8VasWNHbmnEK8CpvrGiyrVDnEUDOY3ItIB/QjJl+0FVXY5999llXjhSTEioaX6780s7tm3IvTVV6SlQq5a2lzB825fODpKk5UeyEVzpJQdevb//cBV2VlkHB23qvt3JLg7GXWI3BF7oAb4ECBeyHrw7ZT58eDjxOgWIFgeMGrXX3p0bvedWq1e4cZMW///3vQK9ZDTPKyhVzAAAA5C3K6+oHXUuUKGkT/zcxooKuCqz+97//tf97eGCKwULV60/8fmq9PS3paQ9I8v3Uy7Z1q9Y2fPhwO/30M1wAVj1et2/f7urb8+bNc/M1aMLbLdvi7F//fMo9bteuXa4n65AhQ6xJo2a2e+8etz0lapsVPqugPfHEE96WzFFeXL83sILECsImbxsByHkEXoE8btasWfbyyy+7sgKIb731VkRVskRBQ/VmTS2NgI750PaUr27LGWXO8kqJlBYgPbmSlDog+RXsb+/+0lVUCrcoZnX+18L1hFVKAX/RsapXbcMpba3KZee61xL1kFXvXPW81ePVIzY1eh49/h//+Ie3JXN0ft555x33GYsqe0raDwAAgPxNw+/7Bw1zHzPmdTv33JRHg+UGBR81WksdRiKFhuovWbrEjSZbu2aNC7JqEjL1SlVwuE2bNi4Yu2r1apcGoWxMYjoyBWfVu1iTBisgmxa97/4P3O9656qHbFaMHDnS6tdPnMND6ccGDRrkygByD4FXIA/TVdqbe97qrZkN//e/I66SpQqBFg3VT0uonqnBft133CslUkA1PVe4FdANDkart+oPCedOQcx6A1t6W1OmAKy/X+kbqtgfX7nILVXurOF6vKZ13IUuPttdNf/ss8+8LZmjz3bEf/7jrZnd+dc7XT4qAAAA5F+33nqrq9tKr1697Morr3TlSKHOCm+MH2933HFHxMzGr5QFU6ZMcW0EpSioUqWKd8+p1NFDc2cs8uryl156qX399de2fv16W7JkiduWFk2OW+CM013wNSt0vK+99nqgbfPUU0+5/K8Acg+BVyAP0xXjvft2u3L79u1TTUSfW959910rWOisVHu7ylkFC9rpP5zuraUsOICqXqhaTx6QTS55YPS3+UfdbYkby7vbjAjuFatJtVSRTOu49d793shZpUqfP3HAtu3b7MEHH3RlAAAA5D9KMaDJpaRypcoRl3JM5s+f7wLD6iUaKdSDVZTzVbll08OfX0G3eowW5ZpNj1KlSlmH9pfZtGnTvC2Zp/Rjjz32mCurE0rPnjeRcgDIRQRegTxKV2lfe+0192OroJ4qXZFIx2n1U8+DKsd//tndasKqlJYzfjg9SaVCPV4leQqC5BQYVWBXlKNVvUQVsC3dvILblhXBgeDUlGhRxhYs+NhbyzxdcR81apTL3SX6DixdutSVAQAAkH+oTvvggwO8NbNXR78aCA5GEuVKrVCxUroCnCdO/Gpz585NcVm2bJm3Z9bMmzff3V5xxRXuNieo84RGwGnUYlap84Xm9hDNJ/Hiiy+6MoCcR+AVyIMUbO3X7+5AftMhgwenOjwmN3311RorXT/1AKd6jipX6vENx9yEVaGWTY+tchNhBfPzrqZFk3b5w6/ET0+gXqtZle6ry9UK2Lp169OVGiEtyjv1z38O8dbMTbQVjucFAABA9Hj44YftyJHECWB79OhhHTp0cOVIs3LlSmvU8EJvLXWal0FD+VNaHnjgAW/PrNmy5Xt3q/yuOaVevXqu/fbNN994WzJPnT9Gjx4daA8+9vjjbtIvADmPwCuQByk3kK5sKtimWTaVLykSHTt2zA4dOugCq6n5aftR915+L2NWrm3lkEul9rFWoGLS3qXq8ZqewGdwjtdjWxMDsHqtULbP2GzbR37jltVDFgXK2p6cjlsU2E2LH1wOV4VIn7mGGYkqs+r5CgAAgPxBeT014k116MJFCtnQoUO9eyLPju3b0z0Phersffv2TXHp0qWLt2fmqf3gd1oIlXNWo8luvvnmU5a77rrL2yNzatSo4V538+ZT2xWZoUCucseKOpk89NBDrgwgZxF4BfIYBTP/7+8Pe2tmL7z4YrqHu+e0/fv3e6W06T0UKl3YTWSV0lLhyli3757TdrpbX0ZzvOq1TtvnrST33W+uZ62WY5/9ECgf+vTUGUgVTNVzKbCbHpqI6+DBg95a1ujq9vDhw11ZFbhH/m+g+24AAAAg79NQcz94+Phj/3AjoiLVtu07LCYmxltLndKDvfDCCyku9957r7dn5qn+7refQk1UGxcXZ+PGjTtlefvtt709Mqdo0aLuVp0xwuXJJ590aedEx8hEW0DOI/AK5DEKtu3emxgE7Nq1q7Vu3dqVI5VfqUmP5AHS5PwAa8zvJ1MXKACZnhyvokBp4SrFXWVHV7qV7zW50jdUsRqDL7QGYy9xt+WvPcdtT0+v1rSEs5Ilbdq0se7du7vy3v377J///KcrAwAAIO+aNWtWYEKt2NhqYQlGZqcTv6dex88Kv62R1ii4EycSj6GgN++D3wM3VKCyXbt2Lpesv0ydOtW7J2v8tADhpID2495EWxLp3wUgLyLwCuQhuiI7/OmnXVk/3IMHD3blSFW6dOl050D1J79KS3Ag99diJxKv9H+X/oCm8rpqVlHZNSPO3QZz919YLnCroK5eM6Verel9f1Kw0FnunITTE0884b4LOg8jRo4MedUeAAAAeccjjzzilcyGDBmcoY4OueGcKlWyrY7q96RN6/n37EnsuFKmTGK+sbZt27rb/008tRer2gqauMpf6tSp492TNf6kWhoFF0533323C8DL/PnzEyc3BpBjCLwCecgzzzwTmCRK+XzSMzNoblLOJFVujqxKu6KlGUz9nqmpCQ50+j1dUxvqr16tR9cecb1N1dtVCl1bygUrj846GLLXa3J6zZR6vKa3oqt8sL/9eiLdw6zS6/zzz0+S20nfEQAAAORN6u26fPlyV9ZcD9dff70rR7KYmIphmVAqlLp167pb9VxNbS6FWbNmutv69eu72969e7vbefPn2IwZM1w5u23atMndpjffbXqpPaIAvC84MA8g+xF4BfII5e9Uj0ZR0DBaflCVRP6MNAKqSgHw80+p52mV5CkFKnU+152LH746ZAe+3O1tTWr//7a6q8pF6hR3vVjFPa58ATv644+25uHP0wy+qjKz/8heby2pdPd4/e43q127ljvecHv88ccDAWB9R/yr6QAAAMhbHn/sca9k9g9v5FOka9iovq38cqW3Fl7ly5e3Fi1auDq56sShTJ482b76ao2bhOyyyy5z2zRJbc+ePV25+4032rRp01w5O61Zs8bdqn0UbgrA16pVy5U/+eQTer0COYjAK5BHvPTSS65HoypXPXr0sCpVqnj3RLaLL77Yds/b5q2Fpt6gGiqfVh7VUJNoVbrjfHf7zSNf2vaR37gArL+s/fviwGtX6JY4/MZX96mLrEjRovbbjl9s5c0L3GO3z9gceKzK2nZowi5XkStdvKx7XPD9P3162H0ehXcXCmzXEsqhz/bZJZf8yVsLL02moO+E6DvyyiuvuDIAAADyDgXTlixd4soKsoVjhv+ccMkll9i27dtsw4YN3pbwevbZZ12d/OWXX7ZOnTrZxIkT3blST9Y77rjDrrvuOtfW0CRkfsoxUZ25ffv2rv581VVXubkznnvuOfc4La+++qrdf//9dvnll3uPSLR161Y30ZaWSZMmuW0a2eZv0xKqI8T06dOtWdNmVtybDCuc9P4feughb83saS89HYDs94f4BF4ZQJRSReGcque4Cots3LjRDTGPBhoK1aRJEzdRlXKmhqIg5u7RcXZWzcJW51/Nva2nihuzzvZM3mqV2sdapbtPXinW9gPTdroAqSod6uHqT2Sl4GqFAeeFfG31dFWeVz2nzrH/WP95tK1AxTOtTMsKVr5zrOsxq2BscCA5eY9X9TxtOCUxZ5RPwdi4QWtdziVdkc8OGrpUvXp1V65QsZLFfbc53WkQAAAAEPmuvPJKe++991x57NixgR6bkU715ZKlSth99/ZPcY4Kvy6rGfqPHD7sbT2VAqoK5CrwvG7dOm9rYgqGW3v1tp07tntbTlKdWLP/DxgwwNtykur7I0aMsKeHPx1oayWnY7q2a1e7+eabXXBWPWg1yXFq1q9fnyQtnHLQVqla2QV/Qx1HOOg8n3fueYH3oR624cpPCyBlBF6BPEBXTbt16+bKV1xxRY4MhQmnRn9sZhsLfJNiUFUB0GNbj7gcrH46gFDS2k8BXPWKVWoDTbxVvH6pFIO9ySk4qp63SgmgxyqtgVIgJH+8fwypSf6Y1UMWWaW95V0FTAHd7HL11VfblClT3Gu88cYb1r17d+8eAAAARLO4uDirVi1xBFe5mAq2ZWtcVF1kV8/TaVOm2pZtW0Met9KqqcOGOkGk1lFBPUlXrlxpBQsWtKZNm3pbEynwOHv2bFu1apWbTKtYsWL2xz/+0dq1a5fmPAsKwOr1lyxZYrt377Zff/3VPUYpCZo1a+bmrvDpuVWvT40m5Qp+jHqgKuCq3rIarZZdhgwZEkhJ17dvX3vhhRdcGUD2IfAK5AG6sqpcPTJnzhxXeYgmChzfdNNNFvtYnXQHQvMKBWq/vv1ze/3117M9EPrZZ59Zy5YtXblVq1bkdgIAAMgjNIx8+PDhLkD4xBNP2GOPPebdEx3Uo1U9QIcNG+aG7+cnCiqfX72GXd75LzZq1Chva/ZQUFgp6RSEVk/dXTt3JgkAAwg/Aq9AlAseQq4hNWvXrs3WXpPZQRXEFhe1sC3bttk5r1zgbc0fvr/9Kzu7eElbteqLHOmVoGT9SkWh74hmd2V4EQAAQHRTEK1q5Sq2e+8eV5/87rvvsrXXZHa555577PUxY2zll1+GfWb/SKbevv97801bv25djnxuSokwbtw4V1bnj1tuucWVAWQPJtcCotyYhMqJTz/a0RZ0FR3zy6+8bPv37XU5UvMLvVe957FjR+fYULC7777b3SrYHfzdAQAAQHT68MMPXdBV/vKXv0Rl0FWUZ7V0qdJuJJyCyfmB8sFq0q8hgwfn2Od21113eaXECcQAZC8Cr0CUe2PsBHer4OX111/vytGoXr169tJLL9n22XEuF2tep/eo9zp06NBT8k9lpxtvvDEQ5H1j3AQXgAUAAED0Gj9+vFdK7M0YrTSb/+TJk2zlqi/t1ltvzfPBV02s2/Pmm1y6seBgaHZTflmNlBSlIlNeWQDZh8ArEMWWLl1qW7bFuXKnTp2sfPnyrhytevXqZQ8//LBtfekbixtzchbSvEZB192j4+xvf/ub3Xvvvd7WnFGqVCm77LLLXHn3np02b948VwYAAED00WRS7733niuXKxtjl19+uStHK01WNXHC/+zNN9+0a6+91uU/zYvmzp3r6uTNmjZ3w/1zctSiXuu2227z1iyQdgBA9iDwCkSxd955x93qx/OGG25w5Wg3ePBgNzHArne+d0PxNflUXqH3ove0fdQme/DBB+0///mPd0/O6tatm1c6+R0CAABA9JkxY0agZ+g113bN0QBedrnyyitt2rRpNvejOdasaVPbsGGDd0/002c1aNAgu/TSS13gVZ9fTqUcC3bdddd5JbM3//c/rwQgOzC5FhDFqlU71+LivnMVrIMHD7rhOXmFKlu33HKrnfj9hJW4sbxV6hzdCfbVy/WH/+117+fVV15JUtnJaeoZUaFieTt29CcrU6aM7d2717sHAAAA0eTqq6+2KVOmuLJGMrVp08aV8wJNBHtj9+72zcaN9te//tWNjIvWEX5K7/XBBx/Yw3//u329bp09/vjj9veEcm4EXX3NmzW3JUuXuPK3336bryY0A3ISPV6BKKWKiIKu0q5duzwVdBVd6f722012bdeurofo2hs+c71FD3y529sj8ulYlTJBx67UAldccbltSqg45mbQVfRdaffnS1153759tmLFClcGAABA9FDvybkffeTKxRLqdy1btnTlvEJzQHyRUE997LHH7PUxY+ycc85x8xUogHngwAFvr8ilz2ft2rU2bNgwq1OnjksDUbJUKVu2bJl7T7kZdJVOf+nklczef/99rwQg3OjxCkQp/YA/9NBDrjxq1Cjr06ePK+dFmzdvdhNvTZj4P9u/L7F3poKHxyv85srlfy5r28vustN/OD1JOdR9uwqe7N2ZkfXkZT1nzI4ytqfiPqu0t/wp+x1de8QKFChgpcuUtRu73+DyKNWsWdPtEwk0e+odd9zhygMHDnQpHgAAABA9lCdUQ9alR48e9sYbb7hyXqRAq3KRqt2zfv16t61ypcpWvUZ1+4MVcOuR5NDh/bZmzRoXfC1cpJBd3eUau/POO61FixbeHrlPQeG6deu6snpKM/cDkD0IvAJRSle0NQul5JehIRqis3LlSluyZImrcP3444+ux+bPP/9sv/0abwXO+EPg9vjPxeysgj+csl23ZxUsYCdOnAhsO/3005OshxJ8n8riP59fLliwoJUoUcKKFi3qKjGNGjVys4ZGYq4tzV5atWpVV27VqpUtXLjQlQEAABAd1AlDnTFk7Nix1rNnT1fO6zZt2mSffvqpCxwqIKuUa4cOHbIzzjjDfv3111y9lZiYGCtcuLCdd9551qRJE2vWrJlbjzRqW1WsUNlNuKvg8N49+yLyOIFoR+AViELK0Vm2bFl3BTU2tpp9991m7x4g/fwcwRrmpAorFS0AAIDooYv8fsqo7du3W8WKFV0ZSK+bbrrJxo8f78oLFiyw1q1buzKA8CHHKxCFli5d6oKu0r594vAiIKPatk2cfEHfJb/3NAAAACKfOmJoJJjUrVOHoCsyxU9VIbNnz/ZKAMKJwCsQhTTU3h++nteS6CPndOjQwSuZffzxx14JAAAAkU5BVw0Vl9aXXOJugYxSblcfE+4C2YPAKxCFFi9eHKhoRVKCdkQX5Z/1aXZVAAAARAe1B0SdMZRDFMiMKlWqWIWKlVz5888Tv1MAwovAKxCFvljxpbstU6ZMvphUC9lD3x19h4Qr3AAAANFj0aJF7ladMQi8IiuaNG7kbg8dOugmLgMQXgRegSizZ88e27lju7u6Xbt27YicMR/Ro94FF7rbffv22Y4dO1wZAAAAkW316q/cbbHixa169equDGSGJmnz0RkDCD8iNkCUWbt2rbvV1e0mTZq4MpBZjZskBl7Fn6ABAAAAkevYsWMWF/edK9esUYOOGMiSOnXqeCWz9evXeyUA4cJ/aCDKrFmzxiuZ6/EKZEVwD4lvv/3WKwEAACBSBbcH6tWr55WAzKlbt65XMvvqq8Se1ADCh8ArEGWC8+7UqFHDKwGZ06BBA6+U9LsFAACAyLR161avlJizH8iKatWqeSWzuLg4rwQgXAi8AlEm+Mcw+EcSyIzgyjpXuAEAACJfcHugfv36XgnInDPPPNNq1arlygRegfAj8ApEme+/T/wxVC6nSpUquTKQWaVKlXKTMsjePXvcLQAAACLX5s2bvZJZxYoVvRKQeWXLlnW3mnBXOYQBhA+BVyDKfP994tCiqlXPIZE+wqJ0qdLudtv2He4WAAAAkWvLli1eyax8+fJeCci8KlWqeKWkqSwAZB1RGyCK/P7773bo0EFXrlixgrsFsqpKlcouiK/vFle4AQAAItvWrYmBVw0RJ/CKcAjuOb17926vBCAcCLwCUWTXrl1eyaxcuXJeCciaMmXKuKC+HDlyxN0CAAAgMu3fd8Ddljy7BCPgEBbBAfy9e/d6JQDhwH9pIIocPHgwULkqWbKkuwWyKvi7dPjwYa8EAACASHTg0H53W74ivV0RHsHtAbU5AYQPgVcgiigo5vdMLFGihLsFsir4u0TgFQAAIHL98ssvduzoT65cpEhRdwtkVcGCBb0S7QEg3Ai8AlHkhx9+8EpmhQoV8kpA1hQoUMArmf38889eCQAAAJEmuK5WtCiBV4RHcEeMEydOeCUA4UDgFYgiwT+CxYsX90pA1gR/l3788UevBAAAgEgTHHg9/fTTvRKQNf6oSmHOByC8CLwCUeTXX3/1SomCfyCBzDrjjDO8EgAAACLZ8ePHvRJ1OIRPcEeM5G1OAFlD4BWIIsEVLWEWU2QVwXsAAIDodOaZZ3olAECkImoDRJHgPE5ciUQ4ELwHAACIHsHpBY4ePeqVgKwh3RiQfWhxA0A+t3//fq9EzwkAAIBIFtwRg0mQEC7Bo+BKly7tlQCEA4FXIIoEzzZ56NAhrwSET+HChb0SAAAAIk3BggW9Er0UET7JU9oBCB8Cr0AUOfvss70Ss00ifIKD+MHfMQAAAEQWjU7yRyj9/PPP7hbIquC0FcWKFfNKAMKBwCsQRYoUKeKVuMKN8Dl8+LBXSjqjKQAAACKPX1/bs3uPuwWySu0Bf+4HOmIA4UXgFYgipUqV8kpmO3fu9EpA1hw8eNArUdECAACIdOXLlXO3e/YSeEV47N69O5DntUKFCu4WQHgQeAWiiK5uF/OucG/bts3dAlm1Y/t2d1u4SCF6vAIAAES4KlWruttffvnF9uwh+Iqs27t3r1eiIwYQbn+IT+CVAUSB2rVr2/r1611up0hLgq7K34EDB+zYsWPelvzhjDPOcLN/RuvEVOVjytnuvXusevXq9s0333hbAQAAEInuuOMOe/nll11Z7YKaNWu6cqRQMDg/pkUrU6ZM1HZi6NChg82ePduV9+/fn2SkJYCsIfAKRJngH0UNCYmJiXHl3KAJvmbMmGEfffSRffbZZ7Z582YXfM2vKleqbBfUu8D+9Kc/2dVXX23nn3++d0/kUpDczx3cokULW7RokSsDAAAgMg0ZMsQeeeQRV54+fbp17tzZlXOD6v7z58+3Dz74wLUHvl631n7+6Xhg2Hp+U6JESbvggrrWunVr69SpkzVv3jyQOzWSNWrUyFasWOFGVx4Jmv8BQNYReAWiTO/eve21115zP+DLli2zhg0bevfknB07dtjTTz9tr7z6qv1w5IjVr1/PLrnkT1anTh0rV66cnX766fmm16vea6FChdyV/e3bt7vA5YKFH9uxoz9Z+/bt7e9//7u1adPG2zvyrF271urWrevKPXr0sDfeeMOVAQAAEJnGjBljt956qyuPGDHC7r77blfOSeqA8corr9jzz79gcXHfWWxsNWvbto01aNDAtQeKFi2ar3q96v0eOnTIzcOhNpo6puzbt8+1k/r3v9+uv/56N2IxEilIrvaMguh1E9pzX61Z490DIBwIvAJRRgHPBx54wJXfeustu+6661w5J+hHefjw4fboo49a4cJFrE+f2+3222+Pip6dOUlB57fffttGjhzprhx37NjRRo0aZVWqVPH2iBw6zm7durny0KFDbcCAAa4MAACAyKSepS1btnTlvn372gsvvODKOWXy5Ml2d797bP++va4tcuedd7qRUzhJ7aaZM2faSy+95HoD/7F2bRv92mvWtGlTb4/IsXXrVouNjXXHrHaLjhdA+DC5FhBllOPVt3r1aq+U/dTLVUPoH374Ybv33nvt++/jXKCOoOuplOv1lltucVe7p06dal+t/srq1atv06ZN8/aIHBs3bvRK5ipcAAAAiGzB9e9NmzZ5peynHpHKL9u1a1dr0riRbdiwwY2WIuh6Ko1OVKoBpYJYsmSJFSxUyFq1auXSRESar7/+OpAaIritCSA8CLwCUeaPf/yjVzJbtWqVV8peyt16UbOWtunbzS6HkwKuzH6fNlW4rrzySlu1epW1aZOY99WfCCFSrFy50iuZ1a9f3ysBAAAgUmmOB+USla/WrHW32U0jutq1a+fSHIwePdp1KOCiffo0btzYpSMbOHCgy82r1HF+oDMSrFu3ziuZSx0HILwIvAJRpmrVqi7puazJgYqWhp78+c/trHDRgrZk8ecuUTwyRrOCTpo0yfUUVi+BiRMnevfkvuXLv3C3hYsUirgZcQEAABBa06ZN3O3OHdvdyLTspJ6uXbp0sZWrVtmcOXOsV69e3j1IL+V3feyxx2zs2LEueH3fffd59+S+L75IbA+IcvQCCC8Cr0CUUS/KBl7PRCWy16RO2UWVrGu7Xmu//fqrzZ49OyJzlEYLfW7Kz6sJrDQZwtKlS717cs+BAwfcd0ga1L/Q3QIAACDy+ZOjSvAIpuzw4IMP2scff2zTpk6lE0YW9ezZ055//nk3KZrmg4gEy5cvd7cKDhN4BcKPwCsQhS688GSQ7Msvv/RK4Tdo0CD7cuWXNvndyQRdw0RDsy5scKHdfPPNbshWblIOWp+GQAEAACA6BOdV1WRb2WXGjBmBIGGbNm28rcgKTUbWr18/N2FyTuboDUUdMdavX+/Kag+oswiA8OKvCohCwVeaP/nkE68UXsrr+uxzz7gr3BmdfVPDnVSJ2LVrl7flVPqR1z56nfxEV5LHjhvr3vc///lPb2vumDdvnleywMy4AAAAiHzBdbeFCxd6pfDS6Lf+/ftb+/btrU+fPt7W9KE9kLqnnnrKKlaslOspBxYvXuyVSDMAZBcCr0AU0oyYvrlz5nql8NKMm6VKlLb/+7//87ak3009brHq1avbBRdckGKvzquuusrtkx9nzlQuVeV7HTFypKtw5pa5c09+dxg2BgAAED3Kly9vsbHVXFmz5itIGm7jxo2zb7/91p555hlvS/rRHkhd4cKFbfjwf7sexdnZYzkts2bN8kpmbdu29UoAwonAKxCFNJNp/fr1XHnJ0iVhD97pyvT48ePt7n53u0pBZqhn5759+0LO4q/8puqpq33yK13dPnHiV5swYYK3JWcdOXLE1qxZ48q1atVylXcAAABEj06dOrpbBV3nz5/vyuGk+QmuvvrqTM90T3sgdZqwTPVwpXLILfM++sgrGakkgGxC4BWIUpdc8ievlLTnYjhMmTLF3d5yyy3uNjNKnl3COnbsaMP+PfyUK/D/+te/rG5CBa5evcTgcSh6zNatW9MMKvv7JX+N33//3Q1xSukKe3qfP7so0Nmh/WU2evSr3pacpRlp/XPG1W0AAIDoE1yH00S44bR69WqX+/OOO+7wtmRcVtsDfn1ei8op0X2q16tjQXKq66dU3/efP7V0CNlJ+VRvu+021/YKdezZTe99zdq1rqxOPaVKlXJlAOFF4BWIUpdffrlXMnv//fe9Unh88MEHLm+UetZmxSOPPGI7d2y3MWPGeFvMNmzY4CoXD//f/9npp51uBc443bsn0Z49e9zEU8WKFbOqVata6dKlrUGD+oHcVdOmTbMaNWq4W1UE/f3KlC1rzz33nKtA6bZylapWqVIlK1KkiDtXfoVLgdi77rrLSpYqEXj+Ro0aJcmN5b+Geg5ou670awhUlcpV7IK6dUNWjDRESI8JdUU/JV27drVVq1bnSmUvuHJ+xRVXeCUAAABEi0svvTTQY3T69OnuNlxmzpxphYsUynI6qsy0B1Sf1yS/FctXcPV5LRUrVLaXXnrJ3a+6s+rdSo2mer/2U72+ZMmSrh2hIK+G0KsNobq+FtXlFUz2abIwv71QoUIFV88Prsf7rzFs2DCLi4tz7Q61A8rHlHPbQ6UHUDtD++gY0uuaa65xx5sdPZbTos/Y17nzybYlgDCLBxCVjh8/Hl+sePF4/RmXKFEy/sSJE949WVeubEz8wIEDvbWMa9++vXsOadGiRXxsbLXA8fXq1Suw3qxps/iEyqLbLocPH46vVauWez9Dhw6NT6gMxL/++uvx1atXj0+o+MWvWbMmfsKECe4963F6Hh2nlgoVK7ntjRs3dvv27NkzfvDgwfFt21zqtvfr18+9po7ttNNOc/fruYYPHx5fuVJl93yLFi1yx+G/ho5dt3qdhg0bxtetU8etjxo1yu0XrFu3bu55t2/f7m1Jm/bV8yVUlL0tOUPnQe9Zr61zdfToUe8eAAAARJM2bdq4Op2W9evXe1uzrkuXLq4enVmZbQ9I9+7d3ba+ffu6evKkSZPiO3bs6N6j2gZ+HVr7qN3Qp08fV+/Xc2m72gO61WO0Xa+n9fr167nX1DbV21u1ahX/yiuvuMWv96ttIP5r6DGqL5cpU8a1B/w6tOr+yamNoPt0vBmhczFgwABvLedcccUV7nh1Lvx2EIDwI/AKRDH94OvHUsucOXO8rVmze/du9+Or4GNmqQLoV7RUWfKfb+fOna6C5Acuk1e0VOHQvsuWLfO2JNqyZYvbT5UmPyiqCpaCz74FCxa47QqObty40duaGGRUZUaVJFWCtE/yio0qVqpQqZIm/msoCKzn9SlAqWC3KmDB/PcVqgKWFj2fgsw5yT9XWlThAgAAQHR69tlnA/U6BRTDRfXn/v37e2sZl9n2gDpe6L2MGDHC25JIdXrV89UhQ20D7aNgaXCnB9XVVadX/Tp520jBXD1myZIl7vX0WD8QLGpXqC2g+/bv3x94DT2XArPB+yqorP3Ubgqm41ObI3jf9OjcubMLdOckdXjRudJ7LBdTwdsKIDuQagCIYtdee627TajI2P/+9z9Xzqpt27a529jYWHebGX+wAl5Jw1Y62x9r17an/vlPl6C/dJmyKeaOffvtd1yKA+V60pAbfylXrpzVrl3Lli5Z4u2ZmGohocLjrZk1aNDA3darX9/OP/98Vxadm3r1LrAdO3fYu+++67ZpYqtgFStWtK7XXGvLly93uY58//73v5MMr9JEY7cmHLvSAwQPLxo9erQ7zn79+nlb0u+cKlUsodLmreWMhEqvV0oc3gQAAIDodN1113kls3feedsrZd2evbtcHTyzMt8eeNvV8f2UAf7y22+/Wds//9k2btwYSPvVvHlzV4/3qa5eq2ZtK1q0mLVr187bmqhJkybudvLkye65lHpM7QSfXlPb9Foagn/66YnpD26/7TaXhzV43759+7r9XnnlFW+LufRkX69bZ3+9869J9k0PvYcd20+2QXLC1KlT7djRn1z5yqtIMwBkJwKvQBRTsvpixYu7PEjvvjvFVQCy6scff3S3Z599trsNB+VvUuL2Z555xu7vf1/I2Ut17HFx37nZTc8666xTFgU7Dx067O19quIJ50FOnDjhboMVLVrUnaNvN33rclWFmsFfuZpk06ZN7jYld999t7t94YUX3K2e978v/dcaNmxoLVq0cNsyyj/nOUHn2Q9A63O46qqrXBkAAADRR0E7fzZ61ZdXrFjhylmloJzmUgiX9LQHRBN6qb6qtkjy9oA/+//hwym3CTS/w++//uqtnaSgrHz//feu/u7X/YOde+65LmiaVntAHUCqVo51bQA9l7z44otWsNBZdvvtt7v1jPr5eGIQNKe8+eabXsmsd+/eXglAdiDwCkQxVSC6eIGzQ4cOuiuXWaXnVAXi6NGj3paMK3DGH7xSouuvv95iY6u5mTJTqozoyrOo4rho0aKQy+R3J7t9MuvE7yfs9NPP8NZCCxW4DabetO3bt7ep06a4icA0McC27dsCAdnMUGA4p3z44Ye2b98+V1YPCT9gDQAAgOjUo0cPd6ugoUZihYMCo5osKrMy0x6QE7+dsBIlSoZsC/hLZiYADu6FqnKoXqkFCiT20k2rM4see9fdd7o2gCYl1kRc77zzjhtBl9nJic84I3QgOjtosjC1CUSfSdOmTV0ZQPYg8ApEueArlP/973+9UuZVrlzZ3W7dutXdZsavya4yq3Ly1ltvuqE9KQX6FPAtVzbGDhzY73qOhlqyWimoUqWK/XDkSMJrHPC2nLR582Z3nOecc463JWUKsqoXgGZnVc/XMmXKWPfu3b17M2bX7t2uAppTdDXel5EZVwEAABCZunbt6kZ1qfPExIn/C8souJiEerk6GWRWZtoDUqVqFTty5LDVqlUrZHtAi997NSWnnZFyRwulT9B5+u6777wtJykgKcFpy1KiVAkKTqtu/fLLL7vnvOeee7x7M2bv3r1JUiZkt3Hjxnkls9tuo7crkN0IvAJR7uKLL7bq1au78vz5823Dhg2unFm6Sqv0BRrmk1lnhKjsKGganC81lL9c3tm++mpNQoVxorclqay+t06dOrnbV1991d36FIhVqobzzjvPDTFKi55HV4eVA1bn/I477khxuFRq9LrqfaqKZU5QZXL27NmurO9M8txXAAAAiD4KZF7dJTFvv0bBjR8/3pWz4o91/mhff/21t5ZxmW0PaBi/gpgPP/ywtyWp9LQHQqUa8DVq1MjdKlianN+J5c9//rO7TY3aTOrFq56jzz77nAsIK/VYZqxbty5dwd5wUFD+xRcS36faLz179nRlANmHwCsQ5XT1OHiYe3CPxszQ813UvLkbxpNZv/2qCTIz7sknn7SypcvYrbfe6oKZ06ZNc4HN5557ziXEHzBggLdn5qhXav369VxFbtCgQW6CLL1G27ZtXCVVgdT00Dm6886/uqCpyjrWzFA+W7nwwgvdbXZ79tln3fFKZo8ZAAAAkSe4PeDPRZAVmvD2008XuSBoZmS2PaC0Ca1atXKBUXV2UIcMtQc00uzKK6+05s0v8vZMWWo9XtWztE+fPq4zwo033uieW4smLVbd/G9/+5sbJZcemoxL1I7IbG9X9SpWhxc/IJzdJk2aZLv37HRlpU9L73sFkHkEXoE8QJUGDS+S1xMqJaGG0meEfoQXLPw4MGNoTlFFaPHSJXbZZZe5Xqma+Klt27Z2//3326+//mLdunXz9sycggULJlSy5rieno8//rirUOo1tm/f4Wb6V2Uuva6++urAbWYrLKr4qOdpenrZZpW+E/puqPKsq9sKbgMAACBvUG9SdTAQTbClDgZZofq4hvwvXrzY25Iz1Elg7ty51q9fP9ceUTtH7QHVXVd8scL69El78qrUerzKSy+95J5fE0zpubW89957rpOHOiqkl8555UqVrULFSpmesFZzdOg959RItBH/SZygTBRkBpD9/hCfwCsDiGK64ur3dh08eLANHDjQlTND+U417H7UqFHuinBuUNDXz7MUGxsb9kmglMNWM5ZqttZ69eplOFXAsGHD7KGHHrIFCxakOWQqFL2/ylWq2EMJFbysfFbp5R+v6DPVZwsAAIC8Q71C/Yvr6kgxa9YsV84MXaw/p+o51r5D+7BN2JVRGhavXKw//PCDVa1aNdMTV6VE9fGVK1e6SbXq1q2b4faGgtvqyPHEE0/YY4895m3NmObNmlup0qXcJF3ZzT9eqVunjn21Zo0rA8heBF6BPEBJ6v/618Sh71IupoJt2RqXqbyjPg23WZPwY7x27drA8HQkUiWwapVYK1+hbEJlbZW3NWOefvpp+7//+z/7/vvvrXz58t7W7KEZaWvWqOlmXtVnqdxYOZVHCgAAANlv+fLldustt9iahLq7T3X5OnXqeGsZ59dX1VmBIemnUntJPWUzW59XigP1tn3//fcDc1Fkpw4dOgTmexg7diz5XYEcQjQFiGL+7JmaydQPumpirEFP/sNduc2KRx991L755puw5IjKazQsSbmR/va3k7m0MmLHjh32xKBBdtttt2V70FXUS0FBV1EFkaArAABA3qGerurJ6AdddaG9f//+Vq1aNbeeWbfffruVLFHa/v73v3tb4NPIvHfffde1wzJTn1dHjgceeMCaNW2WI0FXBeb9oKsmCdbEYAByBoFXIEopZ2fHjh1txIiTeXr0w79p40Y3lDyrvVQ1/F6BwYGPPOKucuOkXbt2ucT/mqwroxQs18RWRYsWc5OJZTcNodJEYqLvhALqAAAAiH6qV2ouBKUXUCBPNLP+l19+6XqrFi5c2G3LLA29/9fQf7oJrmbMmOFthaxatcoFL/1UXhmlyYOV5uD5F573tmSvhwb8n1cyGzjw/7I0MhJAxpBqAIhCCvxd2q5d4Kq2fjj1433nnXe69XBR0K5Zs2ZW4PTTbdFnn4U9z2p+9Mgjj9iQIUNybEiRgq6aSEw0OZl66wIAACC6KdCqwN+UKVO8LYl5/EeOHBn2oJpGTM2aPds+T2gPZCV1ARJNmzbNTdD78MMPu7k5spuC5pdffrkrq7frhg3rCbwCOYjAKxBlNEy9Q/v2gaBrubIx9u7UKdaiRQu3Hm7K8XpRwnM3qF/f/WgTfM08zaDat29fGzp0qJs1Nbvpu1K9xvl27OhPrnJFfi4AAIDop6Crn19UNKpJ9czsmhRXnTFaJrQH9h88ZPPnfWQ1a9b07kFGLVy40Dp2uiyhPXeZTZo0KcujFNOiXtH169ULtB31mtdcc40rA8gZpBoAoogqPcFBV12xXPDJwmwLuoquas/88ENbuWqVq3ApnxEyxh8GpqCrAq45EXSVBx980AVd5W9/+xtBVwAAgDxAkyL5QdfCRQq5GfGzK+gq6nihHq9nFy9mzZtf5IKHyLhx48bZpZdeahe3bOVGoWV30FU0X4ffdlQ+WYKuQM4j8ApECV3Zvuqqq5IEXRcuXJAjV5wV2NXQouMJx1Cvfn17+eWXXTARaVu9erU1adLEnn/+eZePV71dc4IqxMrHJeoVPXDgQFcGAABA9FJO0bfeesuVFXT98IOZbrb67FaxYkVbtGiRNW3axC655BJ3gV+dQpA2jUJTD2Xl4tU8EdOnT8+Rof579uyxxx5LTDmmIO8zzz7jygByFoFXIEooB9D8+fNduUyZMjZnzuwc7cGonq+aDfOmhMqCJofSkBXNoHrs2DFvDwRT4FN5t+rXr2+/HD9un3/+ud19993evdlLQXp9Rr5hw/9tpUqV8tYAAAAQjd5++20bNmyYKyuQNnHC/6x169ZuPSeoPvnhhx/a8OHDXYeC8847zx2PAos41YYNG9yoN6X++vjjj93nN3r06BzLr6rg+KFDB135lltuydZRkgBSRo5XIApMnjzZunbt6sr6of7kk0+sadOmbj03KAD72GOPuYpXseLFrd2f/2xt2rSx2rVrW4kSJby98g9VfH/88Uc36dmCBQtszpw5tnHjRtcr+eGH/+4qOjmZwN6fwEs0pGjxksWuDAAAgOikXP31G9RzaaRU99TEujl1UT+UrVu32j/+8Q8bP368/fbbb/anS/5sHS5rZ3Xr1nWdRHJiGH0k0fv9+eefbe/evbZs2TLXTlqxYkVC26ik3XVXX+vfv3+OdoQInlBLn4fm7YiJiXHrAHIWgVcgwmmISL26F9juvXvc+qhRo7I1h1NG6CquErTPmjXL5YD9geFGVqtWLdfzQDOVKodTTlc6ly5dahdddJFLBaFgryp+9erV8+4FAABAtFG9TqmrFMiTXr16uZ6TkUBtFXUSUZ7ZxYsX2759+7x78q/KlSpb60ta21/+8hfr3Llzjk9O7NqPFzSw3Xt2uvUJEyZY9+7dXRlAziPwCkQ4DVf38zhdccUVNm3aNFeONKoQbtmyxQ4cOOB6f2q4e36hXr6FChWy6tWr52jP1uSU9qFRo0a2fv16t/7EE0+4nskAAACIXurdet9997myLvJ/8cUXVrhwYbceaRT0U5tAbYH8lJJMwdUCBQrY+eefn+OB1uSC248dO3Z0QXEAuYfAKxDBlNO1bdu2rqwJklav+YohIkhR79697bXXXnPl+vXr2dKly3I1EAwAAICsUSqr884/N5BiQCnHyNWJlGgODk3iJUox8NVXX1n58uXdOoDcweRaQAS77757vZLZv4YNJeiKFE2cODEQdNUMt2+99TZBVwAAgCj35JNPuqCrMEESUrN69Wq76299vTWz119/naArEAHo8QpEqOCE6Oq9uGLFl/kuST3SR8nymzZrEqiUjx071nr27OnKAAAAiE5xcXFWs2ZNN2xfF9Y3frPJKlas6N0LnHTkyBFr1qxZIOWY5gTR3CAAch9RHCBCPfXUU17JbPDgIQRdEZLyaHXp0iUQdNVkCwRdAQAAot+zzz4bmDfhb3fdTdAVIWmuDeV19YOu6rSj7w6AyECPVyACffbZZ9ayZUtXbtiwoUugDySnSpYS5s+ePdut67vy+eefk2IAAAAgymliqvIVKtgPR464ut3OnTutVKlS3r3ASQ8++KANHz7clZXXddmyZRYbG+vWAeQ+utABEWj06NFeyezuu+/2SsBJCroqcb4fdFUla+rUqQRdAQAA8gDl71fQVXr06EHQFSG9/PLLgaCrRkiOHz+eoCsQYQi8AhFGV7ffmTTJlZXL6eqrr3ZlINjDDz9s48aNc2UFW6dNm2ZVqlRx6wAAAIhuCrz67rjjDq8EnKT6/5133umtmT333HPWoUMHbw1ApCDwCkSYefPmBa5ud73mWitevLgrA76RI0fasGHDXFlXtjVjKTPcAgAA5A3K4b9gwQJXjo2tZo0bN3ZlwKfUdN1vvMGNgpMBAwYwUhKIUARegQjz4YcfeiWzK664wisBiV599VW79957vTWz559/3rp37+6tAQAAINrNnTs3EFC77rprmWQXSSxdutTatGkTmFxXbYGhQ4e6MoDIw39wIMIs9K5uq4J16aWXujIgY8aMcUPN/Iq4KljBw4sAAAAQ/T766COvZHbZZZd5JSAx6NouoY34yy+/uPUuXbrYG2+84coAIhOBVyCCHDlyxL5et86VGzRoQJoBBCi9QO/evQNB1/79+7shRQAAAMhbPvnkE3er+R5atmzpysDChQtd0NVPS6der2+++SY9ooEIx18oEEFWrlwZCKxdfPHF7hYYNGiQ9evXz303VLHq27evPf300969AAAAyCvUk/Hbb7915Vo1a7tJVIEZM2ZYx06XBYKumt9B2/h+AJGPwCsQQdauXeuVzC644AKvhPxKgdZ77rnHHn/8cW+LufyuL7zwgrcGAACAvGT16tWBjhgaAQe89tprduWVVwZyuiq9wJw5c6xw4cJuHUBkI/AKRJD169d7JbMaNWp4JeRHSjvRsWNHGzFihLfFbPjw4fR0BQAAyMO+//57r2R27rnneiXkRwrAP/TQQ0nSjXXt2tWlFyDoCkQPAq9ABNmxY4dXMqtYsaJXQn6jns/NmjWz2bNnu3UNIZowYYLdf//9bh0AAAB5k9oDfs7OSpUquVvkPwcOHLDOnTvbsGHDvC2Jczy88847pBcAogyBVyCC7N692yuZxcTEeCXkJ9OmTbOLWrQI9H4uUaKkG0rUvXt3tw4AAIC8S+0Bv3fjOeec426Rv6xYscIaNWpsH374oVtXIP7FF19k5BsQpQi8AhHk6NGjXsmsePHiXgn5wbFjx+yuu+6yq666KpA0v26dOvbllyusdevWbh0AAAB52w8//OCVzIoVK+aVkB8o4P7cc8/ZRRddZHFx37lt6oQxd+5cu/POO906gOhD4BWIIL8cP+5uGT6Sv7jUAk2buivZPvVwXbJ0qcXGxnpbAAAAkNf9/PPPXok2QX6yZ88eN2nWfffdZ7/88ovb1qxpM1u9epW1adPGrQOITgRegQhy5llnuVv/xxZ5mz5nDRlq2LChrVm71m0rXKSQC8AqpytJ8wEAAPKXggULeqWkQVjkXUo1VqdOHXvvvfe8LWZ9+/a1hZ8stCpVqnhbAEQrAq9ABClTpoy7VR4fzWqPvEu5m1q2bGkPPPBAINCu1AJLlyxjKBEAAEA+Vbp0aa9kdvDgQa+EvEgTqV199dUu1di+ffvcNrUH33//fXvhhRfo8QzkEQRegQji53VVfh//xxd5i2YoVS7XJk2a2PLly902BdoHDBhgX6xY4a52AwAAIH8qWbKkV0o68S7yDnW6GDlypNWqXdumTJnibTWXauCrr76yTp06eVsA5AUEXoEIUrFiRa9ktm3bNq+EvECTZymtQGy1ai6VgD9bbf369WzJkiU2dOhQrmoDAADkc8HtAV2wR96h+v/kyZOt+nk1rV+/foEJdStUrGRvvfWWvfvuu1a+fHm3DUDeQeAViCDnn3++VzLbvHmzV0I00xXtcePGWc0aNV1aAb+CpVyuw4cPtxUrvrTGjRu7bQAAAMjfqlWr5pXM1q1b55UQ7ebOnWstLmphXbt2tS3b4rytZn369LFNG7+x6667ztsCIK8h8ApEkPPOO88rmRtmguilHq5jxoyxmjVr2c0332zbtif2YFZagV69etm3mzbb/fff79YBAAAACe6IQeA1uqmH66xZs9y8DpdeeqktWbrEu8esffv2tmbNGhs1ahQT6gJ5HC1+IIJodnvfl19+6ZUQTfbs2WPDhg2zc845x2699VaLi/vOu8esY8eOtnr1ahs9ejTDiAAAAHAKzflQvXp1V/5ixfLAJKyIHuqAoRFv9evVs8suu8w+++wz757EyXRnzpzpArLM7QDkDwRegQiiYFzlSpVdecnSxVS0ooSuZi9cuNCuv/56q1Klij300ENJJkfr3Lmzy+P6wQcfUMECAABAqvzOGMeO/mQrV650ZUS+tWvX2j333OM6YGjE25qEdZ8+00mTJtmq1autQ4cO3lYA+QGBVyDCtP1zWzf8XBWt+fPne1sRiTZs2GCPPPKI1apVyy655BKXFN8Plusz7Natm61atcqmT59uTZs2ddsBAACA1Khe6ZszZ45XQiTSaLfnnnvOmjdrbnXr1rURI0Yk6YDRqlUre//99+2LL76wa665hjRjQD70h/gEXhlABJg4caLdeOONrty3b1974YUXXDk/UMWlTJkyEVshUc/W5cuX23vvvWfTpk5NchXbV6JESevT53a78847LTY21tsKAAAApM/WrVutatWqrqxJWJctW+bK+cGRI0esQIECEZ33dNOmTTZt2jS3LFq0yLURgp155pluJNxdd91F5wsABF6BSKOcQCVLlnQ9JxWE3L59u/vxzg8aNKhv33+/1S66qLnLh6qr/bpynFuBWH0GSnqvNAKqVM2aPdt+SKgMJqfj+9Mlf7bet93iZirNL58XAAAAsod6UPqTMak+ml/SVSlY+eqrr1qzZs2sXbt2bmnQoEGuBWIVVN24caN9/vnn9sknn9iHM2fZzh3bvXuTql+/nvXufZvrRFOqVClvK4D8jsArEIF0hVTD1mXq1Kl25ZVXunJepqTzmvEzuWLFi9sfa9W2Ro0b2YUXXmj16tVzPQDCPTnVgQMH3NVrTX6lic2UT2vlqi9dyoeUaOjQtdde6xYmywIAAEC4aLJWzRsgAwcOtMGDB7tyXqberpWrVDmlo4M6NdSuXcvq12/gegCrY0a1atVcmyCcHTTUAUbtAQW61R5Qzlb1Ng5OHZCcUo716NHDdb6oWbOmtxUATiLwCkQg5XZt27atKyu4px6Xed1NN91k48eP99ZOpUpV8DAe9QYuX66cxSZUumJiYqxo0aJWqVIlK1asmJ1++uluiJK2yaFDh9ztDz/8YD///LNLaaBtfrBVlanUKlQ+pRFo3bqVC4Rrwiy9LgAAABBuqqdWqVrZdQJQHXT79m0RPfw+HEaOHGn33nvvKUP3U1K4SCGrWuWcQKcM1f0rVqxoxYsXt7POOsvtU6JECXeroK6e9/jx4/bTTz/Z3r173TlWG+D77+Nsz979gZ6sydsdwRQEVmeRv/zlL649QLAVQFoIvAIR6oK6dQM5RDUjfl7ODxQXF2fnnXeeq+AooKoE9OpxquH9S5cutfXr13t75qzY2GrWosVFdvHFF7vhTv4MswAAAEB208z448aNc+Vnn33WBSXzKrUDzjvv/IR2wXduXZPTqgfqggUL7IvlX9iy5cvSHZANJ7VNWrRo4YKtzZs3dwtpxQBkBIFXIEKpkqXKlrRv395mzZrlynlR79697bXXXnPlUEOpdIVaAVjlV9LQn3Xr1tnOnTtty9bvU00FkB66ol216jlWo0Z1O//886169eouwKohTORmAgAAQG7ZsGGDG8ou5crG2Oa47/Jsr1fldb399ttdOVTbR3MvaJLbb775xr766ivXHti6ZYtt277DDh066O2VeZUrVbZq51ZzbQH1YlVb4IILLrAqVap4ewBA5hB4BSKUKhfVz6tpW7bFufWZM2dahw4dXDkvWbFihTVp0sRdwVY+121bt7rhQemlK+HfffedSx9w9OhRF6T98ccfvXtPUoBVk5YVKlTIDTkqXbq0lS1bluAqAAAAIpbmEpg0aZIr59Vcr6q/16hey3bv2enWNepNvUzTS+2mbdu2uUVpBNQW2L9/v3dvUmoHKHit9obaA2ofKD0BAGQXAq9ABJs8ebJL1C66+qqrvBkJSkY6BVtbXNQiMHRo6NChNmDAAO9eAAAAIH/bvHmzaweorqwh7uq0UKdOHe/evOGee+6xESNGuHKXLl3s3XffdWUAyAvCNwUggLC75pprrE2bNq6sYfaPPvqoK+cVylW1ZOkSV5HUMKq8nLcKAAAAyKhzzz3XHnjgAVdWz84+ffq4unNeoUmEn3/+eVfWZFn/+c9/XBkA8gp6vAIRTrPu129QL5DLVBNPderUyZWjma7WX3TRRa4CKUqc37p1a1cGAAAAkEiptRo0aOA6YkheSTlw4MABa9SosW3Z8r0LJuf1CcQA5E/0eAUinCZ8Gv7vp701s+tvuMEFY6PZjh077JprugaCrqo8EnQFAAAATqWcpOPHjw/Mpj9kyBCbNm2aK0crtQN69OhhcXHfuaCrRvn169fPuxcA8g56vAJRQr1cP/zwQ1fWsHwlnY/GiaF0xb5tm7YuxYC0atXK5s6dG6hIAgAAADjVsGHD7KGHHnJlDcv/ZOGn1rBhQ7ceTRRovfPOO+3ll1926+ViKtiKL5czyRWAPIker0CUePPNN62ul0h//fr11qljJzcDaDTRle1u3boFgq6VK1V274ugKwAAAJA6TUKryafk55+OW4cOHWzDhg1uPZo89thjgaCrAshvv/MmQVcAeRY9XoEosnXrVmvSqLHt3rvHrTdr2sxmz5ltxYsXd+uRTEFXTRY2Y8YMt14s4Zg//+yzPDcrKwAAAJBdko8eU2/RBQvnW82aNd16JFNPV+Wmffzxx70tZm+99ZZdd9113hoA5D30eAWiSJUqVeyj+fOsTJkybl0VrmbNmllcXJxbj1RKnN+6VetA0FVXtmdMn07QFQAAAMgA5Xv94MMPAikGdu/ZaU2aNrWFCxe69UilThi33357kqDriBEjCLoCyPMIvAJRRsHKjz76yF3dFqUdaN60mc2fP9+tR5oVK1a42Ur9q/Lq6Tpn9lwm0wIAAAAyQfM8zJkzx41+kx+OHLFLL700MHw/0uzZs8fatWtnY8aM8baYjRo1yu6++25vDQDyLgKvQBSqV6+effb5p1a9enW3rtQDqsw88sgj7mpypBg5cqRddNFFbrZSKVc2xqUXaNGihVsHAAAAkHEKvirlWPv27d262gB33HGHXX311S7QGSk0iW6DCxvaJ5984lINaG4HpRfo06ePtwcA5G0EXoEode6559rixYutY8eObl0VmSFDhlj9+vVzvffr6tWrrXmz5nbvvfcGAsGNGze2FSu/JL0AAAAAEAaa5+HDDz90k275pkyZ4urb48aN87bkDgV/b7zxRtcTd+eO7W6bOmGonUJ6AQD5CYFXIIrpSrfypg4dOtRdPRalHmjbtq1df/31tnbtWrctp+zatctdab/wwgtdagEFg0WVwUWLFjFbKQAAABBGp512mmsLvP/++4F5IPbt22e33nqrS+2V0x0yNPmXOoOcX726TZw40dtq1rlzZ1u95itGvgHId/4Qn8ArA4hi6mXa5/Y+gVyqoorYtddea/3797emTZt6W8NPeVz/85//2Jtvvpkk1UFsbDWbMGE8FSwAAAAgm6kThEacaSh/MNXF1RHi8ssvd+2D7LB161aXt/WFF160Q4cOelsT53cYkdBOuOWWW7wtAJC/EHgF8hD1MFXS+v97+BE3w2mwWrVqWY8ePaxbt252/vnne1szb/Pmzfbee+/Zm/97M0mwV1TBemTgQFfx83viAgAAAMh+s2bNsgfuv9/WJBv9pqH+N96U2B5QGrCsBmEPHDhgU6dOdekNPvjgg8BoN9Fz33bbbfbkk09aTEyMtxUA8h8Cr0AepCE+zz//vD0z/Gk38VZyVSvH2p/atnYVrtq1a9sf//hHNzQppSCpcjQphcGmTZtcyoDPPvvMrSdXokRJu+uuvq6HrdIgqPKVXVfVAQAAAISmerjyvD49fPgpAVhRvb1Nmz9Z8+bNXVtAnTSUFqxw4cLeHkkdOXIkSXtAc02sXLkySbBV1J5QZ4+HH344LJ09ACDaEXgF8jAN+9fwf/WCXbBgwSkVo2AKkBYvfnZCJayEt8Xsp6NHQwZuk2vWtJn16t3LVbJSqqwBAAAAyHlz5861F1980eWBDU4LFooCssHtgd9+/dV27Nzhyqm1JZRi7Lbbelvv3r2tfPny3lYAAIFXIJ9Q3iVNxDV9+nT7dNEi++HIEe+ejFOQtmXLli5J/tVXX83VbAAAACDCqdeq2gNKF/bxvPnp6mCRmvr169mll7Z3c0qEI3UBAORFBF6BfEhXqzU0aPny5bZq1SrbuXOnff/993bgwEF3VfvHo0etaJEiVuCMM+zss4tZxYqVrFq1am4IUqNGjaxBgwb0bAUAAACimNIGLF261JYsWWK7d++2uO/i7MDBA/brr7/ZoUOHrFBCff+sM89MaBcUtoqVKrmerPXq1bO6detakyZNXGoxAEDqCLwCAAAAAAAAQJgxFgAAAAAAAAAAwozAKwAAAAAAAACEGYFXAAAAAAAAAAgzAq8AAAAAAAAAEGYEXgEAAAAAAAAgzAi8AgAAAAAAAECYEXgFAAAAAAAAgDAj8AoAAAAAAAAAYUbgFQAAAAAAAADCjMArAAAAAAAAAIQZgVcAAAAAAAAACDMCrwAAAAAAAAAQZgRegVz29ttv2/XXX29bt271tiA/OXDggD333HP24IMPelsAAACQn2zevNlat25tS5cu9bYgP/nll19s4sSJdu2119rvv//ubQWQV/whPoFXBpDD9CNbs2Yt27Llexs0aJANHDjQuwf5xYYNG6xWrVp25plnuuB7TEyMdw8AAADyA3XCeOutt6xjx472wQcfeFuRXyjYWrF8Bdu9d4+9//771qlTJ+8eAHkBPV6BXPTiiy9aXNx3VrFCRbvvvvu8rchPatasac2aNnNBeFW4AQAAkH8sX748UAf897//7W6Rv5x22ml24009XPn11193twDyDgKvOMX8+fNt3LhxFhcX521Bdjhy5IgNGTLElZ8Y9IQVLlzYlZH/9Ordy92OHv2quwWyQukr9D982rRp3hYAAFKmIc763dBFYOS8AQMGuNuePXtanTp1XBn5T69eie2B9957z9XlgPRau3at+x9OqpLIlSOB1zFjxrjhE1omT57sbQ1NXxZ/34ceesjbCtE/4JYtW7pFw5OzyzPPPGM333xzjvzhHjt2zPbs2eOCkMnl1PvNLQq67tu3z+omVLBuueUWbyvyI/2/U6qBVatW24oVK7ytkUN/n/7/5ZtuuinNhpny1fr7qxcHTnr66afd/7TszOmri2b6H/73v//d25K99D9cS6icZDfeeKN7v8plDSD/uP/++wO/A2nV4YLbCWo44iR1htD/0A4dOnhbssftfW5zvxuHDh3ytmQf1Sn0mxGqLpETv5GRRmkF9DmrHjh48GBvK/IjBd0bN27s/jYmTJjgbc0dwTEZv6NQSoLbCVrUvsdJOVEXnjlzpvsfPnr0aG9L9lF9X//DQ10cyOvxmyxRjtfs1rdvX+WRdUvVyrHxx48f9+45VceOHQP71q9fz9sK2b17d+DcfPHFF97W8OvcubN7jbfeesvbkn2GDx/uXqtPnz7elpNy6v3mhi1btsQnVLDce3v//fe9rcjPunfv7r4P+n8Zafbv3x/4W9TyyiuvePecatmyZUn2nTp1qncPRP/rdF70fza76P+lXqNWrVreluxVuEgh93r6n52cjkH36X89gPyjbp067m9fi37fUnL06NH4MmXKBPbt16+fdw9EdXGdF/2fzU6p/R8Pt9TaGTnxGxlJTpw4EfhbGTBggLcV+dmLL77ovg+5HQeZNGmSOw5/Wb9+vXfPqfz2vL8cPnzYuweSE3Xh1GIq4ZZaOyMvx2+yKkdTDST8qNu2HVvszTff9LYkpS7SH374odsPpypRooS7+qUlNjbW25p35eX3+8gjj7irmW3atCF5Opxbb73V3epqaKQO9VNvDOWgGjLknynOuPrPf/7T3fJ/PLTevXu7/2n5pTePctXp/SY0or0tAPIT/Rao3q8Z20NR7xyN/uE3I7SLLrrI/Q99/bUx3pa8Lb/9Rqq395qE9m+ZMmWYYBdOt27dAqPgFBvJbf7/Zr9+n5zaLE8/8yz/w1ORn+rC+S1elRE5Gni95eZbXWNdwyhCNdr/9a9/udvbet/ubpGU/gl3797dLaVKlfK25l159f2uXr3axo8f78rDhg1zt0Dbtm2tcqXKrgE6ffp0b2tkKV68uBtCpAnhQl1A27Rpk02ZMsXat29vVauc421FsKZNm7r/aa1bt/a25G2qZOr9ahI5APmP6vSq84caqqrtzyQ02EuUKGlXXdnF24pgVapUcf9Dr7vuOm9L3paffiM1HPuRRx9zZQVdVccC1Oa94oorXPm1115zt7mp3Z8vtaqVY13bdevWrd7Wk7R9547txG9SkZ/qwvktXpURORp4rVu3rnXp0sU2btzoGufB9IesxO7qAaicEKmZMWOGXX755ValchUrWbKUXZDwvPfcc4/t2rXL28PcpCLKc6HeY8o7oh6G2k/7N2hQ30aOHOntmdjTVvtWq3auu79Ro0an5JhSvorg59BrX3nllS4nT3J6Li26AqRKpY5Fx3fttdfan9u2d1dzU+vRpsqpHh8qx6oeq/uCc6coeKdtCugpt99dd91lNWrUCPleg3322WfuPVSsVNnKl6vozvtzzz1nhw8f9vZIpNfS899xxx3ellP5x5X8fc2dO9cFamrXru3Omc6t8n7pnOt86jMXnUc93l8GDRrktod6v5KRzyOz5ye76Cq+vhe6oqk8PoCoJ+nNt9zsyjmRnyczfvvthP3f//2fKz8V4sq3PxNvWr02lBdIObz9v1/9/1H+uuAc4MoL5P8v0N/Lq6++6v5HaX/9/ep/qv9/Qf8Pgp9P9/u9yn16jpdfftk15sqWLWvlY8q5sp5X9wUL/v0Q/d/Q/xH9P9JrKM9tanmL9D70+FC5CpXLTff5//sk+XvV4xSId8eZcG702xHq9fT+9Rj/fev/rPJILVq0yNvjJL2eXmPWrFnelqT0uxr8nn06t/pN0rk/p0o1d271v1bHqN8QPebnn467ffv16+fW/UX/c/WbonKo3MU6Fj2X/1uu/8f63JLn/M7s+QGQ+/S3W6FiJdc437Fjh7c1kS7g6ULeAw/cb0WLFvW2nkr/y1VX0/8h/e/W337zZs1dPtDg//P+/x5tU31QbQXtr3qu/k/o4qDo/pdeesk9n55L/4P0fz358WXmf5Tofv22qN6s17j66qtTnezQb4eEmttCPYV1n143WPB7XbhwoXt/ep86Tv22pfS/Xv8//d9BtXs06ipU3kHlZ9fz6394KDqXut9/zz79j1awSM+r59fvhl5Pv6F+/vGVX650+z7//POB96FFxxHqN9Kn86zfYb8Or1ut+59rMP85M3p+ctKzzz7rAlaxsdWsb9++3lbA7LbbbnO3+nsN/h+XGxRIe2BAf/e37XeSC6a6f7Hixe3uu+/2toQW6fGb4HiBKA6jx+p/R5MmTdz/mtQ+i9TiN6HqwpmNTyhmpt8WvW/9H9e+iq2EGlWi49dr6PlD0W9o8Hv26X+tjkfPrXOm86f9FNfR/+bHH3/c7bc94TdT24MXnaOU4jf6DqW3LRZp8Zuw8FIOZCs/x6tylvg5IZLnLVFOJ22fM2dOIJ9R8n2UB6e7lwfxtNNOc3klGjduHJ/wx+62lSsbE79x40a37xNPPOG2tWnTJj6hwufKyZeBAwfGDx061D2XluT3+7mHlNOkcqXKblvCPx+Xi8df16LnCeZvT2j8JslxpUXHqtdS3pRQvv3228B+ofKjFPZyMAXf16pVK/ecXbt2DeQNTb488MAD3t6JEn7sA/fpsSVKlEyyvxb//fv5HfXaKfHPn3J1iT6rnj17Bp5L70efj7/+/+ydCdxM5ffAn35pQZbKvmVJEVESIomolESJfkgl6ZdWkhYtf0UipVRKkihFq5KIIpWytCmiENklhVKp9P7ne+Y+477jzrwz887MO8v5+lz3uct7t7n3POc5z3nOYapZs2auZffUoEEDOY7X/Ub7e8TyfBLFnDlz5HxcB7+1orix3z/v6+bNm521BY+VAcThA2KvseyO38r18l43bdpUlm08o+AYr8hFG88PudO4UeNcsqBfv36y37x582TZ1yCRY9rt7olve9q0aZ7yi8nGOUIusa9dz/nc5zzzzDMDsgts/UG9hDzxkhuhYigh+7hm9uEegrF1jr1PiOReuceNGzc6f+F/3vYZMyFjg6/THXvJ1sOh4ksNHjxYtruvi9/KLbfLlikfkMlMyGlb9pqIX82z5X75ndwgc+1+yG/kuL1+noNbPsbyfBRFKVis/rt06dJA7Lng+K3o+cgU6hgb2zN4H+LFsR/b2Be545YXyASbO4JlJttWCJ6oe5An9njBE8dFhkMsMoprQ3d2x6y1k1csPIvVl4P1V1i4cKHI0OA2kT1u9+7dA+XgyS13uS/0YLuNe7HtJ/dkY7zSTuG81PdeUD+wv9XXgb911ws8B2Qzx2HZXX94TdQ/XnUkcD32+XNMfg9b97M+OF+CPWakzyfZ8Kzs8/eKdatkN3yv1n5RUO+pjfGK3EBHRh/kW3O3T9Dx2QfZ5Y7t6W63cy/pYL+x9oLx48fndOzYMbCf/Xu2xWq/8dKFY7FPUNe45bZbvtrJ3T7hnlkXKtZqq5ZtZLtbfo4ZMyZwTK6L38F9faH0cDvxrnjZb6Jti8XyfFKdpBtegQfLsv2RUbisMgV8MGwPVjL4QFhPQ91+oIDCZRU2fiSwHy4TLx3n4sdkcm9j4npQbDgO12KFA3+HsLAvLYqR+wXCSGwrfbdxwR6XlwWlAyVy1KhRIiSscmWvMxgUDbaHSrBjXzz3dbhfYpKToQxxL+xjj8ffcW9gFUSuDwOsfcn5m5kzZwY+gvwYXu1vxcfKMa0iy7F4FjTgeX52PxQjBLad7LUG328sv0e0zyeRWIU0uGGhKBb7viIvUgUrA5BnYBtcKE4WkkKwzsp1L8Mr3zYKFvICOWDlAiCDbWMVGWXlFBPfNYoA18HfcEx3JYzMQhlC/vBt244lzoMxztYPfH/uxjL1iG2Au79JW0dYuUYdwe/BNVsZHkq54v7ZjpzyguMEn899rxyX60ex5V55LlZRdDdEUUpZx2+wZMkSZ60/cZ81GOTH8Mr5+T14Bj179pTfzsLvj1LKc2G9VbAwsFgZzsRvYet793tg63h+VzqjLDxPW//yu9j3I5bnoyhKwWJ1NeQCspnvHVlhZQk6G9ttwymU4dXWicght8xFttMeQEbZBjT7MbGO465Zs0bkBNdgO8SYrBzhWtiOHLKNWeqSWGWUrTO4d66Jdg9ze2z2C4Z6jfqMyW3QsCDj7PncsM6ek2eGkYHroQ6w9YPbKGplPHKdxr+9du5pwoQJgWu3v481ukRjeLUNcuY8cwv1Lr8Hz4Hj28Y+9TrLduJavOpI/t7WM27dgbmt7zk2925hHVOkzyfZcE1cg1uPUhQ3Vq9u3769sya5uA2vYGWI29iFDEZ22W+Y7UxuWW3b+qluv7F1DTKDe+J4yBcm63BirzMYa08IZb/x0oXt+ZgisU8wt+0k7snWF9wrhlWboD4/hldsNva8yFpr1+G6uHZkJu+B3Y/2l1uGMwF/z3b3c4+2LRbt80kHCsTwar3+qJjBfsi2F8HL8GoVEz4U+6O64YewjS9+TPtxIqzYFoxVwNgvGF4yq4CgjDC3H3Ewdrv7WllmClYSwd4H291KCXCdVhCgIHjh9SLzYnK9oQw1VSpVlb+xH5V9kd2C040VLrEaXvl97HWS4dwLrp/jYgTgb91Cwk3w/dp3I5rfI9rnkygmTZok50E5TCchoSQXelp5T8J5xyQbKwOs4RWsHEGB4ftEdvFdWrwMr8gc1tlGcjA0wthOR4xtyPJ9en0vyFe2o8x4yXgaM2xHJiBHmNyNMgsNc+QD223dYusP6hSUi2DssW2d5sYqPtyLF+EMr9yrV/1m3wnbQLN1KDLZ69nYkSX5MbzaRmGoRjdYBdo2iL2u3UvZtO+GrWPcINdt55/9m2ifj6IoBY9t8FldF7mPrLXyH+MXctc2Hr0Mr7ZxR33jpfOhK7MdWQ2Umbx0T2tcxCHAyzve1k/IwFhlFPdDIz34Wq0BxRow3Ng6oUuXLs6a3ORleGV7MNRrdjt6OXW0Nf561WkQLMejNbzyLFjm+brbKG5snRHcznDjVUfyboRrK1h9wP03LDNF8nySDc+B++H8XsZ4RQEr33hXvHSfRBNseLVyxOqevLtcmzU2co32u7IygP2Qi+lgv7H2AuxTbgMx2Pvgb2Kx34QyvHK+SO0Ttg7FgO2FHVnilpO2Ho7U8MrzYJl6zAueJfLTq53hxj4r+x5Q53LtrI+0LZYq9pt4ktQYrxafsmV8L43EhyPGDnEvfD+cufDCC5099senKJh//vnHtG9/nilTpoyzdh++H8o0OaWJlL/44guZA7Eg2BbMMcfUlPnRRx8tczdFihQxpUuVlbKNOXhJjx4SgzEY4pdyfDIPBseGIvZEcKB0ggzzN+BrtMvcQsyMHTt+kcQ00QZfJi4GMXS9qHXcMTInriKxTj788EO5l0RlDCU+E/E9fIIrZAxTnosNuBwc0yMcvo9L5tH+HpE+n0TB8xg40B+f646BAzXYtBISEmj4lBrjq7w94wSlCj4FQOZkOR07dqzZtWunuc2J/xoKG+MuVLxoYuHBly4ZXqrMEZ7fS/Xq1WVeqVIlTxlfo0YNmb/33nvy/Z1++umSpCQYMm62aNFC9iF2kZvOXTpL7NlgbByr0Y8/LnML8ZVmzJghiWK6d+/urI0c7tWrfqMegx+3/CRznzIscxJWJkqWTH3tTZn369dP5l541Z95QZwm3m3e8Q4dOjhr94Fc59kxf/NN/zVYIn0+iqKkHsiSQwsfYkb5dGPi6zFddtllply5cs4e+/Paa6/JnHiHXjofunKpUqXMho0bRL+1HHfccU5pH8grdMFDfPVFhQoVnLX7qFnT3y747rvvYpZR6Jk33njjftd69dVXy5z7cccz5HqeeOJJKYeTteHw0m2p12y9iG47e/Zs8+uuXcbXCPes0+KB/a16Xn5ZyCRRsdQZMGvWbJkT788Lu576N5hInk+yue222+S3b9euncQ3VBQvkG/YS3hXpkyZ4qwtOPiur/7f/8zvu/+Q+MzEdi1UqJC59dZbnT32J93sNzxr2jfBxy9o+w28MXWq7H/zgMTYb9DPeR48l969eztrc8OzRH5Gy6xZs+Tao22LRfN80oH938Qkcdvtt8n8os6dJYu3V0B5N9988408/FdefVkC8XpNVgH65ZdfZA78jRdFixaVOcLAi+Il/EH+v1+9WuZeShzwch7jKGuRJvcgkDQ89/zzuYIO2yDBdns0eAkVi1WAeBZLly6VMoLJSwDGA4JdQyija374doX/GUf7e0T6fBIFQpoEEpUqVjLXXnuts1ZR9gfFodOFF0k5VZNsAY23+vXrSeN50D33mCpVjgooJV5Qma5cuVLKJ5/U0FOGn9GylWzf/ssOmYfDfrehZDgynu9+w/rNshyq4gaSUgH1TCRwnzT2l/pkHUk7LI87htiePS+X3zFeHHnkkTL/N8d/r19//bXM69evL/N4Q720boM/ED/JCuKJlcu1jq3tqVRDnTp1RB7b9yUvgp+PoiipBw1Xsl5jADy/QweRz3np/lZnveGGGz3rDCZrcHUbXr0Il7wL7HZ7nHjKKBqVGNn4GxKLWHBUQDds0KCBZPOPJ27d1urldcLUg/nF1p8koYkn6A48I+4jVD1u1/N7sF8kJEP394IOdTpPef+9EhUpipueV/SU+bhxT8u8oOnbt6/IxREPPijJstCHvQxplnSz34SzFxSk/YaJNgckSve3Mrx27VpxbcPA8uXLZR5NWwyjfjgKSobnhwIzvJJRDi9XFLAqlaqarl27Olu8sR9j9arVzemtWnpOHTt2lEzxkVjiDzzwQKfkjd2+x1fhg/3QvSha1P+RB2c5DQUKFj1Y3DtZXoGKmEx3VatWM2effbasi4ZwL537Xu1zrFipvMwTgX0OxYoVk3k82b37N5lH+3tE+nwSAUr8oEH+rK9D7hsSd2GmZB5kg4SXXnpZGh2pyu23+71ekWW33XZrWAXit9/83y54yW87IcPPa3eus2do8qqQ2c53//c/f8py4cKFZe6FbXD/+uuvMs8LFLaePf3KsO35Rgl75pnxUs4rs2t+wbsYvLy24oH7t8rLWBEt9tiHHnqozL2w57T3qShKZoChlXqCOoNM0XbkQih27fTLgBNPPMGzvmDiONQbeelWeel6tk7Z+89emcdbRtlO9yfHPBXQSW39EUuDPS8OPGBffbx9+3aZV6xYUeaJwMp22xiOF5HUR+717v3D4X4+yaR///4yx9sbA76ihMPtmenOiF9QMEKBdxcZDrfnMdIt3ew34ewFBWm/ccu1ROv+9rnEE3vsvNpioh84bbFQxnVLou03iaDADK/AUAvoP6BfyF5ly+GHHy7zs9u2NZMnTw47tW7dWvaNB0WK+F+QcEbVnY7iZa8xEvpc00fmj44a5Z8HekuuD2u8CEWkf2MFkLunJt5YpcvdcxUvipcoIfNof49Ynmm8GDp0qAxBYIhXLMOPleyDoWdU4rw3U6dOddamHp06dZLhmWXLlBdFLBy2QoVnnnnGU3bbacyYMbJfPLCVfDij6o4dO+TaouksskNHX375ZRk6igcLvxdeTbEMw4mGQw/x31Oi5Lj7t+LZxJMSVoY7BhUvdjrbihf376soSmZAg9EO08+rwQ5W58NY5VVXuKd4NUYPLORvzMVbRjFKhPpy86aNZtq0aYHQNIyeCDdaJB5gROaZR2qUdLN3r98QnRfW+JmX53G0uI2qoeoj93r3/qkG4ZYI90YYi3vvvddZqyihoU2Nrg2pMgoO+w3yBINpXkPr081+Y3XfUBSU/cbdERiLHA9n4LVEop/Hin3GebXFwI5ig1ieaSpToHfTo0cPs3v3bnPNNdc4a0JTr149mb///vsyTxbVq/vjBC5evFjmwfBBEw8K8OCNFPdQVSril156SSpi60UVLZF8UGANAih8kTbarRfAn3/sicj77vjjj5f5ggULZB4Oeiv4qPLq1bDYZxzt7xHp84k369evN6Mc4cywjEwTIEriuPxyvyEzlcMN8D4zFHTd+rV5dp6x3cZdTaYct/EDP/30U5l7seTLJTI/8cQTZR4J7qGj/EaPPPKIrE+E51IwNY6uIc/+q6++ctbkjZXjkXSI4TlG6AggFnteHHjgQTKPRI7bYV/frVwZsg767LPPZG7rEkVRMofx48dL48vq9eGwwxIJaZMsrOEuETKqTx9/o33UI48HQtMQ8zyv+jO/YPClrrLDPSPB1hnWyJwXVrZHUmdYIqkzeDY2/u6SJf66OhgbGxIHh1TVs3n+NhZm3xv7JcxrTck8Lr/8cpljK0iFUXDov8hwjKV5kW72m7zsBQVlv0EOlq/gH7FgQ8dEgu1IDGfwtLj180g70CLtmLPHzqstxvNwjwSI9PmkCwVeO9HAi6SSxH27WPHi8oMRxDgUq1atimtvK4nAuL5nxj/rqYCRVIaXgkRS0cRM5QOyHymBnxGk3btdEvMQnUgVDYJFE2eU83kJTJ7d2jVrnCU/XBNChfucP3++s3YfKMTuD4PfivvD9T44WY0Fwy/BrDk2fxtpnCybgC3a36OgFDE8OnjWrVq2SVhCAyUzoWMKCEgenLgvleBbZ4oEEofxLd5++21hO37CVczRQgXO9dEY9BqmxTChhYsWStKXNm3aOGsjww4dHTZ8uBwb5S2ePfahoF5Czk2a9IKnEu71/OwQU3dMWgsKaHBH2QUXdJQ5Hvtu+e7GNrBLFPPXW9S/eUFjk+FaXLc71qGFa5nw7HNSxptCUZTMgjog0pBL1hN0jE9WhJMvyPF4gWdRomQU9Tr10Zy5s82TY56QZ2GNsYmEhCaADu+Vj4KG/D9/525Aly/vD0lGfRJcX1MnBOv3DBUGQu64E4i5sfVPyZIlZR5JnQHnnXeezEnG7IXt+CR2cKry9NNPS9I2jDYDBgxw1ipK3rRq1Ura7uTE8UogVxAgwyPR/dPNfpOXvYB7Lgj7DbQ8vYXMkSXBcB1ezhgVHGMtiYaDwRbz/Zp9MphYvbbuGzZsmLM2NzxLzmNl+A8//BC2PWextqG82mLYm9xtsWieTzqQNnfDCz1k8GApX3LJJRInCuWBl4MPFQWAuIg0srdt2yb7xQMyrDVp0kSGBvHSWIWFl+yJJ54IVJ40TqPFNtqJFcKLdf3118tyLIRqGHtx3fX++IPXXX+t3APCjo9o+PDhpkaNowPBm920anmGzOmZR3HiY33nnXd8jfMLpEJwgwC7+WZ/xr0LLrxQFFcyzvHM+NjYRgBljEmNGzeW/VAG2Y/fkusJZbA955xzREhG+3tE83ziBc/UxoB5YIQG0Feigx5lFAfAQyhdccfg4fvEk5JYVU2bniK9xXzzyHG+e4bsHF+3rhkxYoTzF/mHUANkmYbz258fkC3IBGRYh44XyPItA26NWnGyQ0dtrKv8yPBowIBdtnQZSThCgxRFBplMohauCTkdjDUIM8zxjjvuENlJY5uG7DFH15QkCW6Q0zQQOTaevchufifkNj38TRo3MYMGDZJ9bUbaATcPkOPym1JP4PHvxX333Sdz6nHkPscFrqdt27Zm64+b5d1PhhFbUZTUBTmAcRMZe/LJjUReIIPcsgiZ176d3zAXD6izEiWjSDBmQ06RGRwdOhmejzhdcN3Ue9QZ1L3UGch3Rh3ilWbv0XLCCSdIHcB6jKrUAdTTGE8aNDjR3H333c6eftDPmzdvLiF3eDbUR+jmto2GEb3tOf4YiOjxQJ1PXcE+6MyhOl2pj0qWPFyS8HC97A+0LajvbMiGZNXB0cJzuOvO/5O23l133RWzkUbJTnhvLr3sUil7Gd1SmXSz30RiLygo+40dUYcMpozM5L4mTpwoCbeYB3PmmWfKfOTDD8nfIfcxcvL32GJoR7ixBldsQshd9ue3sm20o2seY2bOnCnx2ZG5jFog4Rr1MRNtieC6BKj7YmmLRfN80oKcJNCnT58cTjV69GhnTXimTJki+9evX89Zsw9fgzzn4IMPlu1eU5GihXPWrVuX42sQynK/fv2cv8xNp06dZPuECROcNbmpVauWbF+yZEnOxo0bc+rWqZPrHPYafB9czpgxY5y/8mP32717t7MmNL4GrezrU1KcNeGx5925c6ezJifHp+jIdUyfPt1ZkxufwiR/M27cOFnes2dPju9DDFyne2rQoIE8d8r8DpalS5fmFCtefL/9Oe/AgQMDy/ae9+7dG/jd7X5MdplnyDGhR48egfV24jrA636j/T2ifT7xwj7jrl27OmsUJTomTZok71DNmjWdNQXD9u3b5Tp8layzJm+sDJ06daqzxs+aNWvk+2ZbqAnZMW/ePClbWRAM9QnbkR9e9O7dW7aPGjVKZB7foT0+8sLKDHsMZJYlr/rDzciRI2Vf5GMkMt+n1Mj+PkXNWZOT572uWLFCtleqWMlZk5Mze/bsXPdgJ2Sdlan8Bm569uy53/52PysH3ff82WefyTmD97dT9+7dZT/qSa/6AZlr5WDwe8DvYvfjmpHjto7gOWzdutXZM7bnoyhKwWL1NKvr5YWV2W7ZCMhVt/z2mjgX2GUvWcx1sK1q1WrOmtzYtkf79u1lOZ4yyg1y1R5n/vz5ztrQLFy4UPYNbhOxjilUvVO2dBnZvnr1almmbVSlUtXA37knnq+tT9z3RRspeF+mkiUPl9+Jsvue0RXQuYP3t5OV0VyzW4+3E/WPVx0JPGPOa/d11zms5zm5sdsifT6JxOoU6HLoI4oSLStXrpR3CNnh/kYTySuvvCLnxGYSCVwX+zO52+2QDvabvOwFbqK133jpwrHYJ+zzCZ5on9lroi61hJK1TOyP/Kbsvgaebbjfyl4Pc6/tnJNnTdn9HkTbFiso+00iOfD/fPguOqEQJwivIIa6RNqzW7ZsWdOyZStz0kknOWv80EtKzwjbSYRSunRpiRuIRZ9gz089NVYs8AcccICpVq2aeGN6ZU2lR5veFa6JYwXD9kaNGsl2YgT26tVLXLCB+6lcqbIMe6fniV5kN76XRHp7SZDj9vbyYtQjo4xPMIjXkU9YOGtDw7HpxeG67LGZ0zPNOnoUguFZcK9cD0OH2L9bt25yX/T8lChR3Jx88slm4MCB5rHHHvMtl5SeE85j3e+ZkznW9zGZf//dK8+iQ4cO0ruC99VBBx0k+9t75pznnnuu9OYTJJneC357PFzpGXp2/LOB54k3A3GyiKvFNdFD5fsw5Rq87pffPZrfI9rnEw/oyeHT8gkU6aG3AasVJRqQbY/6vsnNmzeLjLPvfLLx1RXmkEMOEXlqPVXygu/OylBksoXhKXioNGzYUIKtMyEbkPV4ApHl2Vf5yrfPvpzTpxg4f70PvttKlSqJrPWSnZyfoP+cv0qVKiIfuB7g2Mg0/vaBBx6QxC0cz0I5XP3h5vXXXxeP/f/57snXYHfWhoZjH3XUUXJuvJAgr3tlO4kR+RvkI3BdyNc///xTjlmlsv8eJ02aJJ5HyFyOh2y34OlEyAHk+GG+453k+w3wPkBuUg8G3zPykJ596m/kM7L8mGOOMeeff77UWddd5x89wd8Sg4whuvzW9KJzDezH74ssD34PqAuoU+AA3z/qId4JetjpVXf3eMfyfBRFKViQS8hcdLhwmaUtVma7ZSOgXyLbkK/o/OhTyBLiv6KH4rHExPmQBfx9KP0b/bFVq5aB0VbBIMuQM+iE8ZRRbvCa9Xso1TNDhvg9a8PBfXHPwW2ivO71AN/2Zs2ayXZGfnCMSy/zhzD65+9/5F7POOMMuZd+/fpJHe9r6Iqs5pkDsvvUU0+VZC6F+H18dS1tsEmTnpe6JfieOQ91wSmnnCLPB/lP/cs+eMg+8eQTcj8cHz2eOoWJOpHz8rwZ7RNcRwLreve+Uv4Wvf8g31TH9w5wPq7HvS9E+3wSBV65F//3v+avPXvEe1pjlyuxQPt19uzZZt26ddJWjlQXzw98N8hcvl8bozMcfNvIEb47vmf3d5cO9hv+Npy9wE209huOHawL53U+nkWwfYL6FPmKHn/IIQeLTs4ogOeee07qT+Qkzw69HZCXtK041197/vKd+0g5H9fN6DdkH/kt3NfAddJO4/lRd3NuRkXgsfzss8/KvsDfMSKOY/B7soxNiPNTZwbbb5hH0xaL5fmkOgdgfXXKSpLB1RvFjuzlq1evkhdQSX9wi2cYFsOpUWYffPBBZ4uiRA+KyjPPPCMxhcalcKKtbISOK5Qc4m4Rpzq44acoiqIobgiNQOx26nMbK1DJXDCK0KHcuFFjs2Bh3kmHFSUUtAVoE9StU8d8vXSps1ZJNmq/UWJF35QCBOs+XHvtNfrRZhDEdcXoSjwqvIgVJT+gZMHLr7wihj4ldZgwYYIYXek1V6OroiiKEg68XTG6oh/aWK9K5kL8xSeffFLaeMMfGO6sVZTY6NSpkyQfIhdLPJPQKtGh9hslVtLO45VMmTt37pQyruNemVHxOPTKko/LMvvjOh3uQ+HvyfD8zTffSOBnhtLgRs5wG/ffsY2JdXkNRwV7XbiH83f0euP2zjBV3O698LpHAtQvXLjIPPPMOHHPzguGuaDscf+4Yycbeoa6dLnY1K1bx0ybNs1ZGx6G4wwder/p1euKtDJeElC6RvUaZsPGDZIg6KabbnK2KErsMJQE2YGhj2H46QLZn5E/e/fmzpbM0BeGrttQJpZQ+3vBsEnqAoY1MTQxUmgILVy4UIL4I1uRsQyLCZazJIbC0M3wGa8hLshzkhESmH7q1KkyrN4LAtJzPwydIvSIJRa5yLUTvJ6hmQz7STYMSX3ooZFRyWXe3b///scsWfJlrqG5iqIokeDW6cPJ+2jrm2CQ9++//34gSzNyluH0DGV0Y2U6QxsjkWlc0y+//CJJSAhB9corr5jevXvLiKhQMEzU3d7Q+iI9IRwQ4YgIk0FCM0XJLwz3xsGnT58+5vHHH3fWphZr1641e/bscZb8YINAfiOPgvVtr/294O+BfUPZgLyI1K4DyE0I1tktJJtCPmO/oZ3gVa9gC1izZo3cc7BTRrRykWNhJwJCzRSEXKxWzW/jWrZsaUTPnKRf55/fwdSuXUuSLCouMLymE74PJRCE1/fCOmtzYxPBhJoI5EtAYQIvu/EpUpIopVSpUp5/x3q2sx8QFJ/1vo9WzpkXJENhf3dw+Lym4IQkYAPXRxL8GWzCAAIdRwNBrklyE+o5R0o0SQcsoYLrpzr2uklgoAH0lXjBe4Wc4dtPJ2xg/uCJe2FCFhIE3srPUPsHT/ztgAEDpOyVhNEL5GWoAPPUCcg6txy3yQFJSOWFr/Eb+HuuxQuCyrOd6w1ONBCLXLTJZ6i/ooG6h78lWVt+iCbpmIVny98E37+iKEokuOsF9NhQsiTa+sbCMvLeyqrgiXpj5syZzt45Oa1atpHjRaqfNm3aVI5j55FMWl+kf33hbiOSAFJR4sGcOXPkvUKepWo7M5SubWVxw4YNc9k3Qu0fPKHv23297CPBRGvXAY7PNYZK3kVSWf6Wfdz1ghvbPvCS19HKRXfCMhIzRgN1FLI8v/LUnp+kWZEQKiGkkpOTVv7Rn3/+ufFVXoEeiOcmTJJ5OAj6i2s+CZwoExifXue33npLerLxBAV6FNinb9++MnQUT9Jhw4aZ8ePHy5xl1rMdzyb2J1A08T3oSZkyZYocJxwEPoZTT20mc4YLEMg+3IS3lRe+D94p5Q09/fTOVK+at1euGzzCiEv06quvOmuUcNCLNnjIECkPHTbEs6dMUWLBDkn88MMPpWc43ShWvLjIYSuL8fYnqP6OHb+IdzsJLpCplrxkIwHb6fWNVA4OHz5ckv0xPItebnqZia83atQoSeQHyDoSM+EhBAT8hzlz5so8GLxg7fnnvT9P5sF88MEHMj+54clx6aWmPkCW5+W5FcySJUskkYCv8e6sURRFSQ9I5gHoVL/v/sO89tprshyKaOobPJaQ+8h/oD6gXqB+oJ6gvqDeOPvss6UegUsv6+7X+1+cLPNwUF9//PHHUldwLKhUsZJnveae8KbKL1pfFCwkYQOS+5D0RlHiAfovtgfkGaOtUhniGrtlMbL30MKHSJgEEiNa2W6pW6eOpzy000knNXT2zJtY7DrQ6owzRK6/9957shyMTY7HPnPmzJFyMHPn+tsNrVu3lnl+oC5AjjNZj99IeXrcWKnzSMKrpAiOATYtwHLPJeNdZHsv6AUOht5rtjF5Wfnx5PQpPrLd9lj3799flulND+VJynq2s5/1cMIblGWfcJHlUNAr5VMGZd8RI0bIPJqeazc+4SN/H6nHa6zQs8J58DLOD7H01OPhx9+kk8erfT/p4XH3nilKPGjbtq30sObXAz2ZWA+kUL2e9NxzT+zDvnb/SGRFXse2ICfZj2nw4MGe3+bKlStzfEqN7IMsZx/qDntt1BnBWBlFnYCXjlddQ482+3h5xMYiF2PF1jn0fOcH9XhVFCWZoM8jh5EjyG9kia/B7GzNTbT1DXIeec8y8p96IBj2sedloj7B68e2BfAODYf92/bt2wdGUcSi12p9kV7Yd5H3ZPPmzc5aRYkP1vZAuyAVCeeVij3kzDPPlO3sB3Z/PEXzItyx3cRq17HeqlWrVpPlYLh2K6dC2X6Q02z3qh9ikYuxYu8Nr9n8wDGY1OM1/6SNx6vtXQaygFovJWIeRgtxQdqf317K9EbT400PN4x96mlzzjnnSDkY1rMdiN+JZ9Rll10mPdkLFy2UuB+h8H3I5tddu6Q3x8an2rv3H5nHAue0cA8TJ040xA1599135Vm5oReHeyQ+bjDsS+wo/p6ep3feeUfiUeG9aT2//vxzj/y9e7Jwz5zzhRdekGyLeMcS/yocXA/neeKJJ+Sc7uNFCrG8iJfEPdObwz0UJPwG9CzBiBEPRuyJpyiRgqzhe5006QVnTfpDj/NxtWtL2cobyI9sDMbGWabewIPJ69skBhNxiHzKlFn86WKJwYeHqk95ku2299oNveE+pcZ073aJyLRPPvnE2bIP4gUC3lJ5EYlcRO6xHvkcDDEJuU7+FnmOty3reK7EF4TffvstIMOZbJ3AuRn9wTOwdQFl6oJwcB3IfOQwc64vWhjJQt1hj5HXORVFyR4mTfKPbMNz6corrxT5jZzzko95EVzfIOfR3ZH7yDuvBImcj3qD+gOoT4hx1+H8jrKcVxuEWIxgY7PHSzfU+iJ16wv0tNtuu03KfW/sJ3lFFCWe4EUNyAC37pwOIG979+4t5R+C5NbeCPI7RALyKla7DrlwuEbyN3AcN3zbH83/0Jx++uliz6G9gNx0g1xDTnEMRkbnRSRy0cpgL7C5vPTSSzJKgb9nmWty779u3brAMZjsNTPHfoI9BbmKPKdeCL6nYPBYxvbCxL1GC3UI5+HvqcN4j/M6Z8bgGGBTHuJocLm2t9da0/EiDY5xkpfHK3Tp0kW20yNiex9sz0te4AHK/vRkg+0xt8te0NvNPvQk59Urnxd4vPqUN4k/QvxBjuWeuI81a9Y4e4fueeCZ0qMT/PdMZUuX8VxvJ3o9rOet18QzWb16tZzH3VNP75L1NrYT94L3mJtQHq94H9DT5xNouY7BxH0XVBwl+z7RE6YoiQA5Z+NDe3n6pyKRyLqyZcrLPsijaGRjJPta2YOMicTrxHokWY8q61XgazTLsgU5hAzie6fXnX2CvVqtxyz7efUSx1MuUq/YERXuiXN7rbcT5+bavOSpnbh3e/22ruT8nNP2ptuJ9zM45pU9dnBdTIx1zs99uo/BMXnuiqIoxAJELkxzPKHw8GI5WDZCtPWN1WGR+3lB/WFlFbE7bZsEeRXKCwgZxz42FmO8PF61vth3jFSsL0aPHi3XRjsq1LuhKPnFyi8vWVjQ0B7n2kJ5pY4ZM0a2I98hr/3dRLJvfu06Nh73+PHjZdli7Snsh1yjHCzDkM+s5/fxIl5yERtLsB3Gyse8bDhco40V7DVxTVybxa5fvHixZ6zyjh075rLFhfN4Je+QrYfdEyPZI/n90520ccsjJgeQzQ8aNWok8S7wIvUpZLIuUrDuvz1jhvG9mBLbw3olnd+hg8zz4sILL5S5jf9x6WWXyjxUzze9Gb6PSMr//e9/ZR4P6P2np5nYtfTI+5Q643txJR6VTzmVHoVQ8Azo6Vm37gfpecKrgGnAgAESh2rrth/FOwB8ipjs456IOeJTKOQ3YNn3gUqMLK6D2DN4EeDl5b6GL7/8UuIsFjroILlW9iWOIj1It9xyi3jN5sWll15qhgwZYsqVqSC9WTxXrpv75b5bn9E6pl70/EBvj43x+8ADD8hcUeKNr+I1nTtfJOWxY/3e1ekOvZ1bf9wssZuIwxdvrGwnhl8kXifEoQIyiCK7zjjjDFme817uOE709rKdnnGu3afs7Bfn9aOPPhLZRkyrcFlA8ysXH3zwQdO/f39ziO/94G+RRcQnRC7jtbvnzz8lzhYg291yvEuXLrKee2Gffv36iVxl4lqQ/fSAX3fddbKf5bHHHpNzHl+nnvyNrTeIOUb25nCjP4CMp6c0bSKyk/jFXDOy3NeAMAceeJDIeO5LUZTshezSyFr0WmQi2Hjntk0QDe76Bv32s88/lfVW7oeD+oN6BPDUadOmjfE1HiXmLDkjvLBtAupt6u94oPVFatcXtD8G/d+9Ur5n8L0RZ11XlGjBCx/dMxZZWJDgOT969ONy7YMHD3bWxpf82nWs/QNZ78Yel+2tWrWScnCcV/s3ecV3zY9cRM60OK2F5P3A/kGbELk4dOhQqd+w4eBtyzMG5KZblh911FHmjz/+kHrJ2pCw4YwcOVLqQ+o1rg157qZx48bm66VL5Xj8DaPPOcfrr79urr76amev0OBVSz3y6+4d8vfY76ZOnSr1B7ayCy64oMBHMCccxwCb0mDhx9rv+3FzeS35fjSxkgdn7HR7vGKFxxuRiTLWd9bj6WnjOdmeAXrLI8H2qmOxB85neyO8Ms7Znh0yoYL9e/6G6wk3eXm22R4O5kuXLnXW+tm4cWMg/q3NSOrV8+D7aGRdKC9drhEPA/bxCQJnbW5CeZDxPHg2/F70qNieenpQgrMHAp5ibHfHU/HqqbfXQw+WVy8yvy/bk937h3cc5w32ilOUeOP29A/2CElFrKzjeq0cZkJmV6lUVbbhwWTvJRrZaHuNKYeCc7GPr1J31oTHnT2U+oEeXCvb3aMIrHzC8wm4BuSdWy75lBbZJ5SMjZdcxPOJc3vVFVy/r1EsPdf8nU/hcrbsg/OGiv9k3zeeAfdmnzm/HT3mbjiXrZsYiWGxz8/9vuK5xDpGbQSDZxP3Q6+/egspSvZidXy3/EYmWA+hYH07mvqG0VEsM6GzRgLXwf4cE3yNZVkOboMAcrV8hYqy3dYT9u/R0d11mdcULPu0vkiP+sK+s8QMDv6NFCWeuGUh314qYb1S8Y60crhTp07yzfO98p3bUQxg90d+eclDO3Ecu28478j82nWsvEVeumGUG9eO/EJGsQ8jfN3YURpW7gcTD7k4btw4Wcb+4AV1I/Fl7fvhJbM5ViiZaesOrgUoM1EnBNeXeOfa7TYfhpfdiWvgPrimYNsVUPfwNzzjTCYtDK+4evOhBv8YNIxZz+R+qdyG13ATFSMfvn2hMRJGgnXP5u8sNpSAW8Gx2I/IKg32A49k8hIsVnAFf7AWW/Ej5MDrA0D5ZB0KXCjyk1wL4cjfjh07NiDAUJ684OO3wsF+jF4KI78/60IlM7DnsYIiGfAbcE7eBa8EPIoSb6zSQcWb6kQq61DOkOfRyEbb0HTLtWCszEAmRgINJXt8q8jaY7iHHLGObx4lCWwD3C2b8lK+4iUX7T5enX6WcA3pvLAKLL+PVRi5Xy+4f7ZjWLDY+tUqjLY+4jcPha3jvIwDiqJkBzTCkRXBRoWuXbvK+mB9O5r6xr1vpAYyq1vbtogNJYCsCm6M2naC2xBqDa+RTFZeWrS+SP36AmcU+3yzYcisUvDg8MP7Fsu3mkhsOyXcRGeJdUyIZH8m9P1IDK9WjsRq10G3t9+ydbqgnmCd29iJPEb2WAMmcotl9rPtg2DiIRetjPbq9HNj7yFUZ1kobMcknYdAmSmUoRb5zHbCrICX3cnWR6HaYzxfnh33GurZZQJpEWrAujp369ZN5hYC4fteeinjYu3F4sWLje8FCkw+RUncmnGT9ikG5rzzznP2jBzfyyHzQgcdKHPwCT+ZkwCMIT8WghjjCu57+U3wcCaf8DC+jyHshAu5F+5zBOP7AGTuU75k7oUdMjXwjtvNPffcI0N53GEBIoVA1A8//LC5+OKLTZPGTUy1atVN8RIlAr/H33//LfNwMLzpuNp1pMxvFAoCWsPy5csDQZ3dE88Z1q/fIPNEI0O7BgyQ8o033ihJ2xQl0Vx2+eUyZ3hgusDwGbccZvI1/GSIlK/RZD7++GPT4KSTAkk9IpGNJ/n2z4sDD9wnoyPhn3/2JfXyKQAyt+EG7BAkvvtPFiyQEAI+BUHW2WFJPoVJ5ja4PkMvrayNlkjl4kkNGsq1XnhhJ5GDeQ3bDAXXe8cdd0idyLM9qnI1U/SwIjJkCXyKkMzDYesehgyFSnpi5fShhxTdT4bb6a89/rqIpIWKomQfJHsiuUnVqtUktJgbq28zrN5LF46kvrncSZYVC7ZeqVevntRVXENwG4SkWsjlbt38iYAtrGOIsFed5p6Q/9Gg9UXB1xd33323DNHlvs4//3xnraIkjiuuuELmL730ckomJ2L4ulsOY5eYM2eODKv/6+8/RYbcfPPNzt7+EDJe8tBOc+bsn+g2HgTbddDtT23WXMpcLxD2hu/btgmAJFvIf+oUIMkuyy1OOz3m8DKRyMWTTz5Z5oS54R2IJCGWF1wria1uuOEGCfd2fN26pkLFSlK3wd9/5S3HIRK7kw3TQDvPS46THKx48RJii+K3zlgcA2zKghchl8mE96RPuck14dXJNhugGdwer8G9xm5s77VPCZG5HZqfF+zH/m4XdKzz9N6w3u31ZC389NBbbE97OE+tcNje3VAerwQ/5vjWZd6r54HnwnFYbyd6GXwfj/Sk0KuRl8crvTb22THxPHC5pwfGeirQ+5FXTz1YD1zCMkBwTz3Xy3IkEz3uyQAPOM7H7x7uPVOUeOKrkALfHV4lqUwkso5eTiuLrByIRDZGcmzrGRWpNwAeK+zPZJMDWjlo5b2Vp8g/C98/8tMOOWLoDb8R9xOKeMhFwLuJa2O9nZBJ/K2t08J5MCHrbZgWJu6D0SD8JozksD3mnCevnnqw+9t3k+OxbGUk185yJJO9b0VRsguGWSID8C4N1vuRa7YOdOvB0dY3dgoVNisYe02E6rJY2eoebkp7gHAHrHfX0dbjNdhTNxK0vsh7Ksj6YsWKFYF3MtQoF0VJBLa9HakNIxlE4pVqvUz5brAz5LW/JZJj2zAvkT4T9mN/t13HykFrv7Hy1O1Zb0e9MgIP7Eg8/jYU8ZCL4CUbeY6EObNeuvY4tBuDQWbZZ8nEvizj0WvrEut1a/cJ5fFqn5UNw+Nld6Jsj5PXxLVlKinv8friiy86JX8yKd+PmmvyKVqyjZ4IAvFHQ+fOnWVue8zpEY8Eu98JJ54gc/B9FIHEN+4kW8853rq2hz5e2Gv2wm4rXORQmXtB7zi9DwSop/edXnu8vei1IaDyCSecYH777Tdn7/0hqRe9u4cWPkR6tLZv327Wb1hvFixcIMGSW7Xye4BFiu1tOvTQ0NcMPgEtPSq298xr+ujj+c7eiYOepTvvuFPKd999V9TeCYoSK2XKlJHEeMB3mO7wTV90kV92rlq1Subxon79+jKnfogEux+eqlWrVpUystDXMDUbNm4Q7yDba0tPt4Xvnx7ixZ8uFtlADzly+EwnIUysRCIX6/hk97fffSse0IyqwEOM4PwzZsyQUSL22YaCgPgExidRIrL7119/Nd999514nL3xxhumYoVKzp6R8c/f/ms+5JBDZB6KPn36eMpv98RICkVRsgs8Xl52dPtZs2btp/cj16yeG5z8Iy/c9Q1liLR+ILEVuEdb2IS5yH7rPSpydNcuSUDFyLxkofVFwdUXePDxTnbs2DHg/aUoyaBXrytElrltD+kAI8XQtflu/vwzMs/KSDm+rt/7Pz92HRIowlwncS66P7Ye9yi2U089VZ69Ta7LnGU7Ci5WIpGLjzzyiFx3v379ROYUKVpY5OCIESNMPV/bJ1ySKp752Wf7k5LTTlm4cKHZ/dvvkjiL9gvep9FA3cN95yXHgfc0WHYHT9WqVXP2zjxS3vCK2zlgHBw0aJDnVL++3yX6ueeek3mkMFzIKl7w0pSXAspcKNjOfhDcqCbjPrz2+qvS+Gb4Pi912dJlAh9wvHBfdzB2uE3lyuEVII6BazkKGB8b7t9TpkyR6125cmVg6JRV5tyQmY6/v3/oMFHEjjjiCGdLbKxbt07m1tgRDIYNhArPv3DhwubYY48NOSVD0SUbIYYYlFYUQkVJJr169ZL5M+OfzVNmpQOFChWS+d9/7xvqHw9s1lGGRUZi1GV4KLQ+44yAjGXesqXfyIpC4qV8gXvIkVXC7PljJS+5aCFzMnXkyy+/bNas+d5s3LhRMj5z7XROYhCw9+MGA8fkyZOlzH7t2rWLeXgUMCyKY3KMsmXLOmtzU6VKFZnv2LHDU367J+3QUpTswxouMe556fxM119/veyLEZDQLtFg65uihx0mc7eDRyhw7KAeAbc+X6FCBdOqZRuR/fY4kyZNkvmll/nbBMlC64uCqS8wOjPkl2c2fPhwZ62iJAfbEUUnFeH/0olDHPnx7z84OsYPa5/Jj10HZ4pSpUqZzZs2ivz/aP58yervlnnInJMbniwdb8gz5gyXt2EwYyESuWjhPA8++KCZ77u2X3f9ZubNmycdftSft916h7PXPoc8y0cffSShfLD3UN8Gh/OJltWrV8s5woVcrFChosxx8vOS3+4pP/VKqhPaepcCoORg+ebFf+KJJ8xdd93lOfXrd5Ps/9wEv7ITKXh78qJUqVRVjHoY0ugpCMfQoUNlP/a3hlYLPQ4Y4ogBQiVsDcHdLunuqcTkh3CChF5nwKgaDQgQvICvu8Gv0Fol7rfd+8cN2bJli1zDMccc46yJHQwi/M4803DxEImZAhh9CxLirgweMkTKQ4YMzmgBoaQmbdu2DSgENq5oOkPFD9WqhW8wRkvDhg1lAttQDwWNJ9vZdN1118nccvbZZ8v83Xff9VS+oHXr1jLnXlC++H1snKRYiFQueoExAA+c01v4Y1HRaEVeB49iQJah4AFxEfPLm2++KXN3/NtgWrRoIfNpvjqS8yuKorixIzno1PbS+Znw9kHfRn699tprsn+k2PrmFEeuYky0Mfq8QHba+gM9H69RN5de1l3mdNwh06ZPny46P965yULri4JjwM1+b9f//e9/SfVwVhSgo8V6WFpntXSAkQY//fSTlA8pfJDM48Xll18eF7uOjedKh8punzw87bTTZNlNi9NbyPdP5xVz66gRK5HIRS+oc7i+h0Y+JMvffbfcHHyQf/RDsCzfsMGfC6dqtWr5tmFwz29Pf1vKdjSmF/ZZplN+kkSQ0oZX6zZ/wQUXhH0xGC7D9nUb1krjOS/oHX/00UfN7bffLsu33j5APDfhlltukQ+MF8kNy6wnEDSMeOBBz95VAunz8qM4Tn7R3zMc/CHHA87hFQoAoysJB3geNui2FwwnwjjshR1Oddxxx8kc407wUKxKlfzetMEKL8+JZFt2mJibv/bs2e+58lvQ8w69rrgy7O9sA3AjJLnHYDj2Sy+9JL9hIsHbgt4kepq6ds2dOEFRkgHfiX330knRCobkg1dddZUMc0SmtW/f3tkSP+i049icg6GIXo23t99+25x/fgcpU58EDxOynqt4CPHteylfzZs3l/M8PW6syCJ3KIJw5Ecush8dbIyuCIZRF9+v8Xv52pAL7707N5d3GCMVUDaBpJNueE78Nox+CMar7sEj4I7bB0qZQP2hwBDOs+I5dujQwfP34L2g/op36AlFUVIb5AHyGGw4sFDYxFUTIww3EFzfPPDAAzI0HPl77rntJMlIMFwPdS3eZMhh2g7BUGcgRzF83nbbbWKcxBs0vyPBvND6IrXqi1dffdUsXLRQhkwTfk1RCgI7Ci4dwg0gH7E/dOzQUZaRn9bzNV4gq+Jh17EOFbYz0Ct8mG0fPDnmCZlHOsI5P3KRa6YuQm4HQxJ5qFa9mqnum8A65FnsqIivl321X1JCroEE9F54XXPfvn3Nps2bZPQ5HZOhwBhO2DY6Obm34N8DCI+QV7ibtMeJ9Zpy7N27V5Ik+ZSjXIGMQ9GlSxcJyOtTPnIl16pVq5YEC2YiADzHtNuYCE5sIdCxXU+A5R49ekiQYubuYPThAiITCNnux8R5g3nFSQDAvXE94SaStARjEwPw9wRBJmA/AZ19AiFwXneQ+XBBjqtWrSYB9AkaTbIx30cj6wlMTTBmG2CZ4Ps8WyaC+5PggPVcA4nNWE8AahvQ2iYWcCfXYmI7+3G9nJd7ZD2/jTtotA1i7f59YJATlJrzcg/23jkmQaDZxruQKEi441Nq5TwEBleUgsJXucp76GsIicxLRays45uxctjKYmQK2+x2gttHIxvdyRG9ttsJOcFxOQf7IptIDoJsRwZZWciEPHXLITfuOiDUt0+CFbtPXok+4iEX2WaPgRymbmIf5sh21rdq2UYC4lv5SJ2I3OR8PAeOZY9BHcL5bZIUnpmVd+5kKUz8juzLNSNz7X7B8teud98HSTOrVKoq6zmPT/GW35PrsnUQ04oMDrCvKMr+jBo1Sr59ZHFeIB+srECmRFvfAHKJc9lt1AfINWQo8tHqsvwNxw8F8tQeg8lrX+Qb25B5wfVU8BRcD2l9kXr1BUnUeOace/Dgwc5aRUk+fLNWVqVCcje+d64FvdnKYWQJy+jh9pvFnsG3bvfnHoJloXtCVke6LzIe2WbPFYtdhyRVdh9kk1dyKda57ykvORQPuWjlMHKafZE/TMhoroWJdoqtA1hmP2Qmz5Ak8Nhy2MZzZBvXwTb2te8SxwfKTMhf5D3Pi2uwvwXrP/vsM9kXvOxOgE3L3gvPH9sRspy5laX8dplMyhpe+XHsDxMJ06ZNk/15WTZu3Chlr4mXgx8XJcLLoMt53Y1n94Si4s6gGgr333tltrPKYSSTV9Y+BBUfBh+YW5lk4iOxCqXF6wNgn1D32a5du0BGPIyvLLu3W+GDgszzdG9DsPJb8BGx7Da88tzdCq6d+IiDM+4FK4xuOL4VGDwHexyuBeHh9bvGCxQ+zoVBWlEKGms05DtLRcLJOmQ11883buVNNLIRRcVrffBk6xAagny/ttJ3TzTqkGc0pEKBooa8sfLPC2sMZrLZSEMRD7lIByXntAqLe0Iesp+91sWLFweUJDvRaOWerbx2TzSqeWb22O6GNHVQ8Dl5LvwmXJMb+7zdDWmgswAl0Cp47onrRIkM9ZwVRclM0LORAePGjXPWhMfqgsjGaOsbCzKQOtQaH90T8gtdG/kXDttmYUIv96pLrOE1kilYXmp9kXr1he0kKFumvNZVSoFjv0vmBU2w7LAT3zcdR7ShsUPY7z/U/sETMjzSfW0dkl+7jq0XkGOhcDut5UU85CJ2HWwzdr174hlZOwjHwdDstpUwYXjFVhb8XDgeBljr2OM2vHIMbGfB5+T3cBtdIZThFagbuPbga2Kibhs/fryzZ2ZyAP/5blYJghimZOrctm2buKzXrl3blCtXztmaOuCyTxiAzZs3m/Lly8uwHN9H4WzNG4YR+T4CyUxarFgxidvkNTyK/RjGU7RoUck2Z8/BsB+fgiYJuGrUqCFBkfMCt3bOCQxpCheMORwEoOZYPoVHMr37BFhU9x4tuMAT29EnLGSoVnCcL0VJNgw18TWWJJj6goULnLVKOBiaQzgVZDvyDPkTidxKNPmViyRVQEb/8ccfpnTp0qZu3bqe8pD9mHwKVa4kLJyfIUoMteJ5EPcvL5CDa9askedIcH6v8Dt5wXCj5cuXizwnI2r16tVTsq5VFCXzQYZavRI5esIJJ0gyqlRD64uCrS9oE9HmIUbl2LFjA0O9FaWgYAg3cUGL+b6rLZs3p6TcKkhS1a6TH7mIDYh6AFsM8hv7jFddQLuHcwDb3ecgnxLhWmw9kNf5ORd/Qx3J+WLNZcE1EZ5n586dYn8iZ1AsdUK6oYZXRYkQ4jp++OGHEksr24NDK6kBFSAdLlS+VGCpYEBUFEVRFEXJVIixOGTIEHFWWbZsmThkKEpBg/GKOMuTJk2S2NSKoqQWB/6fD6eshIEeCQLv//333xH17CYTen4J8E6PBUI3EUg2748+kl6iEiVKOGvDM3fuXDFUsn/JkiWdtekJgcDvv/9+SSzw+utTpXdGUQqawoULmy+++EKMroceeqhn4HdlHxMnThQvneOPP94ccMABztrUgPoFjwV6nRMhX2gczpw5M6o6zP7Nnj17TMWKFZ21iqIo2UE21xl07JJQMpq2hf0bPGIxSmYieAB37fZfX136jyQ31Q5vJVXAE3vOnDnml19+SUhi73RE7TfZbb9JOfB4VfwQH4kpOLYG2JgcoQIwFyQ29hOxrhIF8Zs4h1fM2VDY2LAk4kpneB+IXcu9EHtFUVIJG9+aOGNesiubIM4aMjw4PpyF58SUivHYbOzuSOKIx0K4uNmhIEY5f0PMJ0VRlEyDOpM6I1SCymyuM8LF6QsFsf74G3TmTMXG0gwX81FRCgJ3jpvgWNaZDDo/ctwrtrbab7LXfpOK6NgIF9WqVzVly5aVmD2KYnnmmWfEo7Bs6TJm4MCBzlpFSQ3OOecceTe3/rhZvBOzmSeeeEJk+M033+ysSS+IX6coiqIkB+J9U2cQGzEd0TojuTAK5Nlnn5XyiBEjZK4oqQIenXbkG9762UK3bt1Ejk+dOtVZoyipiRpeFSUMBH++Y+BdUh545x1ZEfhZSS+ILdbtku5SZtibkr5onDhFURQlUrTOSC506mLs7tSpkyTCUZRU44orrpD5+PH+DgJFUVIHrbEVJQwjR44UT8KaNWuaq666ylmrKKkFCd/gzTfflBhrSnqi3kuKoihKpGidkTyIezhjxgwxdg8bNsxZqyipRbt27Uyx4sXNunU/mA8++MBZqyhKKqCGVx+ffvqpBKH+8489snz99dfLsp0IzOyG4NVkszzppJPM4YcfYapVq25uuOEGWW/59ttv5W/vueceWWbbU089JcY7JrYTVPmWW24xx9etK8cpV7aCOeussyTQshsUK4a2MKSYc1WuVNmcfPLJchyCJrthX4YXtGrVSgLuc8yLLrpIzhcMBhoyc9rzc9zzzz9flItoILg/f1ehYiU5H0O2Hn74YbNz505nj/SE32fY8OFSHjp0qDn44IOlrCipRp06dUzDhg3NX3/9JdlMsxFk2QsvvCBlZJhbhls57AaFFNmI3EL+nXbaaRKA381w3/fvrgMWLVok58GjABkHJN4777zzRH5ynNq1a0t9sGXLFtlu4ZoYDsV2zoncZRl5jWd9oUKFnD2NJCa55pprJNg+xzzhhPrm0UcfdbbmhmtG/trzsy/X6K6P8oLA/tQn1C/UGxzjpptuMt9//72zh6IoSmZBfXH33XdLeeOmTbnqDCbqUzeR1BlvvPGG/O1LL70ky8hy6hHqDOoFjkl9wj7I9+IlSojcpS74/PPP5W8sq1atknqAtgbynf2pa6h7bP1iPV6jqTNoD3A9dl/mLHO+SKHOol617QfqNe5h/vz5zh6Zx4ABA2R+7bXXmurVq0tZUVKNIkWKmP9efLHYA8aNG+eszUyQQ8jSL7/4UpYfe+yxgPx2y2GL2m9yk6n2m5TGifWa1bzyyisSRDjUROB6G5y5ZcuWOZUqVtpvH6bGjRoHktu4AyYTnLhUqVISBN9OJDopWfJw2Yc5f1uzZs3AsWwQaAL6c07W8XdVq1aT/SjbfX2CVeZsa9q0aWC9e+IcBN22rFixInAfBx98cE7dOnVy3dfAgQOdPf2ECs48cuTIwN9wTfae3FO6Bmfu06ePXH/Dhg2dNYqSuowePVre12gSYWQSyDC33HFPNnC9Xe7evXuu7e6JZGUWkmewbvz48TkdO3bMtR/PuWvXrlJG9pFMBFlRrHhxWS5bukzOypUr5Tgk5bN/V75CRdm3SNHCgXWjRo0KnKtTp04ik+0299S/f385noVluw35zTOwf0t9sHr1amfP0Mm1qKu4ZnscZLi7fmHS5FqKomQaVscLNaF/23KkdYZtKyBn0aODZblbZ0Zmo/uTGJNl9qU9Auja9m+RydQZtCPs31IfxVJncHz3cakzrMxnvTtRV6jkWps3bw4knGWi/gg+f6Yl16IdY++VJD6KksrYbxc9MxUTA8YLkiK65U7whC1F7TfZZ79JZdTw6oMseFSktiG8dOlSWbYT2+2Hy4RCgfJCFj22TZo0KaB0WAXMfrj2A+PD4GPAOEIj3H7INLjdICytcsUxbGOZDxtlx8IHzQfBcTEKsA8TSgEfE/siRDie/SCtMGA9f8e6Hj165MoAPnv27MDH5/5IvT5c9z1yTivceSYzZ84MCKJ0/HAxmNjfjvtUlFQHBcTKsCVLljhrswfuHxnLd0sj2S3DbcZqno2VWTSMUWCQh+vWrQsoSO7sojZrNBMyHkMrso7JykRkszWwAvIPQyXb+Pv58+fL3yPXFy9e7Ozll8PIFrKHWsMr+/F3bdu2lb/jWMhnZDfruQZ7L7YhiLyeM2eOrAP2twZhGsxWmfQyvHIsW99QF9g6hr8hOzXXwTY1vCqKkmkgK9F5kXHoq+46gwnYxhRpnWHbClaWU08ge5HxXbp0kXUYWt0yG2wD3Br2bGfYhAkTAjIcaJ9wHRhbo60z6IizOgLXY4/L3DbCOS/3BqEMr/a+6Wh06xr8ne0MzCTDK88Uwwj3NXjwYGetoqQ2tnMEG0Emg7xs1bKN3OuYMWNyyXBkodpvsst+k+qo4dWFVUj4WIOxH2779u3lxQzG9obb3mX7UvNB81K7FSermAT3SlgQHGznmLbhi1LmBce1imOVSlU9r91+2NZz0zbY+Xjd12VB0WO7W9ny+nBtb3twj7oFgwLb0/HDtd5t3IOipAu2Yec2rmUTI0aMkPsPZShkGxMKTTBr1qwJbLdKiJVx9ES7jas0ZJHtKDleMpc6AoUJpcZ6uyLPQ8H57LlQ1rxAvrPdeiRZpdpLviLXreJkZbaX4ZU6iHUohl7k9TwVRVHSGTqYkHGhDIVsY4q0zrBtBeQ/DVg36OBsQ2f3wtbfVi5zjFDEUmfYDsFQ8rxnz56y3dYRXoZXDMaso71kDbpu8nqe6Yg1SvN72N9ZUVIdq/MhJzKdcPYGtd9kl/0m1dEYr1Fy9NFHe8b6PP7442VO3A83devWNTfeeGOuzKPEgAJifHhBjA348osvzOGHHy7lV155RWKZBMNx7fWUKnOEKVOmjJTdEL+J/X7c8pMs+5QwmV/So0eu67JcfPHFxqdUmSVLvjKbNm1y1uaG+CIffvihlMnyma4Ex2MBYp7wG/Fs7r//fmetoqQ+l19+ucyJXRccn07ZB3I5mKpVqwZkqVuOIwd8SpbIfouvQW3++ecf0779eZ4yl+M0OaWJIWbTb7/9Juven/u+xOHzgphcwLm8rg1qHXeMzLk2jrNixQqR0x06dJD1bjiOT/GTMgnXQvHG1Kkyv3lA+spwRVGURBNNnQGdu3SWmH8WdGnySVStWs20bt3aWZubFi1ayPyHH36Q+abNm/aLA2iJts6AWbNmy5z4hV7Y9SSQCgVtEc552aWXmyOOOMJZmxmg9wfrTcR3HDTIH+tx0D2DAs9dUVIddEC+VdrqoXTPbELtN34yxX6TrqjhNU4UK1ZM5jTGw0GlvnLlSimffFJDU65M2f2m008/XbZv/2VH4ONGESpXvrwE1icwNMpYpIaVEiVKiAHg3xz/tX27wh+o+bjjjpN5MAiC6lX9geO9gjrD0qVLZV62THlPYZEOLFu2zHTq1Mk0adwkV+ZHBBHPq1evXpK0SFHShTZt2phKFSuZn376KWzjSfGmePHiMuf7t7jLlm+++UbWv/Lqy54ynMkaPGvVqmVKlSplNmzcYGrUqCEJWZAxdPqgALnxOpfFfW1WLtc6tranIglWdtn6JhiOs9QnA6F+/foyVxRFUSLHq87wgjoDNm3a6FlfMN1y662yD8dq2bKlzKnTSaBCW+CZZ57Zz4AS7rzua6O9sHbtGlk+4YQTZB6MNeBSZ4Q67tdffy3bMq3O4Pl07fZfc+yxtQJJOoH21o4dv5i6vvr0sssuc9YqSupToYI/4RMGuqefftpZqwSj9hslmajhNU4ceOCBTik81vsJTm/V0nM644wzTJcuXcx57c6VRjreVQ0bNjS/7tolGbTJZIcyVrZsOcm0lxeHHHKIU/Kze7f/GooWLSpzL4oWPUzmoTJj//LLLzKvWKm8zNMRa2xduGiheBogFMkCu2DBAukxGjRokGxXlHQBBevSy/xeK6poRc+BB+xfJXr1Klv5h4LjJcOZOnbsKHKcbM8LFy407du3l7+hp3nEiBHS6VPep4yRiRolrFChQrI9FO46xtYjhx56qMy9OOwwK8O9s5O66yIUdEVRFCU6vOoML3Y6WaIPL1HSs75gOqdtW6kzmjRpIrp+nz59TLHixaWDDF3/iiuuMNWqVRNjivVm8qqfLF51BoSqN2ydAe793dj6JNPqDLyRf9/9hxinL7nkEkPWczKik+Ebhg0fHvZZK0oqQmcBhrtJk14I2ZmS7aj9RkkmWoskGbdiQ+/15MmTQ05jxoyR/VCyFi9ebDZu3GimTp1q+vfvL15U9MLSo8K2cOzdu9cp+SleooTMQ32UsNNRrqyrfDD2o/dyn08X5s2b55T8IBQZVgC9rrjSlCtXTsqKkk5Yr4y33357v6EzSvR4KatWLp7tayh7yW73xLDS6tWryxAlFJ45c+aYwYMHm+bNm4vBdfTo0eaee+7Js7fdDb3gsMtpzHthG/rFi/v3Dcbd+A7VyFYURVHyj5XZlY+q4llPuKfrrrtOhrQ//vjj5qdt26TjbtSoUdKZh0fTrFmzzEUXXSTHi9SYYtseGA937Ngh5WDc691tFTeHHlJY5ums+3vx0UcfOSX/M/3888/FgEIdjeHknHPOcbYqSvpAKKqSJQ+XDoXgNq8SHWq/UeKBGl5dHHjgQTKPpgEcLShNNWvWlPL7778v80ihh/n88883DzzwgFm+fLl4TIF7mHwk8NFDqA+eD/r777+Xst03GGJbAful68f7wYf7FC0LChfT0+PGSs+UCiYl3SCOUdOmTeU9dg+ZywZsz3U8ZbiXl0u9evVkHq0MZ+gnQ0iJGYvcxugKNtZ0pB41dpjRdytXhpRRn332mcxt/KpgqIvKV6goZcKuKIqiZCvBDdx4Y4fxf/XVV/uFmAkHcrpRo0ZijH3ttdfEIAjkIojmmm3bwxoVvfjiiy9kzrD6UHVRjaNryJz7yCTee+89p7Q/eMMS/3b9+vXOGkVJD/juu3b9r5SzYRSc2m+yw36Tzqjh1UWJYv54SKtWrZJ5oujcubPM77zzzrAvPZX93LlznaX9sXGa/v77b5lHyoUXXijzZ8Y/63n+sWPHSi8vxptQ8T8w7hBLkv3o3QkGxXLtGn88qVSE33jzpo3O0v4w5IhYLNWrVjNPPPGEKKuKki7YJFvjsizcAIZNGoyh4prGgte3f/bZZ8sQUBqw4YzbyBniOYWS8zYOq21ARypnUOIaNGgg8tdruBLK14Rnn5MyXlKhaHm6P5mLl0LOsb/88ktnSVEUJfMoWbKkzElolchGKCOo7CiH2267zVm7P8jud955J6SRj4Y/BgDY+090xmLCaQEhtbx45JFHZH6+R8JGCx2HwDB87iUY2i3pBvXuJwsWOEvePP/889LuIT57OG8zRUk1CFECU994PWPfXSvH1X6T+fabdEcNry7IQg0Dbh4gQYkZpkuvcrx7OQcMGCCZTWm0N216igxB5UXnI0BooBQRTJ84gH373iixhiZOnBgYNoySQGP+0VGPy7IN5hwpDJnho8TwiAHBBmDmI8bIyPXB0KFDZR6K666/zplfK3/HtdMLPnz4cFOjxtGBxC2pSKS9TFu3/ShxtshKqCjpAsoBcYr5BkN5t2QijRs3lvn8+fPFIIlctcbPWPHy/MHAO2TwYCkTD+6WW24ROYoM55ycD2UXw+pzzz1njj3mWJGLbqUQL1O86sE2iCP1eIX77rtP5pybe7WNYI7btm1bs+2nrdJIDpVBG2644QaZYzymjPzmPqhvSJ6SbR7TiqJkF4SBIfkh8rNv374SO5WJ0FOsi0Ym58VDDz0kRlPk9QUXXCDtC/RuJhrq1AfHHF1TEjPWqn2sxP9etGhRoEOO6+IauS463g4+5OCorg+jIcOOOT7Hpq4C2hYMeyUJDM/i+uuvl/VeoFuQlIXOTeot7gHPKUIbMazWJpRJJ+hgJAZjOPgNeO60y8IZzhUl1UBW4MWOQ1GmtmWxaQD2E9r3yDb02Xh3BKn9Rsk3OUqAJUuW5BQrXjyHx+Kepk+fnjNo0CAp9+vXz9k7N2PGjJHtXbt2leV58+bJsk/gyXIwa9askW32HF5Tnz59cpo3b55rnU9pC5R9CleO7yPL81wrVqyQ7ZUqVnLW5ORs3LgxxyeIA8cqUrSwHM8el/txc+aZZ8q2qVOnOmtycvbs2RNYHzxxLfXr15PylClTnL9IHbp3777fNYeahg0b5vyVoqQPyCLeX+RINtGjR4/9vmErG+3y7t27ZTmYsqXLyPbVq1fLspW/1AFe+JSrXDI5eEKuUme41yFfraxlQoZyPXmdq0uXLrJ93LhxzpqcnFGjRgWOwzHdcpx73rp1q7Nnjsgx1vsa1c4aP7ZuC558DfCcdu3aSbl3797O3oqiKJkFMjVY/jEhl91lL4LrjLzaCrNnzxbZao8bPFGfDBw40HO9Lfsa/jkrV66Mqc6gvVCy5OGBY7nbPKxfuHChs2eOlFmPLu+Ge/Cq96h7bP1bq1YtZ+/UZ+TIkfvdS6ipffv2OXv37nX+UlHSA3RV3t+mTZs6azIL5LPbpmEn5LDabzLLfpPuHPh/PnwPV/FRtmxZGaJL0hF6fclGTe8CcTlwYyebaKtWraSHPJgDDjjAVKxYUTLaEVfD9/LL37C/7yV29toH2+gZJmg7AZCZGD5K70j37t0l9p9PgZG4QvRuHHHEERKc//CSh5tjjznOnNe+nQTeZ5+8zsV2ginj/US2VChWrJjp1auXqVy5siyTUfuoKkeJGzvDTvGYckPsRDyg6J3h2dh13bp1kyFU9LaUKFHcnHzyyRK/8LHHHvMtl5S/adGiRUiX94Lippv6h0ww4IZ7YUiBoqQbyIwJEyaYlStXmX79+kacuTPdYWg9cU0JhI9MJj6eT6ESWYQsRA6SbdTreRzg296sWTPZXrhwYdnnxBNPFLnH8wwG2YxnK3UHMrV06dKmRo0axqfQiFfMU0+NNe3atTO+xppcC9dU0icXqUvwRCWp1r333msOOuigPM9FHYMHLddWvrw/GykevjbJygG+f8hg6hQ8m+h5xzPXwt8fddRRcv8MNbIgn0855RTjU1zNIYccbI455hjxhnoOT91jj5W/oW6xsa0URVEyCeQuchqZjwxnGc9O5B5yOZo6Azkbrq3AumuvvVbqCeTzkUceKXr4qaeeKuvxhsWTtHfv3hKLj32oD5D5yHtGJowZ86TUObHUGcjz3r2vlDoHvf8g31Snbl1p+0ya5B9Ob+HvaXe0bNlK2iYW7gGP3T///FP2qVK5irQdJk2aJG0mrpn7pz2QDuDltWLFCmcpNNTrr7/+ujw3RUkn+K7xuF+3bp3YGLzkRTqDPMOmgTxlQs4hF9GPkaNqv8kc+026cwDWV6esKFkBoSOqVKniLIWG4VY25pWipBsMaWHICNlMp0yZEohNpCiKoiiKohgxtv/000/OkjfNmzc3M2fONEWKFHHWKEp6QYcOIVQwrg12QmUpipJcNMarknV8+OGHTik0PXv2VKOrktbQU9qtW1cpP/vsszJXFEVRFEVRjMRIzMvoimcbBis1uirpDF6SQGImGzdaUZTkoo2PsdkAAKZtSURBVIZXJet47733nJI3Xbp0kcyAipLuWEWLLMkk5gCCwBMQnhAqJMRQFEVRFEXJNubNm+eUvCEpEfqTO2yPoqQjDEFnqDmJmebMmeOs9SebZlj8ww8/7KxRFCVRqOFVyTrIwhoK4nyRgRBvQUVJd4htxBA5ereHDRtmbrrpJollRHw2Mhv/8MMPzp6KoiiKoijZQzjDK3HN35szJ+PiYSrZycEHHxwIOUYOgCFDhphq1apL/FDavcuXL5dtiqIkDrUuKVnFjz/+GDKIPoHzX331VamcFCUT+PnnnyXIPIwaNUqC6zOsDkMsnQsbN26UbYqiKIqiKNnEB/M+cEq5qVSxknn//fc1sYySMTDajSRQgOPFHXfcITkgbNiBLVu2yFxRlMShhlclqwgV35XMg2QrVaOrku6gRBFCgGyeZDJ+/vnnnS25Yb/Nmzc7S4qiKIqiKNkBiXY3bNzgLO2jfIWKZu77cwNGKkVJZxjlSRb+UqVLi7E1FDYcmaIoiUMNr0pW4Y5rY2nQoIGZMWOGBs5X0h6MqU1PaWrOPfdc88orr0gPdzjU8KooiqIoSrYxd+5cp7QPYmDOnvWOOfroo501ipK+3HDDDaZZs2bmqaeeMr/u2uWs9WbjJm0PKEqiUcOrklV8EBTPicD5GF01cL6SCRA+YPgDwyP23N66datTUhRFURRFyQ6I7+rO51DM1w4gkVYdX7tAUTKBgQMHmrKlIwuXsXXL5kDYAUVREoMaXpWsgXiXS5ctc5b8gfNnv/uuxnBSMorTTjvN3Hzzzc5SeDau33+YnaIoiqIoSibDEGxraCpStLCZOWOGjIBTlEyB9u2E5yY6S3lDHhRFURKHGl6VrAEly0Lg/Pfee8+UK1fOWaMomcM999xjGjdq7CyFZtt2f6ItRVEURVGUbMCdaJcRQm9Nmy65HhQl0zjrrLNMv379nKXQ0BbQOK+KkljU8KpkDTaeE8MuCJxfuXJlWVaUTIPhc5OnTJahc+FA0dIebkVRFEVRsgWbaBej66uvvmpatmwpy4qSiQwdOtTUr1/PWQqNGl4VJbGo4VXJGj744AMJnP/e3DkaOF/JeKpWrWqefOIJZyk0qmgpiqIoipIt0B6gg/q5554z7dq1c9YqSmZCB8OUKS9JSI1wbNmyxSkpipII1PCqZAW7du0yq1atlkRaGjhfyRa6du1qunfv7ix5o4qWoiiKoijZwkcffWTGjh1rOnfu7KxRlMzm2GOPNSMfethZ8kYdMRQlsajhVckKli5daqZPf8s0bNjQWaMo2cHjjz9uqlat5iztjypaiqIoiqJkAzhi9OrVy/Ts2dNZoyjZQe/evU3Hjh2dpf354YcfnJKiKIlADa9KVtCkSRMNnK9kJcWLFzdTpkyWYXVeqOFVURRFUZRs4LDDDjNXX321s6Qo2cXTTz8tCaa90JwPipJY1PCqZAWhjE6Kkg00atTI3HPPPZ7fwcaNG52SoiiKoihK5qLtASWbOeKII8zE5yZ6fgfqiKEoiUVrH0VRlCzgtttuM82aNXOW9qExXhVFURRFURQl82nZsqXp37+/s7SPjes3OCVFURLBATk+nLKiKIqSwaxfv97Uq1ff7Njxi7PGSNzjxYsXO0uKoiiKoiiKomQqf/31lzmt+Wlm4aKFzho/e/fuVa9wRUkQ+mUpiqJkCZUrVzZPPz3WWfKzZbN6vCqKoiiKoihKNnDwwQeb5yc9b4oVL+6s8aOj4BQlcajhVVEUJYu48MILc2Xz3bRZYzopiqIoiqIoSrZw9NFHm8cefdRZ8qNxXhUlcajhVVEUJct41Kdo1apVS8r//vuvZjJVFEVRFEVRlCyiR48epkuXLs6SJtxVlESihldFUZQso0iRImbSpEky1Ah0aJGiKIqiKIqiZBdPPfWUqVq1mpTV41VREocaXhVFUbKQBg0amPvuu0/KmzdvlrmiKIqiKIqiKNlB8eLFzaRJz0tSLfV4VZTEoYZXRVGULOWmm24yZ555phpeFUVRFEVRFCULadq0qbn77ru1PaAoCUQNr4qiKFnMhAkTzD///OMsKYqiKIqiKIqSTdxxxx2mevXqzpKiKPHmgBwfTllRFEXJQv76669AvFdFURRFURRFUbILbQ8oSuJQw6uiKIqiKIqiKIqiKIqiKEqc0VADiqIoiqIoiqIoiqIoiqIocUYNr4qiKIqiKIqiKIqiKIqiKHFGDa+KoiiKoiiKoiiKoiiKoihxRmO8KnHj559/Njt27DD//vuv2bVrl7PWmEKFCpnDDjvMHHTQQaZEiRKmePHizhZFURRFURRFUTIF2gA7d+40e/fulbaBm5IlS5r//Oc/0hY44ogjnLWKoiiKktmo4VWJCIypX375pVmzZo1ZsWKF+f77782GDRvMpo0bzfZfdpjNmzY6e+YNCleF8hVMufLlTOnSpU21atVMzZo1zTHHHGOOO+44U7VqVWdPRVEURVEURVFShVWrVklbgPny5cvN+vXrzdatW82PW380mzZvkjZDpJSvUNEceXhJU6FiRVOpUiVz7LHHmho1aki7oG7dutJmUBRFUZR0Rw2viidfffWVWbBggZk/f75ZtGiRGFr/+usvZ2tiKVa8uDnep2w1bNjQNG7c2DRt2lSNsYqiKIqiKIqSRNauXWs+/vhjaQ989uln5utlX5nfd//hbE0sBx98sDmmZk3TyNcWOOWUU0yjRo1MvXr1nK2KoiiKkj6o4VURvv32WzNnzhwze/ZsM3fu+2bHjl9kPT3N4XquixQtbMqULmfKliljjjjyCFO0aFEZPkR4ATd//vmn+f3332X40U8//WQ2bthsftmxPU9jru3prlLlKNOqVUtzxhlnmNatW5syvvMpiqIoiqIoihIftmzZYmbNmmXmzZtnZr0zy2zYuMHZEh6MpIeXPNJUrlJRQgjQFvBqD/zzzz/SFti9e7f5efvPZuuPP5oft22J2JhbsuThpmXL002bNm187YJW4iGrKIqiKKmOGl6zGLxaX3rpJZlWrlzprN0f2+Ncq3Ztc/LJJ4uSU7FiRVOlSpV8GUAx6K5bt85s2rRJetS/+eYb8/nnn8vQpXDXA40bNTbdunczHTp0MJUrV3bWKoqiKIqiKIoSKYQKePXVV83kFyebxZ8ulnWhnC4IAUA7oH79+uJ9SniAChUqSJsgP2EBMPgSwuyHH34wq1evllF3K7/7znyzfHlYB5BatWqZCy+80HTu3Fm9YRVFUZSURQ2vWQYhA1555RXz3MSJZumyZc7a3JQqVcqcfvrp5rTTTpOh/sRYKlKkiLM1ORCMHyMsw5vef/99s3DRgpC94c2bNzfdu3c3nTp10kD9iqIoiqIoihIG9OxJkyaZl19+2Xz44YfO2twQ+uvkkxqbVme0kLBfGFuTrWczWm7p0qXSHvjggw/kWhk550XdOnXM+R06mJ49e5rq1as7axVFURSl4FHDaxZAT/HMmTPNY489ZmbMmOGs3Qc91M2aNTPt2rWTYTsNGjRIuWD2hCSYO3euKFxvTJ3qaTTGMxcD7DXXXCP3oChK/KCRRsfNjz/+KF7qZCymvGPHDtlO44iQIoceemigo4bsxXjFH3744aZcuXJSJokeww8VRVEURUkun376qXniiSfM888/7xnuyxovrQMGunUqQZsGxwxCIbzxxhsSe9bLI7Zt27bm2muvNWeffXbKtWkUJZ1B32d0Km0AvNRpB9AZ8ssvv0goERteENlx2GGHyd8wL1u2rLQL8JCnA4fOEdoGipItqOE1g0HojRs3zjz00Eizdu0aZ+0+8BS96KKLTLdu3dLOUxSB/+yzz8rQKDKrBkPP/A033CBesKpwKUrkEPaDhHqEIlmzZo1ZvHixDPsLN9QvWvgmyVpM6JJq1arJ8ECSZmgSPUVRFEWJL9Tfr7/+unlg+AMSSiC4Pme4/n//+19xXkg3T9G8PHerVq1m+vXra6644oqkj95TlHQGwyrtgSVLlojjxZdffmlWfLs87sn1KlWsZBqc1EAcMwhjQnuA0bbaflcyDTW8ZiAoIXi3jhz5cCBJlgUF5Oqr/ycGyUwZhkOlgNI1ceJzue7XGnfuuOMOUSZVgCtKbmh8EUcNb3K8RjCyhhrClwwIc9KkSRPpFDr11FNNw4YNU87bRlEURVHSATxaX3jhBXPfffftlzuB+rZr167mkksukbo2E7Dh1J544sn9HE5IytW//03muuuu01E3iuLBsmXLJJwH3uQLFy4y69b9EFeni0ihvX5o4UNM40ZNxEGD0bi0C7TjREl31PCaQeDhOnLkSDNixIP7GVzPPPNMc/PNN4vwylQDJPc/efJk88ADD+znBYvBeciQwaJkKko2Qw82oUemTZtm3pk1y/y6a5fIhFDKle3AOProo8U7lSFCDBcifEDp0qVFESpcuLBMlt9++00afHyT27Ztk+FHhCfYunWreNEuX74iIoWO+HKtzzjDtG/f3pxzzjn5SuanKIqiKNkAdSv68MCBd+xngCSUwE39+0syqkw1ZHD/s2fPNsOGDZOOZTfoFXffdZe5+uqr1ZCjZDXo6Hwnb7/9tpn21nSzedNGZ0to8E6teUxNSbJHG4Bk20ceeaSMnCWMAG0G5pY//vjD7NmzR9oFu3ztDZw7aIfY9gAJ9L5budIz7IkbnDBObdbCnNf+HAmNSJtEUdINNbxmACgYDLu/4867zNYtmwPGDIQUitWtt95q6vgUrWzinXfeMQ899JCZNWuWs8ZvQDr++Lpm1KhHJW6VomQLKDlTp041z4x7JmzG4rKly5jGpzTxfSfHi+cpww/JVJwIr1OULJQuwhiQNIOhTHjfhvK45fvlmvBeJ4OxGmEVRVEUJTcYGvv2vdFXp37lrPFjHTBat27trMkO8OIbPny4GKLdxp2yZcqb+4YOlkRcipItYGx96623ZKQoThihDJ5FihY2TRqdahqcVF90bwytGDsT0VlBe2TdunUSRpC2gD+59ieeYRItXM+ll14qIVI0kZ6SLqjhNc1hmP31111vFi5a6KzxGyh69eolQ+wrV67srM1OeD533nlnLgMsEGoBw2y2Px8lc0GRQakaP368efPNNz2VK4Ya0hg744wzJJFGKigvDBWcM2eONB75br0Msci4888/X+ScJs5QFEVRsp3169dLbgNiubqhjh8yZEjGhBOIFZ7P4MGDzdNPP52r47lxo8Zm1KOjJK6komQqJNWjPfDc88+b3b/9tp/zBYbWFqedLu2BNm3apESM1S1btkgYNNoCs2bNDmmIJQwBHSiZ7MWvZAZqeE1T8GDDoPjUU085a/x07NhRenbVBT83GHFuu/W2XAZqvPjuuusu8QDQOJJKpmBjPD855inPYUP0Ep933nniNUovdiobLVEMP/roIwmLQPbi4Bh1UL5CRfO/q3qb//3vf+oFqyiKomQVdKoSYuu+oUNyJb3B0Ep7oGXLls4aBfCqGzBgwH4Gagw3Q4cOVT1CyRhsCL6RDz1kli5b5qzdB84XhPLCdkAowlQ3WuK9Pn36dPPaq6/las9bMB5373aJ6devnyTpUpRUQw2vaQiZ/K+7/oZcRpUGDRqYRx99VLL5K95gxHn++efNwNsHmg0bNzhrjalfv5555pnx8gwVJV2hMUHji7Ajwd6tGCd7Xn6ZDMlJ57AjKF0vvviieXrsM2brj5udtX7oPLn44ovN7bffrgqXoiiKkvEwJLdnz8tzhRUgBuOQ+4ZoUtk8IMQRibZ4hhYMUU8++aR0TCtKuoIDxhNPPGEefvjh/UaNYZy8uMt/ZZg+SWzTVUbgDYtRedzTT3salfH0HzhwoIYWVFIKNbymEQSl7t27t5kyZYqzxh8kfsQDD8iQW1WwIoMewEGDBkmFhIGK51aoUCHxfL3nnnv0OSppBcPniOOMAhI8dIgA9FdddZUoIJnk1c13++6778qQwWCvFSCJHkMrq1at6qxRFEVRlMyAup4RW3S22o5WdNf+/fubu+++W4fbRgjPkc7qG/v2lUSjli5dusiIwuK+NpaipAvYCfByH/Xoo7neZyCkxv+u/p+54IILMu69JqzguHHjzPOTnsvl9Q84pCEn1TFNSQXU8JomfPDBB+aSbpeadRvWOmv8RhUEjQ6LiY2vvvrKdOvaNVdPGYKZgONqsFFSHcKN3HbbbeLF7fZwpTPmqt69xeCaDSFH1q5dKwbYxx8fbXbs+MVZ62+E4vFDVuNy5co5axVFURQlfaHOu7jLxZIo03a21q1Tx0yYOFFHbsUI3nNXXnmlJB2y4Dk86YVJ6jGnpDw4FBFibPCQIbkMrujBjAQj9nM2xDDG8DxhwgTz0EMj94sHS8gVHK7q1avnrFGU5KOG1zTgwQcflHhEVsEqWfJw88gjD5sePXrIcjxAWM2ePVsCWC9cuMBs2bTFbNv+034edAUNw4DKlS1rGpx0kmnRooUYn/NjeMZghZer22uA5zt58ovmrLPOkmVFSSVQsEaOHLlfPDfe22uu6SOyIhu9NGxs25EjHw4YYK03O8ON8ARSLyBFURQlXXnnnXfMxRf/N1cdRwcs3q/xGtWC3k+CyxkzZpjFixebVau/N9t/2pargzcVoJOZ9gBJgJo1ayYJN/Pb2Txx4kRzww035nq+GGsISaAoqcgLL7xg+vXtnyv8FrIAxwN032zM+I+swinl/vvv3y83BLGcGRGnDhlKQaCG1xQGAwsCwh1agMx9eGTGKxs/MRMRTK+9/qr58489pkaNGnKO8uXLm4oVK5oDDzzQ2bPg2bt3r9m2bZvZuHGjZGckLhNKEQZShlrnp1eaYQpdulycq4eMcAQos4qSKpBgipAYbkWCxsf1vkZBthpcg6ETiYbSiAcfzNXzX6VSVTPqsYelcaYoiqIo6QLGUDLyE0bAgkfmlJemxG0ILaNobJx44kKWLV3GnN6qpRgzcXpItY5L2gNc89dffy2ZzzG24PGLd19+4tsSvqlbt27mww8/dNb4ExdjyNHOWyVVYNTmtddem+s95Z2/7LLLstbgGow1wN577+Bc7Xvi3N4z6F7Tt2/fmOWEosQEhlcl9Vi3bl1O3Tp1MIoHpgEDBuTs2bPH2SN/7Ny5M6d37945PoGTU6VS1Zxhw4blrFmzxtmaHmzdujVnzJgxOT5FS56PTzGS5xYr27dvz2nfvn2uZ96uXbuc3bt3O3soSsGwefPmnC5duuR6Nw8++OCc66+/Xr4DZX94LjwfZJz7uXXq1Cln48aNzl6KoiiKkrqgr7dt2zZXPcYyOms82Lt3b86IESNySpY8PKdY8eJSby5ZskTWpwvo6VOnTs0588wzpc6vX79ezvz5852t0cO90+ZyP/NatWrlrF692tlDUQoG7AADBw7cT7el/bp06VJnL8UNz2zkyJEi49zPrGHDhjmfffaZs5eiJB41vKYgCxcuzClbukxAMCAopk2b5mzNPyhUVatWyylStLAoW/Ey5hYUKEiTJk3KKVumvCiNKF+xwrEGDx6cq0JDgcPwpSgFwSuvvJJTqlSpwPvI1Lx5c1WwIoTnxPNyPz/kxJQpU5w9FEVRFCX1QPe0zgVM6KY4SsTLKEoHZcuWLeXYOGPEy5hbkNCG4pnxrNDn8wPtCfQF+/xpm+XHoKso+YH2O05ZvNu2nUp7Pp42gkwGedezZ8/A98zEcxw0aFBadTQp6YsaXlMMhCcGUSsQ6GGNp4Fl+vTpcvzGjRrnrFy50lmbGaAw4s2GEB01apSzNjZmzpyZq2esfIWKOStWrHC2Kkriwcsl2MuVd3LChAmqIEQJz2v8+PH7GbB5vpnQ0FQURVEyC3T/ShUrBeorDIDopvGCNgBGG/TbefPmOWszAxxKMKbQHujRo0e+dCZ0f9pi7t8hPw4eihItvL90IjDSzb6HlPF81VGZ0YO8Cx5VTGeNtvOVRKOG1xQCzza3UMVLK55GgTlz5sjxM3n4PJWTHR40duxYZ21sWM9g+3vQ07148WJnq6IkDt6zmjVrBt49JoyEGlYgfyBPaYS5nyvPGQ8ZRVEURUkF0D8xiNp6CgNsPJ0wCMvFMTEo5idEV6rDyBaMr3i55cf4iu5gPYOZaEvpqBklGeD17n73mJo2bSoyQokdOmeCjdl0qjCCVlEShRpeUwQ+dDtsgKlr165xDQFAzzbecsSFSvfQApFg49fi4ZsfqPAINeAWymqkURLJ6NGjcykCeGni5arEDxpMbu9XZAXPXVEURVEKEnRM9/B2PLHi2emK4wXeXnQ6ZkO8c9pXPEdCNOQH2k60zezvwjRu3Dhnq6LEn9mzZ++nq+Llmg3t+GSBo4vb+9V21OgzVhKBGl5TABr8bqMrge3z0zMbDMcigDTemwxfDgVGRobqd+/e3VnjDb3u7Md1Agohyygk4SB5F/thFPWCIVQIOwQg3qUYirlmjMUoTOFCI+DlSmBxC/dMkH2Ok1+vYZ6ZO0YkCrHGeFLiDZV8sDcmvdqZ7I1SkNDgDI79yvNXZUtRFEUpCNAt3UZX6qhwenss9OnTRzp38/KYQ1dHZ88r8S77MFld2/5dXomoaGuwn1cOBa6tf//+EhYNz1yeCXOeB+vD6eAYWtH/3W0Gm4wov7o7bQuen1tv0E5bJREQMs9tG6A9rI4/iYHOKOSW+7um/aWjDJV4o4bXAsb2xNoJhSLeWOGdl8KBksI1oOCEg9go7McQJUApY5nYseFAkWI/lCc3KGcYhtlmj0NPvHuYlZ1Q0oLhvlAig8+PYYV7CWXojQaEsjurLMeN57AvJbuh4UEDw/2uIwvUCJhYeL7BmYv5HbwagoqiKIqSKPC8chtd0TnjHRaMc3BsEuvmBbo6++ZloLXXa40UNkRXXqG57L26DaTcLwZZe0zaLhyPyT0SiAknjeC6Gr3fhmlyn986oPA38XBswZDrvhYdnqzEC/TS4ARQOBbFM/Sg4g3fsTvPDjJQQzoo8UQNrwUIwdndvVn9+vWLi0LgBiWGbP94cuVFQRheCWRtk1ihFDGswv0MqIAwrGI8RenCgxU4Fuvo1bbP0Ov8KJdsj4fXIM+S83EuJq7FrTAqSizw/bjjufIeqxKfXIiv7W7w8nvot60oiqIkA3Rh95BiYjrG2+gK5HigfoukUzdaw6s1gsZqeOV+rRMGjhckxHR7+9I24DkRl9E+K5b5O7xQO3bsKMe0bYLg89OWYFu8YrPSZuM8TLRPNLO8kl+C25lMOAfE2zaghAZ5Z2UfEzIlnkkNlexGDa8FhE10xUeNIhAPr0wvUFw4RyRGhGQbXqlIbFwVlMG8FEGuz3q8ouBg+GSyCpjX+anE2I6CFA84nnt4MgpmNsTIUhID3wTvsH2f+DY+++wzZ6uSTHjuVSpVDfwWyA0d1qUoiqIkEnRId0OfIa7omvEGIyXHjzRmfLINr3aobyR6NQZZvAL5WzwBbXuAKZThFTBqMaolXrjDDtAGUZ1BiRU8xt0j37ARaAK3goHfwt3W57dQhxglHvzH90IpSWbVqlXmggsuNH/99ZcsX3zxxeaJJ56Qcrx58cUXjU/RMEcffbSzJnWYPHmyWbpsmSlVqpTxCTTjE2zOFm+4h5dfflnK7dq1M1t+3CrT6tWrZZ0XRYoUMT169DATJ040//77r7M2djjeW2+9ZerWqSPLa9euMeedd575/fffZVlRIuWDDz4wpzZvbrZu+1GWa9WqZT7+5GPToEEDWVaSC8/9k4XzTf369WT5p59+Mi1bnS6/k6IoiqLEG3RHdMgNGzfIcuNGjc3s2bNF14w3zz33nOjbtDlSjbVr15qnn35aypMmPW8qVKgg5VAUL17cjBs3TtoFRxxxRKA9wHT88XWdvfanT58+ZuGiheb777931uSPRx991HTt2lXKv+/+w5x77rnSxlOUaNi0aZM59dRT5d2EYr73GznQuXNnWVaSS5kyZcy7775rOnbsKMvYa7p162YefvhhWVaUWFHDa5LZtWuXOeecc8yOHb/IcsuWLc348ePNf/4T/58Che799983HTp0cNakFlOmTJF5z549RYlKFF26dBEjyoIFC5w1+YNrfXvGDFOpYiVZ/vzzz0337t2lrCiRMHfuXNP2nLPNrz55AE2bNjXz5883lStXlmWlYKCx98EHH0pnFdCQatOmjXn77bdlWVEURVHiBbojOiTUrFnTvDntzYQYXeHd2e9K+yMvJ4dkQ/tn6tSp4hyB4Rl9KFFQn3P/06dPd9bkD66dNhxtOaCtwTOmracokbB+/XrTrNmpZuXKlbJM2/KTjz82p512miwrBQNy4pVXXjHXX3+9s8aYvn37mgcffNBZUpToUcNrEkGpoKfZCle8JlE2EqUEffrpp9JLE63w3vPnn+aOO+4IOY0dO9bZM38s/MRvCG3VqpXME0XDhg1NkaKFzUcffeSsyT8YyKa/PV16JeH111+XZ6MoeYHRtd1554pRDzDy0bON14ZS8NCxMm3atFw93Rd17iS/m6IoiqLEgyFDhojuCOiSdPDhaZUIMAQu/nSxadasmbMmch555JH92gHuKb/QNrKOES1ObyHzRIFRu3HjxtLRHS9ow9GWY9QS0Mbr2KFTXEbZKZkNnq6nndbCrFv3gyzT+TL3/bmmjjOqUilY6FhB/g0aNMhZY0z//v3V81WJHSfkgJIECAjPI2cifmA8Ej6FY+TIkRLrKNKg3MRKstcXyZSfGK9cE2Wub+nSpc4esUGsp7zOT9ycRMTRnT59eiCeFHOWFSUUxP/iPeV9YSJrcSRJLpTkw+9CJln7W2n8NkVRFCUeoCvauuXggw+WvA+JhHinnCuvuKtu3HFnI5lijfG6evXqQDzF0aNHO1tjp379emHPf/311wfaL/GENhRtO87NNHDgQGeLouwPcYzdiXV5JxNtF1Bix23DYYqHrFKyD/V4TRLECrnrrrukTA/KSy+9lPBhxT6hbiqUrxB1GAO8Q3GvDzW5e35i5Z9//pE5PcKFChWSshviqFarVn2/6YQT6jt7REeFihVkOEe8YUjR0KFDpcy9dOvWXXowFSWYZcuWSfwv6+natm1b+Z4S5fGu5A9+F2JKE08abPw2fkdFURRFiQV0RHRFC20DO1Q9UdAegLJly8o8GkaMGLFfO8A95Rd0571790r5wAMPlLmbH3/80bM9wPTtt986e0UOXsVbtmx1luIH8WZfffXVQJsLj2bafooSDB7oZ515ZmAELJ6u7733noYbS2EGDhyYy/5x7bXXii1HUaLhAKyvTllJECgN9eoeH0iigxJz0003STmRXHXVVebj+fPN10uXOmvCQ0B4hD9Dnnbt3Oms3R+SzbRo0UKG1SxfvlyC4lerVk0Mtrt/C51kijhWJ510ksSvWb9hvSleooTEuJw3b95+4RBQXnpceomz5AfDB4kBtm3b5qzxQwVWwnescOcnKPYvv/ySkFiNKI2dOnUKDBkjtAHDmNSgpli2bNliTjmlqSRjg+bNm5uZM2cmLJZbJPC90wDke7KNnlSAhhdhF2gc1a5dO+qOo3hDqIGzzz47EGqgatVqZuHCBQkbEqooiqJkJuiLrVu3DtQn7du3F90x0fXcCy+8IHrwTp9uH2lOhcqVKkvSryVLlph69fxJJ7044IADZL5582ZTrlw5MYii6yxevFj04VDYNgDGJ2In4nCBYcM6qVjE8Fq9qrPkx3ZgL/W1b4KHZeOgsWTJVyHPTzLjW269NWw7Jz8MHz7c3HLLLVIuX6Gi+fKLz1VfUAIE65S0iUmsW5BGV9ooJJyjPbBnzx5nbWpA+758+fLSsVGQbSbLDTfcYEaNGiVl2vkffvihadSokSwrSp6I36uSUBhO7FOqxDW9Xbt2EQ/9zy8Mp2EYQ6TYUAMM/wnHvHnzZD87VGfr1q1yf0zhYJiu++8Y/s/ysGHDZDkc9toYxhNMJKEGunTpIr9Doti+fXtgeBWTDjFSLLt37w4MfWPiveedTTZcx6RJk+RbKFny8MD12G/XLqfShCw688wzc8aMGSPfWEHBs7Pyioky6xRFURQlUtB3bT2Czpiseu2VV16Rc9pwAJFgQw0QJiwc9n7ssevWqSPL8+fPl+VQEGLB/t2AAQOkHKmebq/NK1RZXqEGCMOWVzsnP9DG4z64BqZWLds4WxQlJ6dnz56Bd4M27YoVK5wtyYN3lPAmhOCrUqlq4HpSeUJeoHsz5J/wJAUJz81eF78hNgpFiQQNNZBgnn76aTNjxgzp5abnc8KECUnz4JLhNFvjP5wmmJIlSwbCBdAzHQo71L906dIyb92mtczJCMrzSSR4u0bayx8LeOhNmTI58NsSfsBmqlWyG5+SJd4XgEc5WYsT+S4G8/vvv8uQt4oVK4nHi09hMddc00c8bvEWwUuFXm5fAzBlJq7LpxSaOwYONH///be57rrrpMf7mmuuCStjEgW97PxueCbAwkULzZVXXillRVEURcmLr776ytx2221SRldEZ0xWUk30bs5J/ZpoSjvenegWofj555/F849r4hngAQjvvPNOQsKCufnpp59MiWKJ08G4p+effz6gL8yZO1vagopCRvxnnnlGyozSnD59ujn22GNlORnQ1sb7vUaNoyWxNSNY27U/R0KG4NlOSJJgfbygJzziGUVKQivCBg4bPtx3/TXMeeedV2Chvx599NFAeBjkSccOHWT0raLkiWOAVRIAQbLxwuQxM02bNs3ZkhxsDzceqZEQq8crWG+wUaNGOWv2p1OnTrJP//79ZZnA4rbHe9CgQbIuFPn1eC1bpnxSvFC5D66FiV5/TZyU3eBZYd8Hvqv8JpKLlpkzZ4pnCN8ZHvDp2iuLDMNTCE9dpnHjxjlbkgueP/yO9jeNxFtfURRFyW7wMLOeoEzJHhVFe4Tz0i6IlFg9Xq33aseOHWXZCxLTsE/Dhg1lmedjPVUZ5ZLXyMD8eLxyXZwj0cyePVuug4n2CW0eJXvBw9S2eZmmTp3qbEkO6P+2rc43kJdHeqrCaDPaAIzo/c9//iM2hYIYgYbtwS3TkzmiWUlf1PCaQPgI7QfJ0IJkE62ilR/DK0OBWVe2dBlP4w5GZwQk+7gVJQy1rGMbhqFQQ7BRoNgvFsMryg7Hj0bhjBUMrSiSXA9TXgZlJXPhO7HvfLLePzcYBTkv2YLT1eAaDAbY7t27yzPt0aNHgXRsuLNR83wxbiuKoihKKNwZsQuqU57QBhhFIyVWwytDp+06L+MS+kj5ChWl/nQ7axCOzBqmMIyGGk6MkYW2APvFYnjlb5Nl+HYPSdaQA9kLuivtY/su9OvXz9mSHGiD07bHWEmHQCaADEWuIjOaNm0aVRiVeLFmzZpczhhcj6KEQw2vCYJYivZDxNtyewHFJ8Q4SsUfCfkxvNLLg1LBeoQgcSRRbJhatmwZeBZeyg6CyhqoOHf79u2lUmLq2rVrToMGDQLbUQThs88+k/tiwgDDNvax65isEEaxY1uy4mqiCFrlkTmCWckuULJso4UpmsZOfuFb5P3nvBj+M7EHdsqUKdLRgmwpiAas27OdRlxBKHyKoihK6oNu7dYJ8zJkJgp0ZYy+kRKr4RXcdST1tG0P0Dawz4JO4WD9hI5NG4MevZ19cMpAh+L6WbYjCdmOkRdDrFv3t3+PV59dR7sFaDuwzS4nGtod7vwPye6AVwoe3nF3O5i2cjL18vHjx8u3wqjTTMxNwDeNrOI7w+Es2SCzeL78tszxbFaUUKjhNQEg2OjNtUIWI0FBgaKDEhKJ0TE/hlfAAIJy5O79sRNCcezYsc6e+4PgRCHz+lsEGb3fEyZMCFQaKC/B+wVPNmA5vd94HycTO9SKCUOykl24Eyt4NS4SCd885w33vWUCyCEaYHxfyTYucz73iIZkDFtUFEVR0g+3PuDlfJAsrIEg0iHG+TG8AsOB3R3QdqLeDjc8mFFqbMdpxf131riBTj9ixIjA0H0cW9z7eU2MyoM+ffpIZ2kydQa8De118Dwy0filhMbq5EzYBiIN/xcP8Djnu6HzIdl6cjLB4IrhFY/egnB0cydN5DcuKGc7JfVRw2sCcPf0FnSDHG9LhG642KvxBgMsQ4ZQNhiGiwdopAKf/difHiP+lqFC+VFSbIylZA8H5prdvdyZMrRDyRsMnvZ3p9MjmT2wtkOC2LKpDooJnSM06nhGsSiFVqlMpkexRYaOuRqGxKxTFEVRFIs7zmdBN8ipYzFM4PmWLKxOjw5Om4C2QTSjVAg3QCcrRmMMxvl5ftTZOHcUhPHb3VFbkMZ3Jbmg31oPb6ZkekPy3dHJwfcei36dTGgz4/yFExbffCwj2fh7OlWwuyT7fjmf26sZRzJF8UINr3GGHlj3MBgEQUFDfFliy2RbDwyCkDAFxH4pCNzhJjTRVnaAAdHttZ1Mgz/eJpw7Lw9rlBqUEzoGwkEjh/0Ixg/cG8tVKlWV5VCg7LGf15BGrhEjKY0/+4zshNzEMwgvmVCdLXgPY8x2Q0cXspYGXbJBiXZfv/WyVxRFUbIbdFB38hVGbRU0dthxuibWyQ94u6I/FERbCN3AHW5CE21lPrT5GBlqv/9kGtyRPeju6Np5OS8ho9DZ0d3DwT5M1mMXz3OW8/KIp63BfsExm3k+OIWRFwWZZJ8TE8tcP6EIQ4Xy4nnyLWGstdiOrmQ6m1n4pm2YEyYNK6J4oYbXOIM7v/3oqORTAYQWwiCZvdypgHX9LwiDjAVDkX0f7FAnJXOhp9X+3siCZEIHC8pNXo2KWEOK4D3PMgbGcKCEsR9D6tyghFijNMfgWXHNxHF2x21jQll0g4Jmv+fg87MNBbCgOliIP2evmx5vRVEURcHIaesG24FZ0FiDDPV6fkaTpRvoMxhzCsIgYyFvhX0fiFerZDbWMMjvjY6aTOcbK3t47/Mi1pAidlRnqCR2Fqv3ux3RMPJaBwxrZOWbYKJt4E5ExvZgoy0e8Pa4ween7cW2guhgcYdBpD2WrNwySvqghtc4glCxvTZ89MmM45IXxJnlurJlOCy9XvwWyc4cGYw1XjFRSSWz4lWSi9vDGUUmmRUu3qi878Q9y4uCMLy6Y5xhqPR6NjQCkVMoYyhdgEcpy26jrNf58SxmW0EEtee63WFF8NhVFEVRshd0PWvQYEolD1PqaOpROj0xxGY66EeEeUh2UqNgMARZYxFTKoyIVBIDv601uqKb5+VNGk94x9GbI80vkmzDK20JjJKs45sMNqpaaINYZxY8xmk34J3r9iplCj4/thfkG6PhCgKeu722VHHAU1KH//heDCVO3H333ebff/+V8vXXXWfKlCkj5VSgc+fOZsCAAebaa681EydOdNZmJh988IE5v0N7c84555gHHnjAWVswnHbaaaZt27ZSXrt2jXn22WelrGQWu3btMv369neWjHl63NOmePHizlLiGTNmjO98JcyVV17prEkdeDaXXNJDyj5FyDzyyCOez6ZIkSIip3wKqhl45x2yrmjRoqZBgwbmvHbtTceOHWWdF2eddZapX7+eefTRR501yYPrHjv2KWfJmJtu6m9+/PFHZ0lRFEXJNtD1Nm3eJGV0wKZNm0o5FahXr54Z+9TT5oUXXjDX+doqmcz69et9engLc1jRIublVyab//yn4Jq9RxxxhLnF1w6z14A+pGQm11xzjfnrr7+kfNttt5k6depIORnMmTPHrFy50txyyy3OmtTiip69zU8//WTOPPNMM2PmW6Z69erOltzQfn7nnXfMpEmTTLFixWRdnbp1ffr+maZLly6mWIg2FraXyy693Dw55qmATSaZPPHEE6ZI0cJSHj16tNgkFCWAY4BV8on1OOOR0ruTivFU6QVjaC/XyLDdTOzptsOZGbqcKsOoiD/DM2ciPmY2eBhkG+7h5gURVJ1e4EhDGyTb4xUvXHuc/Lz79HaHOz9DCJHBBTW0h1AuXB/XgJxVFEVRsg/qOfcoiLw8wgoKEoFSX6GzZGLYAXRvfgd0kVTxLkU/sd5+PPtUuS4lfriHm+N5muxvC/3T6u2RkEyPV/alzLuP3SQ/EL4h1Pltu7ugRhqQ4JjzM3Gd2u5XLOrxGidGjBiRy9uVns1UwyfojE/RMgMHDpSesPPPP196gzMBvOroYezUqZNpfcYZZubMmeKJlgrgsdeuXTspr9uw1vgqZSkrmcG3335rHnvsMSnTy5lsL+tNmzaZpcuWSe9xKvLGG2/IvFevXgn1NunQoYPI4Llz5zprkguevPTAcw14O3311VfOFkVRFCVbmDx5soxwAurlhg0bSjnVoE5+8cUXzbS33jSNGzUyixYtcrakN3ga4nXW/LRTxdP1408+NkcffbSztWBhtI/1MkZXKIhROkri4N278YYbnSVjHnrooaS2RXmn5syZG2hzphpvv/22zBmlVrlyZSknghNOOMGUKlUqcL5k06dPn4DcX7LkKx3tqgRQw2scwOj39LixUsbw0q9fPymnIhg+Bg8ebKZNm2a+/OJLUUZuuOGGtDXA/vzzz2b48OGmRo0a5rnnnxe3/tdeey1ljK4WhppY7rtviFNSMgFCeNhOl1sG3JpQZcKLTz75RObNmzeXeaTs/u0306xZs5DTNT7FIR58uWSJzE855RSZJwqee9nSZczixYudNcmlQoUK5o6BA6XM+3DzzTdLWVEURckeHnzwQadkzK233uqUUhPC+yxauNgcWriwady4sbngggvM559/7mxNLzB6YeCoX7++hFXrdcWVZuGiRUnXyfKCa7NDkWk70o5RMoOHH37YbNi4Qcp0uiTbALpx40bp9GnSpImzJnJ69LjEsy1gp3jw2WefyTxexwsFtg7aRAXVHjj44IPN0KFDnSVjbr/1NvP77787S0o2cwBur05ZiREEbd++faVML8fjjz8u5VQHgzFGS+JDEm+lZcuW5uyzzxal5bjjjpP4iqkGitXy5cslDiSebdOnT5f13bt3N0OGDDHlypWT5VTk5JNPNp9++qmU58+fn1Ixv5TYwEOExgpUqljJfPvdt0k3+vPe3zd0iNn9W2SV+qpVq0zNmjWdpbypVauWfHNr16411apVkwZDuHPh6YkM4Xms/n61Kexr0GGIXLFihTn22GOdvfygiHjFQz3wwAP3aywhr0qUKBH2/K1atZL4TngcFQTIp5o1jhXPdli4cKFp1KiRlBVFUZTM5uOPPw4YFYg7/uWX/o7HVIc6+plnnpE2AfEhGalFbNoTTzxR6vNUHMX3zz//iF6CzkEH9GuvvW527PhFrhsHE+4hVbnqqqvMU0/5Y8MPGzZMOvCV9AYd9aijqso7CLRTkxnbFYgn2qJFi6jOXblS5YCxOBI2b94sbe1q1aqLkRfjZjiv/uI+vf1X37NBrlx66aUiI7E79O7d29nDDzJo3bp1zlJucGzAmOnmhBPqizdpqPPfcccdZsKzE8z6DQXnWMbI4jfffFPKo0aNyviY2koESMABJV/YOCfELCHzXrpB/Jnx48fn+JQViZ/IvaT6RLbIpk2bSlzHVIyn6wUZ2+31k01WSX9sxk0mnyLhrE0uxJcljlSkEGeJ67WxqENNU6dOlf3yE+OVuEaUmbyyurq/CfdEDLRg8orxCsSqQ44VJBMmTAjcBzJKURRFyQ7Q7az8HzdunLM2faDOnjlzptxH2dJlAveSahPtLSa7TJz7gQMHhsyQnmpYPYyJNqTGgEx/Bg8eHPhNC6qNZ+PL2jiskWBjvM6ZM8ezLWAne2/5ifFK/hXKo0ePdrbug+PacwRPXu2HcDFegfwSeeWySDS2PcSEPC2oHBRK6qAer/kEr8vWrVtLTw3DCsjAl87gsUWPE73IPgFhfvnlF7m3WHn11VfNokWLzbBh9ztrYqdkyZLS645HG154wb1fqQ7PtlTp0tLzx7XTa5iKXgRKZOC9jBcz+BQQ8+23KwrkncRz4uP5883XS5c6a8JjPV6JR7rL942HwvacW49XwpFUqVIlT49XhimedNJJ4vFKT3Np3zuPRz1xl4nr5IZzuGPi7t69W2QqsZm2bdvmrPUTicdrt27dRGYVVFwnQF7Wr1dP4u7CvHnzJDuroiiKkrlQR1Hfia7nq8N++OGHlAt7FS20BdasWSP3tn37dvEyjZUlS5aYJ598Uobgos/nh8MOO8wceeSR5vDDDxcdhdip6QYjdGxMei/9SEkfGL111FFHia7LMHdyPxREXOEXXnhB9GDa75F+E9bjle+znk93DcUBBxwg81g9XlevXi35Zchzgoc3nt5uCLmBR6ybWbNmiTz18uDNy+OVOM+33Hpr2HZOMrj44ovNlClTpEw+oJtuuknKSpYi5lclZrp37x7ozaCnScmNT7gGspsrOTn9+vULvC9ePX5K+tCuXbvAb1lQ3q7Qv3//nCqVqjpLeeP2eA3HvHnzZD/r8Wp7vPEyCeedQRZR9sMDBaxXMNeZF/baYvV47dixY4F7vAKeTlwrUypcj6IoipJYGIFl5T4jUZTcTJs2TZ5NfrOZZwp2VBETo3WU9AXvSvtb9uzZ01mbfOw7Fc03Zj1e8c4Mh70/6/GKjs8ybYVwWM902hDDhg2TcsOGDZ2t4bHXFovHK+cqaI9XYCQ018lUvkJFGWWsZC+aXCsf0MP12uuvShnvMeIKKfvznwMKOSXFVyE7JWOefvppp6SkG3iNvvXWW1LGs5MYwwVFxYoVzYZN6/LlmR4JeKgg5zjP999/76zdH2K5QuUqVWTeoUMHmZP0Aq+ZRLJp46aUSKTB+2Dj6M6YMcMsc7xfFUVRlMzEHVs82HNLUYJp06aNeEbDtLfeTLh+pCQGbAEPDBvuLOVOppxsaA/A1q1bZZ5IqlarJvPvvvtO5l7QVqDNQNuBNsS5554r6xkxSKzXREKisYoVKjhLBQe5LTp27CjlzZs2ileykr2o4TUf0KD+ffcfUr7E19BO9yFFieLfnNiHJmUaDJWwAf8Zko0BT0k/3Nkqb+x7Y4F++yS+AMIBJBKGT53qJA0hMH4oxo0bJ/PTTz9d5jRAy1eoKEOwLrnkEhk2lAhQ7r5e9pWpUaOGs6bgIOSEO4j+Qw895JQURVGUTANdzhoS0PFSObGTkhqgN3bt2lXKtCUZgq2kH/xuW7f5k8RiYCuIEAOWY445RnR12peJpnnz5jIP1x4gYR/QduC6aAO3b99e1nXr1t1s2rRJyongiy++CLSPChoSfVkee+xRp6RkI2p4zQcvv/yyUzKmS5cuTkkJRj1ec+N+V1577TWnpKQLeCVMnvKilDGwXX755VIuKIinWqhQITN//nxnTeLo16+fzDEkTpw4UcoWev2JXUTjk97tHj16yHoaF5NffEGULrJ7ntb8NIlrFuyhy3OdM2eOsxQ9KJp//rHHnHrqqc6aggWDc8mSh0v5+eefl/hViqIoSubh1uW0PaBEivtdUcNrejL68dFOyZhbb73VKRUMxHU94YQTzMKFC501ieOyyy4THRfv1RtuuEHaABb0ezw7bQ6Ha6+9VuaAoZaRguvW/WAantxI2hLuvwUcNMgBsfPX2LzA+XueQTPHWaSgoSPOGqqJS5tob18ldVHDa4wgJBgaAgieVGnspyLq8ZqbTp06OSUTCLitpA+TJk0S7wQMiQwpL+gEaShapzZrYaZOneqsSRwkEhw4cKAoVRicy5UpK4mjUG7KlS8vBlmM0c/5FCmC71vY59133xXP14WLFkpSiSOPLCVGY6YKPiWMxFkkCoMmTZrInGSFtWvXlskGz+fZ23VMNuwB3xK/Rbgg/8mE36Vr1/9KGSVQQ4soiqJkJm+88YZTyq3jKUo40HUwQgH6joYbSC+++uor0WkB3bNRo0ZSLkgIe4iTQ6JGl1lIdP3ccxNF5x81apQpXaaUtAXQ9yuUKy9JvrgGEmmdc845zl8ZaRt8/MnH5uSGJ8vQe5wU+Nvj69Y1TRo3kaRdxYoVk+S+JOUieR5J9HBecOv+y5f7w5pd2PGiwLqXXnpJ1jEimXOnUghIt/F55MiRTknJNtTwGiPvv/9+IMzABRd0FCOM4o16vOamevXqucIN/Pijf4iKkh6MfvxxmWN8vOaaa6Rc0HS5uJMoGpGErsADlZ7XFnlk2iceE/sFGzIHDx5spk+fLkbYX3//1Xz44YfSe3uIT/li2Bzv9Pnnn+/svY+WLVuaVSu/k95uqwyxL9POnT/LuTj2unXrzLRp02R74cKFJUs0E8oa+zDZdUwHHXSQdIQRQ5bzowSmCn379nVKRozRiqIoSmaBQWDBggVSxkiAjqcokUDb8Zxz/UYpdEpGAynpw+O+9oBt/9tRXgXNf//7Xwnt5Y45HY4mpzQRvTqvkGlW/3br2O3atRMdHieUIoWLSluANgFtgzPPPFN0+WHDhjl774NcDBhfaUvg9X1EySPNN8uXixEbT9jatWuZ66+/3ixevFjCqFWoUEFG9rl1/8aNG8v1HFWtcmCdvYfRo0dLO7sgwz4EQ74LG9MZw7i2/bMUJ8mWEiW9e/cOZKmbOXOms1YJZsCAAZKVUMnNoEGDAu8PGdCV9IDMmvZ3izQrZzIgS2bZ0mVELiUbzh1rls69e/fG/LduRo4cKZlTV69e7axJHXyKYeCdWbhwobNWURRFyQTQ4ayMHzhwoLNWCWbatGnyjKLJuJ4NTJ8+PfD+9OjRw1mrpDp79uzJKVWqlPxuZM/fuXOns6Xgadu2bU7dOnVEx04mPJNYn0O82gOLFy+W32TSpEnOmtQBm4j91mm3KNmHumnGyNvT35Y5PT/0uCihUY/X/cFb0PLee+85JSXVccc1TZXebaCXd+Cdd8hw9kWLFjlrkwPnzqunPBR4CsT6txZ6jQcNusf06tUrJT2N3O+JhhZRFEXJLGbNmuWUjDnjjDOckqJEBqHqrBfhnPdij3OvJBe8OW3s/nPatpXwUqnCPffcY5YuWyYeucmE9zjW5xCP9gBe48SbrVunjrn44oudtakD4Rcsk1+MzCNZySzU8BoD3377rdmwcYOUcXXPr6DIdDTG6/4Q18kOOfhg3gcyV1KfFya9IHOUi1RLoEHYA4LqM+QnOFB9poKSRYB/GDp0qMxTjc6dO5siRQtL+ZWXNJmeoihKJmE7z5HzqZLMRUkfMFTRlgTalmvXrpWyktqQYBsdFNC7UwlChPXu3dvcetstZtmyZc7azId2AGFfxjz1VEqGgKxXr14gfBthFdavXy9lJXtQw2sMfPbZZ07JmLPOOsspKaFQj9f9oUKwcV5RtDDmK6kNsYtshwteLQSWTyV4p/Co3LbtJzEKW4Uwk7n55pslIcWkSc8XeJKzUNCoOqftuVJet2Ft0j2SFUVRlMSA7kY8RWhx2um54h8qSqS425IkIlVSm+AE28QzTTVI4FS9anXTsWPHrIgn+uqrr5q77rpLvH2bNm3qrE09iPVqscnAlOxBDa8xMG/ePKfk93hVwqMer964K+r58+c7JSVVefttf3gROO+885xSakEg+ZdffkmGPqJsJTqraUFyxx13mIceesg89thjuTKmpiLuzKp4SSiKoijpz8KF/ozmoN6uSqy4Q9aRUEhJbUgg5U6wnYodLozGfX3qVPPb7t/NGa1amU2bNjlbMg+MrowuI7zAbbfd5qxNTdyjJV97TUfBZRtqeI2BhQv92UshlXtVUgX1ePXm5JNPdkpqeE0H3vApMBavrP2pAvGD6UWdOXOmOa35aRk3lGXXrl2iXA0ZMkSypV599dXOltSFHm6rmM+cMUPmiqIoSnrjNrxqe0CJFYYfWx3hgw80/FiqQ1Z6Syp3/OOMMXvWO2bHjp2mcaPGMnIvk2BkH20BjK4XXXSRGT9+fEqGGHDDb1KzZk0p83vYOMFKdqCG1yjBg+zrr5dKmeDNGt81b9Tj1RsULVtBfPnllzJXUpMtW7ZIoHqoX7+eqVChgpRTFQzD9Mhv3LhRQlo88cQTae/9ioL1xhtvyHfz9owZZtKkSWbAgAHO1tSGMAh2dATv0ffffy9lRVEUJX2xoWPQ5U466SQpK0q00JasW7eulL/77rusidOfrsyePVvmfPdt2rSRcqpSp04diSda5agqpmXLlhKiKxOMfZ9//rk5/fTTZfQbXq4vvPBC2oR6YUSiZe7cuU5JyQbU8BolS5cuDcROPOHEE2WuhEc9Xr1B0Tqudm0p815l8rDwdGfOnH2ZZtu0Sb1YTl40atTILPlqiWnfvr3p06ePqVnjWPPwww+nXawnPFyfffZZMVziOXrssceaL7/4wnTt2tXZIz3QGG6KoiiZA22Bb5b7O2SPOeaYlMpqrqQfJEcF3ivaBEpqwiiylStXSpkRZunw3eMsgoHv3nvvNaOfeNxUrVbN3HLLLWbVqlXOHukB3wZh3/AypqPrl59/lvCPgwcPTnlPVzfnnuvP+wCEhlOyhwNyfDhlJQIwAFx++eVSHjFihLnpppukrHiDYCcT/PoNmrnPC4ZMkxCJCuOrr76Snkkl9bjiiivMM888I2V6ulG20gnerQceeEBCEPzzzz+i4DMdd9xxplixYs5esYNH8NatW039+vWdNfljz5490vBg+vTTT2UdCc369euXds/ewpAiGwOQGE+TJ0+WsqIoipJ+YLSwQ0Y7deqk8bvz4K233pL4+OvWrTOVK1d21iqWRx991Fx//fVSZsj0ZZddJmUltZg4caK59NJLpTxo0CBJ6JROEOuVxFvYM0gMiAxjZBxTyZIlnb1iZ8eOHWb16tXiwX3IIYc4a2Nn7969ImtpDyxatNh3/F/kWm+44QZpQ6djQkMcrQ4/oqTECeb54+WuZAdqeI0SDK0kdAFiKLq9mJT9wfA6+YWXzA/r1zhrFDdkX7z77rulPHXq1JSOHZrN4M1CDzcV/C+//JK2IUYYXkRsqvfee898/fVX5ocf1ptdu3YGvPhTBbLEli5dSgy5p512mrnwwgtTPrxDXvCMSx5+uPl11y5TtWo1s2aNhhtQFEVJV0jogsEV0tEAk2zU8BoeRsLYYet0Mj/44INSVlKLbt26ybB2wNsSHTUdIZwFjiR4XBIyZe3atTLCLNVGXxYrXtwcXvwIU+u4Y8R5gZFv9erVc7amL7w3hIQDHFfKlCkjZSWzUcNrlFxwwQXm9ddflzI9OtWrV5dytsMQBjv0wg2KKT1Uw4bd76zJDT266dhbFS/cijtDJQYOHChlJXXAWHnkkUdKmeD0C1zJ9TKF/MZ7otH52quvSWiD/EKPezoNGYoGt6KljU9FUZT0hdA9ffv2lfKECRNMjx49pJztLFu2zDNh7JIlS8zo0aMlKaaXZ13btm2zuk5kCHuVKlWkrB7UqUvt2rXNihUrpO3666+/ZlwbFuMrI+NihQ4ERnXxvVeqVMlZGxuHHXZYxtoIiE1LYjB45ZVXxMFEyXzU8BolJ5xQ3ydMvhLDwB9//JHVRkM3ZOFs0aKFsxQZxGgkQU42wxBwOzwbpR3lXUkt3nnnHXP22WdLmWFgjzzyiJSVfahne2TwnIYPHy5l9XBXFEVJX6655hoxJEI6e77FGzpya9Q4WoYERwrDbRlKnO1tquIlSsioGJK4fvll/juylfiCUbKE7zcCEr0uXrxYyso+1LM9MuxzAvVwzx40uVaUMDQXqlQ5So2uLlA46eGKlCJFC0vMyWynatWqTsnf262kHjbGKNjM9Mr+/JsTew95tkDCM6DjThV2RVGU9AXDguXoo492SsoRRxxh7rlnkLMUGYRw0zaVMRWdkEq2ramkFl9++aVT2qfPKUosEKfW8sUXXzglJdNRw2sU0NNFPESoXDl/7vOZCIZUDKqRcMuAW9M+ZmM8IBumHVb988/bZa6kFm5FK17JozKRQgcd5JSUUNj3h3iv33zzjZQVRVGU9GP9er/hFYNhuXLlpKz4ueqqq0zdCJPFnnnmmaZdu3bOUnZTunRpmeMtTAxOJbVg+LxF2wNKfsAGUra0P67rN0uXyVzJfNTwGgVk/7NJaNRouD8MKcCgmhcklunfv7+zpOA9DRs3bpK5klqsWL5c5jSubAZjZX/++ftvp6SEgpjg1qtnufNeKYqiKOmH9Uo86qijMjYueaxQz418+GFnKTQ8N5uwWMndtvzxxx+dkpIquB0xTjjhBKekKLFxXF1/59S27T/lO9eGkh6ophAFGF4tZcuWdUqKGwyqlSqG9wYm0Va6ZoVPBEcccbjMVeimJt85SeNoXOlQuND854BCTkkJBY3MunXrSpnkDKmWPVZRFEXJG5ww7Ag4G/NRyU3r1q1N+/btnSVvrr32WlMnQs/YbMDdtlTDa+qxYcMGp6ThRZT8c/zxx8uc+oQ2gZL5qOE1Cn75ZV+geJvlXMkNBtUHHwodILp58+amc+fOzpICJUv43yUErw4tSi22bNkSMI5Zg5nijcZ4jQy8Xi3uGIGKoihKerBjx47ACDhimirejBw5MmSHdalSpczdd9/tLCngblu625xKavD555/LvHyFivrdK/mmWrVqTsmY7777zikpmYwaXqNg505/7zYcfrjfS1HZn06dOomBNRi8vR6OYOhRtnHEkfu8JVDmldTBbRjTMAPhUY/XyHAn1Fu7dq1TUhRFUdKF3bt3OyV/rH7FGzoab7zxRmcpN/fcc48ar4I49NBDnVLuNqdS8OAYY0e+VqvqDxGnKPnB7TW9atUqp6RkMmp4jQK3UeyQQw5xSkowoQysvXr1ypXFT/HjVrT+/PNPp6SkAm7DWJky/iDoijfq8RoZ6vGqKIqS3pBsF9B31fAanoEDB5qyZco7S35IvEUCLiU3xYoVc0rG/POP6lSpxPr1/pjO4O5AV5RYqVKlilMyZvPmzU5JyWTU8BoFe/fudUrGHHbYYU5J8QIDa8+ePZ0lnzLhU0zvvfdeZ0lxQ3gGlHf4448/ZK6kBm7DK8njlNCox2tkuJNnqKKlKIqSvhBuoFAhrfvCgWF6+AP3O0t+Rj36aEDvVfZx4IEHOiVjfvvtN6ekpALbt293Sv4wGYqSX9zvkTuPkJK5aK2nJIyhQ4eKwRXuGTRIPQbDYGOFKanFtm3bnJIx5cqVc0qKF+rxGhmlS5d2Spo8Q1EUJR2xw8DVeBgZ3bt3Nw0bNpRyx44dTcuWLaWs5Mbt1ON29lEKHndHudtTUVFixd2udCduUzIX1RiUhIGh9e677jK1atUyffr0cdYqXqjynpqQXMvi9lRU9kc9XiPD3QGlMZ0VRVHSF+00jwx03EceecQUKVrYjBgxwlmrKOmDO9mZ5nlR4gFy0Xq9/vyzJtPLBtTaoySU6667zjz33HMhs5oqflR5T01sHDfQOG7hUY/XyHC/R2p4VRRFST9sbH7tNI+cpk2bmtmz3s0V51zJjeZ5SF3cXu4lSuxLiqwo+cEa8X/77VeZK5mNagxRoLF3ogeDqx1epHiDomWVd03allq4e7jdSdCU/VGP18hwv0fu90tRFEVJD6yupp3m0YHxVQnNnj17nJJR416KYfU1vvkjjjhCyoqSXw5xHNN+/2O3zJXMRg2vUWBj72Akc1eOipIfeJes8q6G19TCHWNLPV7Dox6vkeF+jzSGm6IoSvrh1tWsJ5yi5Jfff//dKSmphk1+jA3A7YilKPmhaFG/ben33ZpcOxtQw2sUlCxZUuYYydxDkBUlP7jfJe3hTi127/Z7tutwwrxRj9fo2fuPGl4VRVHSDXcHmrYHlHjhDjVg25xKasBIV9oC2ADcSdAUJT8cWEiN+NmEWhOiwO3xqtmolXjx8/afnZJ6VaYa1jBWVJWsPFGP1+ixhn1FURQlfbAJUUA9XpV44Y77robX1MOOTixUSB0NFEWJngNyfDhlJQ+WLVtm6tatK+UePXqYCRMmSLkg4ZpmzpxpFi9ebNauWWu2/vijBGj+J0s8qQoVOtAcdlgxc8QRh5ujjjrKnHTSSaZNmzamUaNGzh6pT+3atc2KFStMseLFzS5V4FOK433f+1LfN0Ym3t2/6RCwp556ykyZ/Iqz5KfQQQeY775baTZt2mhObdbCWbuPEiUPM5MnT9YEey4OOOAAmdevX898+eUSKSuKoijpQ/ESJcyvu3aZmjVr+urA75y1BcemTZukPTB//nyzcuVKs379BvPH7t3m9z3Zk7CpRLHi5rBih5mjjz7aHHfccaZVq1amZcuWaaN/XHLJJeb555+XMr8h96GkBldddZV5+umnxfi6ZMkSU69ePWdLdvLxxx+bO+/4P2dpH9t/3up7Pl9JPOdDDynqrN3HmKdG63vtolmzZvIsQU1ymY8aXqOA4UR2KHirlm3Me3NmSTnZ/PXXX+bZZ581o0c/br7+eqn0vGEQPuGEE0z58uVln7///lvmmQyVH3G2UKg2btxolny5xHyzYnlAEe7Vq5dMqR4E3SrvtWrVMsuXL3fWKqlAk8ZNzMJFC6WsotKYLVu2mNrHHmN27Io8++aIESPMTTfd5CwpYA2vKKY0khVFUZT0wnbMooMWVN4H9GCMrQ+OeNi8P+89WS5foaLZWXWXKV4xexMA7V6x0+z9fo/ETSxZ8nDTs+fl5pprrjHVq1d39khNzjnnHDNjxgwpb9++XZM4pRC8P6NHj5Yyelu2J4pD1jRu3Nh8+umnzprc2LAMFpbbtWtn3njjDWeNAmp4zS7U8BolRQ8rIhV5QfVwI7BuvLGvWbt2jenYsaMYFlu3bq3eZA4I+QULFpgxY8aIl12RIkXNsGH3y3NKxTidGNFtkobmzZubDz74QMpKauCuEGlY6XdmzPDhw80tt9ziLIUHObl06VJ9bi6QUTYxg37ziqIo6clZZ51lZs3yO2Bs3brVlClTRsrJAoPH1VdfLfNix5c0JU8tYyq2S23DYrL586c/zJa31ppdb/9o/vxjj6/9dKO5++67Uzasl46ySl3Qe9F/Yd68eea0006TcjZD+4h2UiTQDmCUrnq75oaRup9//rmU1SSX+WiM1yipUvkomW/ctEHmyQJvW4agdOjQwZx44glizHjttdekd1SNGvvAuEovJGEgVq1aZTp3vkgU09NPP12GYaUaa9ascUrGVKhQwSkpqYI7gL476UE2Q8MFg2okPPTQQyqfgnDHcNMEDYqiKOlJpUqVnJIxGzYkr01A5x0GILzNvt2zyhwz+ERT5/4manT14NBShU3Vy2qbY0Y3MhWvOto89thjpn79E8yiRYucPVKLLVu3yrx6Vf0tUw23sZ5EW4p/1FbXrl2dpfDQdlCj6/785YyWINygkvmo4TVKqlSpInO8XpOVYAuj6xlnnGFee/1VM2nSJDG41qlTx9mqhKJy5cri+Tp37lzz3berTONGjcUYm0qsXbvWKfmvV0ktDj/8cKdkzM8/70uCls1gSH3ggQecpdCceeaZMqxIyY07A7Ym01MURUlPyCtgWb9+vVNKLBhdL730UvG+K3NhZTG4HnFiWWerEgoMsBimjxt7itle7BcZbfL22287W1MDdEyrZ1Z22ppK6uAO++DuQM927r//fvHQDkfZ0mXMwIEDnSXFzY4d/twuxKdWMh81vEYJcTgtJERKNDTSmzVtKga6Tz5eEHHPkrIPhoN8/sWnpmTJEuaUU05JKeOrO6briSee6JSUVOHII490SiZpHS3pwPnnny+G1VDgeT5q1ChnSXHjNrzamOGKoihKeuFuD3z77bdOKXFgdKUNQPIlvFzx5FSiAwMsxupCDQ8x5513nnnnnXecLQUPbUp+Y1BHjNTDra8Rf1fxw7t6y4BbnSVv7h8+TB0NQvDjNn/b8shSGs85G1DDa5Qk0/BKBXzxxRfL0JNPPvkk6zMo5geG8b83Z454MKJsuY0fBYnb8Fq1alWnpKQKvC82NvBPP/0kc8UPYQRCxU2+9tprzbHHHussKW7cBvySJUs6JUVRFCWdcCdqSobhdfDgwebll18Wo6t6ueaPegObmaJ1ipuLOneWuJOpgDtvCAmTldTCHcOZmM7KPvr3728qVdwXesVNw4YNTY8ePZwlxQ15XpigeHF1xMgG1PAaJe4h/kuWLHFKiQGPMXpjX3zxRY2LEgeoNBlatHHTJnPzzTc7awuWJV/ue4dOOOEEp6SkCjSsrAfCDz/8IHPFD7IQA2swDCkieYXizbp165ySdrYoiqKkK8cdd1yg8/Gzz7wze8cLkjAOGTJEwguo0TU+4Pn6x2F/mou7dAkYPwqSr7/+2ikZU7u2ejOnGm7D6+bNm52SAkWKFDEPPvSgs7QP5OMjjzwS0kkj23G3BzTPS3agX0KUuHsh3ZVkvCG0ADGc6EVq3bq1szYyGErPFM6rk0RT7JOKCacSCQbsxx591Dz11FMS+7UgQdH7ZoXf45VkRVRcSmpRrVo1p2TMtm3bnJJiwcBasuS+OLhwz+B7c8XCUnLjTsKiwwkVRVHSE3S2Y445RsrLl69ImPGO41566WXmkGOLRB1egKz+dgpFJPtkKnWHnmKWLlsWUdz6RLN48WKnZHSEYwpSrlw5p6SGVy86d+4ssZPdMGqXBFyKN+7Y4NoeyA7U8BolGBRsRu+FCxcmTNG68847TZkYg1EzxJdrROB5gUG2Vu3ast/ll1/urM0eGPJARYBRuyAhVMWvjnG8QYMGMldSC3dFqB6v+4M8vO++Ic6SMfXr1zO9evVylhQv3O+R9nAriqKkL1Z3++eff8zSpUulHG/GjRtn1q5dY2r0r++siZzVI5aYry7/0Ky+7gtnzf6wzzdXfiJTtkHM18pnVzfDhg8v0ASqjKz60hlFyZBtt3elkhrwm5BcFlItUXOq8PDDDwe8W0m4lQodGqmMuz1gk7crmY0aXmPAer1idF25cqWU4wleqC+99JK5se+NMQejpnKYMWOG+fzzz501+3jyySfNnj//DAyhzkbuuusueTYF6fX66af7hqY1adLEKSmphLsi/Oqrr5yS4uaqq64ydZ0QLCNH7lO6FG/cHq8aakBRFCV9Ofnkk2WOPu3W6eIFxx0+/AFTpGkxMRLGQqFChaSTf+Nb3ztr9vHzF1t9rf9/xXDMlI0c+d/K0iZ6+umnnTXJB6O9dcRodmozmSuph23/YzBLlONVOkNH1GWXXSbtgNtvG6jOBXngNuDb0RNKZqMt5Bho1mxfpTh//nynFD+I6Qr58UYl43ipUqXM0KFDnTV+qCgeevBh0717d2eNN+yHC3xePcB2v+AKCGURA/Lvv//urMkN6/m7UNsTzVlnnSVewc8++6yzJvm89957TsmYRo0aOSUllaADwwaMX7VqtcyV3KBgjXr0UdOpUyfTsmVLZ60Siq+X+hN5EAtXQzIoiqKkL+5htB9++KFTih8LFizw6dIbTaVzYs/zcMihh5pix5c0OyZtcdbs44+PdkqcUxJNYaANRaShCELtk9ffFmSYAwzahRoeYsaPH++sST7utqQ15iuphx3xSidFIhyvMgHsDuQs6du3r7NGCYU7KWONGjWckpLJqOE1Btq0aeOUjJk5c6ZTih9vvPGGGE7z0ygvWrSoufHGG80rr7yS68OeOHGi2fbTVnPbbbc5a3JDxu1LL73UFCtWTLz9jjzySJ8ArS+B/YFro1eGOZ5udr9SpUvLEAMMrswrVa5iKlasKNdx3nnnBQy433//vTnnnHMCf8f8/PPPzxXnxJ4Db1TOe8EFF8hy8RIlzEUXXeTslRvOyT5eHr6h4LzvzJhZYJ6/H3/sH9bFcAyyPiqpyfH1jpf5jh2/5HpPlX1gcGU4pBIe5OBmXyMajqu7L1GjoiiKkn5gYLDDj9+f+37c9Un0YQyn+UmohWG1fJdq4tXp9nrF2Ll+5vem/Pn+kRdeHq9rn11uVnRbGAhFsOy/HweOwd+vuvRTWWZi25eXzjOLzptlNj7qz9CPR+0PV34t4Q4WnDtTjuU2srIf+9vtHE+8cB3c56DM/ix/1Xme+fTKOc5eueHv11y+JNe95gWG7e+++y5XeymZzJ492ymZ/eJkKqmDTXTNd064OGV/CMlA+13zluSNDU9DHaJJ1LMDNbzGAEHPbUKZuXFWtPAcJXbsGWec4ayJnauvvtoUK17c3HfffbLMdQ4fPly8Xb1iiRD7tUWLFubNN6eZe++9V4zK9AD//vsfpu05Z5tly5aZ3bt3Sy8fQbRnzZptbr75ZolDe9hhxaR3q3HjxmbgHbebNq3PMIMHDzatWrYxb731lhk0aJAYdU9tfpqZ98H7YvidNGmSzDnPqU1PCxhn7TnuuOMOuZ4vvvhSDLScI9iQDNzXgyMeNIf4BFc0sVLxet267ccC6bXEAE3MLji1WfOA4q6kHraHG7755hunpAQTa1iUbGKJE8MNL2HNWqwoipLeoLvhKAGbNm+Ke5zXTz75xOytm+MsxUbh3/yGW5Jz/friviSh219cL22Eiu2qy3KwxytGzp/f2GyKNTncVL2rjkzmqP+I56w1aqK3bxyzSqaSTUuZylcfY/5TrpAYdDGQrrpridlZdZcpc2FliaVKB/baG/xhm5bdukD2q3hmVVPxqqPlb3ccvMtsHr46l/GVtsnmN9aK4XfrnA1mT3m/gfg/P/mu0cO4ihfvr7t3mCOblHfW5I01bCdiFGNe0IahLQn8HuqIkbqceOKJTsn3/vraxIo32h7IG+SaNd5rMr3sQQ2vMdK6td8wihLBUKB4gREQ42v9+tEH0Q8Gj9kre/Uyzz//vFm7dq15/fXXzerVq83tt9/u7JGbIUOGSI/v7NmzzIABA8QwSawWhsT/8/de89BDDzl7Gln/7bcrxLjKNPnFF2T9n3/8YZZ8+ZWZMGGCGGRnvzvTVK1azbz26mtifMXb67VXX5e/6dq1q8yJZ7tuw9r9wiKg0M2bN8+sWfO9+eyzz8wrL78k60ePHi1zC/e1YeMGc9311ztrIsMKOmsMSSbvvPOOUzJxMbIrieOkk05ySrnj8ipKtNisxTS0dDihoihK+mN1OOT6nDneXpixQsKl4hXzF5IGj1fA65U2S8B7dNZaU7Lbvkzt7pBhGD4xipa9oqqpeN0xYphkqnN/EzneHy/7HSUw1hKmoN745rIfRtyGY1tJ5yKGhaPvqW/qDWxmql5WW7Zb4yvX8OvXO0y5i44K/B1T3aGniGfu5il+xwQLRlaupcHrreQa6r3UQjx07XVY7H2Z+oWijolbvHgJcYpINuiVPBNocdppGic/hXG3B+LZ9leyD3cnnRpesweV7jHStm1bp2TM22+/7ZTyz/bt22V+1FFHyTy/3HTTTaIYkVnwgeEPyPD6Y4891tmam5deelni1yIAUMDsVLZsWVO7di2zaOFCZ08j4QPcXpoMt4J69evncpdHgahX73jxBHjzjTfFexCDrhuuqUqlqjKkyg3XfJpPCbEQS4us6eOffTZXbNjHH39cPJDzilsbDMMhGOa/Y8cOZ03ymDZtmlPy37+SuuDFbVFFS8kP7lAo0XjnK4qiKKmJuz1AUtt4gfMBCZeK18+f4fXgnQfKHMMpuR92fPSj2fLWWlP0sMMC3q7gNvjhNcqyl9do+XqVzE8//SRl2ghFa5XYz8iJ1+u/pfZ5kgao5veq5RpoQ5RrlzvBJMcp26qS2fPt74GQBBhYjzi/fK5rBbxof/9jdy7vWHtfscTE3Vs5x6xZk9vgmwzcIeu0PZDaMFrUjnj9/NPPZK4osfDRRx85JQ0vkk0ckOPDKStRQOIoYpgCGb2/jtPwIoblY9TcuXNnzK76Bx54oMRCnTx5sixfccUVkkSK3ng8rhjGgrJ0yCGHyBApvC/tcjhIMjRs+DDTrVs3MRy2a9fO2eLngAMOMF26dAmc18L+L7zg94jlb9xGR0urVq3Eu/Xvv/+Wvw91DrKOElt2zJgxplevXhJ2oFatWqZfv37mwQcfdPaKHOLG3jFwoHj4Jgu8AEqXLi3PnGe6foPGDU11Dj/8CPFIKFumvNmydZOzNrXhe9+yZUsgyR3vW7ZQsmRJmciomkpxpqpVqy4hRujw+XXXb+rZoiiKkgGQY4ARa8j0bdu2xSVxIjHlMfQcM/jE/Q2YEcJw/j+2/y5eqICR8rs7vpAyQ/utMZN4qXiV4lEK/B0eqeHgugglIKECrsudkZu/Nz/8a+q8uC/5GODpSlgCDLPu87khruyPr64Xb9kilYtLiAEMr3jNusEwS0xZvGjt+YkzSzgEvGKj5ash802rI1p4tlESSZPGTczCRX7HlnXr1pnKlStLWUlNcB6aNWuWlBlFWr167g6BVIWOHEa//vnnnwWW2LogwJZy6KGHilNYKrUHyF/DiF3A+7VOHc37kA2o4TUf4B368ce+St4HcTpCeZJGA0bQs88+22zdulU8MmMh2PC6atUq8TS1RlYINrwihEmERZIchv97gecsx8qP4bV9+/b7ebaCrcj27t0b1vDKdVasWMlX0VWT8APXXHONhB6ItfLD8Hr3XXeJZ3CymDhxoiQwg+uvv9488sgjUlZSFxLCWU+WVK4gaai9+OKL0oHz2eefmt93F1ym4FSARjANYjp2kE1uD/pkYxvRQO+2TVioKIqipDfokITjos4ZO3as6dmzp7MldqyDR34Nr3u/3yND8y0YWfGCPWZ0o4CnKvvtXrbLNJrmj1drDaflB4TOtI1RlKRYeJ4GG0W9zgsYXreOWyvesFxD8HZgn+0T15tKt9UKew6w102og9/X7zJr71nmD48Q5B0bCRyr9dEtzWuvveasSTyENrDZzBkFQ7tGSW3IlXLLLbdIGSeg3r17SznVwMmHUH60uT/6aH4gnEU2g7PTaS1OE6Nn8MjdZIJjzJFHlpLfhFEIdNYp2YEaXvMBHpb9+/eXMvFMQxkso2HRokUytDk/xp1gwytgiMH4ao3DwYZXKFemrClXoZz58svQMU8xoMZqeEW4lCtb1tM7GOPIH7//Id6f4c4BVsElC+gFF14oMZFi6aHmGRQuXDhuSnKkuI14ePkWpDFIiQz3tz5q1Chz3XXXSTlVYAg78gcF69DCh5izzjxbYlERKxpjHzLhjz+ywwhLw5dOJBqtyFEmMqzijYQMvPXWWyVGdbK9TZ944gnTp08fKQ8bNiypXvaKoihK4rC6OxB6IB4hyKye7vZMjRZrQHV7ntqh+W5jrjVgWsMr3p9/LtgdWPYCj9NQ3qhe5wVreCXRlzWYBocpIKkX8WVPmOA3ynIOwg8Ee9WC9eCVxFwf/SghCry8aCOBa/7vKZ3FmJYsyK1BImFAh6MtqaQ27m+dtuO4ceOknCqg+/JePTthvPnzjz2SpJpQfYQRxEGJZNW//vqrs3fmw/0SxhEHOXK64DBHXOWypcuYXr2vlLw3yfaEJTFb3bp1pYydIxYbhpKeqOE1H9jeaOtVtXz5cmdL7FivKLL3X3jhhc7a6PAyvAbjZXi1IQmee+45SXwVDMP66Y2N1fBKDFYSfS1cuNA0atTI2WrEKIJHGr2GKDx5GV5tDzGGXOJMYYBt3bq1szVybJgC4isFx51NFAz1IMwAvV3lK1Q0G9avS7oBSIkeDJs2qH4qVZL0aN95551iDCaJ3cCBt5vOnTtrRlEP8DDFgP7mm2+KZwkdLsmMs3rxxRebKVOmSJnMySjCiqIoSmZgQ8mg023cuNGUK7cvcVUsoCdWO6qGyan7H0+jYyRgTHSHGggF+7mNlhhI1z/xXa5h/G5s/FW8UUOFGvA6rw01gAcr4QQqXnV0LqMyx+WYJLqqNalxYDmUxysQXoCEXMSCDbdfXnCcZIceO75uXbPUyY6vYQbSA77LkocfLvGXMd5t2rI5JdpxXBdtgYF33G4OPuhQc801faSzn5BbSm5o//OsME4XK1LMjBn7VFLjKz/66KMy4hVGjhxpbrzxRikrmY9afPIBwoyh+Qg7elJs2IH8QKWLQY4etWRz7733mtJHljKXX365xFHFew6j6MMPPywZuPOrjNCrS2zDc8891zzzzDNyj8RsveCCC02x4sUDvb55QY8dHgUYXTGcYrSNhU8++UTmycwuPmnSJHlfoOflyfe6U2KD5HEY+mHO3Pek46KgQXGg1/3pcWMl3Ma3366QuMdqdPUGz3JkGnGu4ZRTThEv1GTA+/LOO/6YYCRmaNIk+vhziqIoSurSrVtX0enQ8dD18gvHatSkodmxMXfm/mgp/NuhTik8br0GY2ix40uajbPWihEVz1I7sbz6On+cWPi72F6nlBub1MtN4YpF5fmQMIw4uBhhiemKgZVjb7jJb4Qs0z930q1wlOxWLnDtwcm6IoXz7/7tN3Pcccc5axIPbSBrdKUtqUbX9IDvkpGWsHXbj+I9WdDghEG7uG/fvqbXFVeaH35YKx7UanT1htG/JOZesfxb07zFaaZDhw5i90hW245RyJY2bdo4JSUbUKtPPmHIqiVejfgzWrU0b0+f7iwlDwT0gkULJcYsBlEEEUZNhvb//fdf4s2aHxjmO3fO+2LAwrsWo9GVV15pKlWsYN6fOzcqpYP4LECPUazGSzxd8XiLRxKESMFAZrnkkkuckpLq8I4RIgKIm/ruu+9KuaD46quvzKmnnirlRQsXm6uvvrrAYhWlGyQXpNMF2Y03wD333ONsSRx4uNr4Wq1bnxGzzFIURVFSE4Yd2451dGhbzg+MxmJIfn7Yu/dvpxSeYB2CBFV4s+IJSxItOxFCoOhZ/szu4TjwwIOc0j7+2Lg7UP9VerCOKVqnuNny8g+SJIuQAYwKI6mWOwwC+SUO+nV/I67lyCbl5doPbVJ0v7AFkbJ9wWaZJzP0lzukASMClfTB7R3JqMuC5McffxTD/aJFi8306dMlb4g6YEQGdoeXX35Z2uaM+GVkWqKNrxjJ33//fSkzUlGTamUXGmogn5Ds6aijjhLvSyr+zZs359uQR08IQZ8Z1p/MobBuEAxkP4SqVavGXYgT34TKAmNvLEnJUEY/WbDAbFi/PqZr4/4q+QRuMocV4RFNUh2UcSrJOXPmOFuUdIAg9bbzwYbFKAhIcIe3Zo3qNczbM95OasdBpmGTJCQ65uoNN9wgw5oATyivUC6KoihKeoPh7sMPP5RyrGGw3BDSDONA8JD8ZINHKMmrSHYVq3EzFPbYEEsSMTxmf35js6l6V52Yk5D9cOXXpknjRklLrIWBuXKVStKRz4i/Lb62YyplXFfCY0MNQv369cLmRkkk2CBatWzla6+vM7Nmz5Q4rkpsEJe7Y8eOMhHyMFEOEq+++qrp1KmTlHH+wPNWyR7U7SafUFH26NFDyvSSjB8/Xsr5gbirZN4j7kdBgTETAc6UiJ4zengwPsZidMVoO2vWLHP5ZZfFfG3EdyQmlNtjOdHwe1oPiP/9738yV9IHPMGtR8gbr0+NizdLtKBkdezQQbzGZ82epUbXfIKxtV+/fua2225LmBcz78mUyS9LmffHK261oiiKkv5ce+21Tskfxy+/4JyAd90fL+cv3EB+wdiKUTPeRlewx47VaPrT/M3myFKlY/57Qhxs3rQxkPwyGdBWxOgKl3TvrkbXNIPvktFTsGTJVxL6qyBgePzXy75So2scYFQjBldyMQwdOtRZG3/cYWjyO5JYST/U8BoHGOZrGfXwY/l2U6dxPuCWASIASOqj5Oahhx6SeayZ5elpHjx4iBhdy5Qp46xNLCRNsz3pBGMnjIOSXmDkJz4xENepIIYXYSD8fu33ZurUqQnpEMlGHnjgAfFKuvyyy8UTPt4sWLDAbP3RP4yRTjX93RRFUTITdDvyNACj1xihkl9uvfVWGVVHYiolNzyT//xkTKHzizpromfzlDViRMuvd3Kk0EZ8eOTDzpLf601JP0gCbSEpdbLBRkDC6vHPPKtG1zhBUvNBgwaZu+66KyH2F+wPhIMAHGg030P2oYbXOHD00UcHvJjWbVgrgjC/0It1/PF1TZ+r+yQt2HM6YJ/FwIED5bnHAsN+CxU6UJKJJYsRI0YEPCSvu+H6gOekkl6QvMoyceJEp5QciOv62GOPmXsG3Ru1pzhDaIg5xzwUNtkdcY6yCYYT4X3y847t5s4773TWxo8JEyY4JY3rrCiKksmg293o0/EAnY+OvfzSqFEjiQH664vbZFi+kpuyrSrFHIYBwy0xdB988EFnTeJ55ZVXzIaNG6RMQiSN8ZieEA/UDkcnFFkyYfRbvxv7ypD1zp07O2sjQ9sD4aGj67jatc2NN97orIkffPvWjsHvpraA7ENjvMYBhNMNN14fGDZCEqkVK1bkOz4IvS3EcmRYOsGylfxDAjR6lxF+9GwlA2LZVqteVd6PIkULm82btqjXW5pChVmqdGnz665d8luuX7chacP9L7roIrNkyRKzdOnSqCvrM1qdad6f954kqVizZs1+mU5pINaqVcusXLlSjr1nzx5nS/ZAvFcMrz/88IMpV66cszZ/oBxXrFhJEmtpHDdFUZTMZu7cueayHj3FCQOoTxnxlN/RVXhK1T2+nvntyN2S9ErJPxJiYPhqCVuWrDYWulb9evXM0mXLZHnevHlJTeilxBd06zlz/aPfyNtBCL1kQEfB7bffLiEOyMMSDdoeyBtCj7Vp08ZMmzYtruHBmjRuYhYuWijlhQsXSqeakl2ox2s+oFFNjxeZ+a3RtWyZ8mbw4MFxCcpMYi2CLouXWxIyb2c69EgSf4u4jskyugKJe+z70efqa9TomsaghBCPC/78Y0/SvF6///576Szo27dv1EZXy6GFD5E572Mwr7/+uihZJUvmnak4U8Gb+ZBDDzXjxo1z1uQfRj9gdIX/+uoKNboqiqJkJnTetWrVKmB0pXOWIasMKc0vdPC+Ne1NY3741yy7dYGzVokVPIcxup58UuO4eCVHCoYca3Rt2rSpGl3TnCt67csTghNWMsAwSqgKPCajNbpatD0QHsKOEH4knkmUyU9jja4kZFOja3aiHq8xQkbD8847L1cMkJ49e0oCpXgb1oYMGWLuuOMOc/3118vxE5VpL5MhyUH//v1lWAaxeJL1DNeuXSvDwvGUTLaHpJIYqDzr1q0r5Xh5t+fFww8/LNn3t23bFpN8oYd72dIl5vyOHczzk54za75fm8sD56STTjJly5Y1P2//2Xzx5Rf79XDz/n766acSr65o0aKmWbNmAa9QOqB27NjhU9JKmkMPPdR89NFH8t4TCoSGhYWe+c8++8wceeSR4snvvg8USWKh2uPjNeD+TtznwHjJ/niS//bbb+awww7z9FBlny1btsg1RfrN0ZGGV/Hy5cudNfnjhBPqS+IF4Lgah0tRFCWzoH68/PLLJeaihToMQ0z16rENgQ8FcWNxHDjk2CLq+Roj1tO1YoUqZt6895KW64H3pH79+qIzAnkCkhVXVkkM/KZVKlWWvA/x8m7PC8IAoEPjXR+L4T6/7QGgHYROC+xvw59ZvRu9HB2f/dD76XziXbeOI+jvH374oZQxQFauXFnKFtteALa7QwsGnwMYEcBE+4D2gFebjL+BSEe0MUIWZ63NmzfH5TclhORTTz0l5dGjR+fKD6RkD2rBiwGMA82anRowujKEFG80PKXibXQF4pnykT755JPm9NNPF+83JTIQxARAx2hNyIZkGl2BOLJUzIC3qxpd0x/icVmDIr3CyUiyNWPGDHPGGWfkS77856CDxHj7z997zahRo5y1/qGRyDI6d7z4+OOPfUpVLTG2XnrppdJ5cdRRR4l3D5Doq2LFihLHmCF0LVq0kP3Y/4ILLhBlh6zMDF3iWzz77LNNrdrHiUIGyFP+zn388uXLB44PnAPFjOdARxRKIfs08Cl8nBtlNxhkMtuYRwrhHGgUYTjOLzxXa3Rt3KixGl0VRVEyDBIyYlCwRlf0S3R2hqrG2+gKDHudOXOmOXD9AWbVpZ+KEVGJnLXPLjdr71kmnq4LF85PmtEViJdpja7okGp0TX8wJF56ud/rlbbe2LFjpZxI+P6LFy9hTj31VGdN9MTaHkCfx6sf5xP0eSZ0e5wWuH+2o3dfc801ovezH3o9iYkpo6tzXvR5dH0mjKo2Ri5OFrQbbHuBvAg4uFBmG9hzkATr1VdfNbVr1xaHDvYLpfPjLMe2m266yVmTN1w/Rt7333/fWRM72CJsvFycsLgfJTtRw2uU0AvT8vSWvob5GlnmQ//k448TPnSdnhEMPAgchAwJohAkijcowxhoqlarZmbNmmUmTZokMZySaXQlGZIVtPT2kZFeyQwIV2F56KGHnFJioOL/ZMECMUzmh3///lsagig6ox59NJDB//777zfNmzfP5Z1qwSh6dtu2vvf3SIlHRM83MaHat28vytM777zj7GnM3XffberVry9KoY11xZClGkdXN9+vXi1JpubPny/K0uZNGyWeKtfQps2Z5gefMsb2jRs3Si83RmaO/8wzzzhH9z8HOk9GjHjQnHPOOaZfv37mPF8jlPVew4EI0cJQKZKSRArPAWxPe35wvxc3D7jZKSmKoiiZAPUXyZGs5xYN6tdeey1u4cZCQd362WefmpqV65hVdy0xGx/9Tg2weUASrTWXLzE/v7HZ3HzzzWb2uxiv4u8oEwrelf8btC9kHKMXlcwAr0j7vT/6yKiAgTBRMDrslFOa5EvGxNIewLB69tlnmW+WLhPj5s6dO8327dtF3k2ZMiVXclrCbG3dslXWo/fj/ISjSq3ax4pej1MS62mbE+Lr+muvk+NjpKXdQOcV+2Nzob1FxxYeo24mTpxounbtao455hhpD3Tp0kUM4ej+weC8BthOIoXYt9h4aPvkF7xn//nnHyn3uuLKpMoeJbXQUANRgKGz4cmNxGgAxOiYOfOduCViiQQEOhX2sOHDze7ffpMeU3rAMcrQmxRr/Md0B4GNkEZA4hX39ozp0pOHsMfgWRCepvQK0nsI9Ched911UlbSH4x9NWocHeiASWSQdDpb8O5E0Ym1g+ess84yS7740mz5cat0CDDcjdhOyA+GCWEsZR8Cv7uHFtHb/Mabb5pVvm/L7RmCHCrnu6bWZ5whihu9t8FDZ2xIhlYt25gZM9/KJZsYgr9l0xYz8E5/CBVGCxCqxcL3XLVadXPQfw4ya35YbSZPnizn4FwYWe33bH+HPb791675PnAOe27Ci0Qbv6106dKSzRTFL1bwGOC5WjTMgKIoSuZAHUX9aY2udK6/8cYbngaLRIJB4rZbBpqfftlqSpQ4whQ6v6gpXLGoOeLEss4e2QkxXH9fv8v88dFOs+Pjn8yeP/8UrztG0riHLScLOpLtKB70mJdfflnKSmaAfmq93hM9jPyoytXMxV07e8ZnjYRY2wMYTK+44orAdjcsL1q02He8JaZKlSpiBOV5uI3D5cqUNXtz/hX93N2ewBhKG5n4x4RwxFniueeec7b6YTQabSDa+YQTwHu1bp06ZvKUKTIK0YLhFoMsSYjtetueqFihvFm8eLGsixS8b//++2+5tlihvWST7AJe0eSUULIUDK9K3uzcuTPH95FjpJaJMusKCs7t+3hzzjzzzByfYAtc18EHH5xTsuThWTUVKVo4cP9MjRs1zvEJ8ZzNmzc7Tyv5TJgwIXA9tWrVyvFVXM4WJVMYM2ZM4Ddu3769szb++BQFOcfChQudNdHTsmXLnLKlyzhLOTlt27bN8TUU5brr16/nrM2RbwcZYmGfBg0a5PgUrf2mmjVryjRp0iS5Pp9i4vyVH9551vsUMGfNPjp27Chyi/Ozz+7du50t++jTp49sW7FiRchzwIgRI2SbTylz1uTk9O7dW9atWbPGWRM5yPZ+/fo5S7GBbOb8dipWvHjOuHHjnK2KoihKOtO1a9eAfKee9DX0nS3Jh7p26tSpUtdS11C3MlGXs5xNE/fsbhNVqVQ1Z+DAgaJHFBScm+viepivXr3a2aJkCnz/9p2rVLGSp04bL3iH0HtjJdb2QKdOnWR5+vTp+7UH2Ma9f/bZZzL30qE5nvu8Ftrr/I3V+Tl+MOj3bKPdtXHjxpDnsO0ljmWZMmWKrKNdHi20Jbju/DB//vzA928nrl3tAtmJerxGAF5VuLPjMg+4npNAJpmxgcJBbw6Jb4hLSMDqn376SXposoGDDjpIPA3wgCNmDL11Be3CTyyX42rVlmDrYIddK5mF7UW1HvD0pJIFM9588MEHEjc1P16TNpg+PdxgjwluT1p3Dze9tCS6Al9DRubBVKpQxQwdNkR6++kRxvvezQEHHCA933isurHeATyvVatWm19++dnZsg+8Q/AS4fshuH2oc/C94RGM1z/7MmSqfIVypvUZbcQDKVrwxm3sew75zWbKM2ZolI3pBj169JDebp8S5qxRFEVR0gmStTJSAwgvMHfO+ymToZr2Cskh8SrbunWrr279xezevdvZGh7+1tb1ocoFgde1hJoT65G2GRP6RUG307guPAnt6DeGZednNI2SuuAdyTB5SOQoR/Tq/HjVxtIegJNPPllsDfZb9IIRAOjiDP1/8MEHnbV+SAT23YpvA+e1kITwyiuvFE9wzu/V1iGhWOPGjeXb6dOnj3i8ep0DuO5vViw3G9avF3sA50UmEsosWt2bWLUfzJtnvl661FkTG+Tm4fci9CHwDJs0aSIxapM5alpJAcT8qoRl5MiRgV4KelQLsmdbSX169OgReF/oBVQyF7fXK97nicD2INNrGiutWrbZr6e5adOm4rG6d+9eZ03uHm56Y33KQZ7vcDhvVNZ7ebxabyGuwZ4vGLxUOD/3He4c0LNnT9mOZ4ntPZ89e7azNTri4fFqweuBY3E9duKet2/f7uyhKIqipAvUR9RLVp7jaaoooRg9enTgXalatZp6uWUwS5YsCfzW6NuJ8npllGd+PF5jaQ8A++AZG45w3qjNmzfPKV+horO0DztCzLYLvEb3zZkzR7YNHjw47DnAjjilfWZ/E9oTsRAPj1cLzxZ5wDPlmph4HgXpja8kn4LrwkwTCOyM15Vl8osv5oonoihu6L0ivgwUK15cEnopmctll10mHvDw/+2dB3wU5dbGj5948UKAgHQCJLQAUgMkNEGQUKRIBwGVjngBRaNeLl4QLnxcqhTRC0oXpatIU2qilNAkoalI703pWPiu3z4nM8sQAiZhs9mZff6/37LvzIZkd3bmnXPOe85zsJJpbTblKYKCgvT5xIkT+pwaMjzykDG6DbSQIdJ/r9VrrAwXLVpUtmzeotm9aQG01vC70cQrMZh7kS2SHD02rEoDZAEgGwkdUZFlkhrQ6CtPHs/o40GLCivyqJZAZhTYtGmTREZGanUCIYQQe4AqkHZt2+l9CaBRJDpfE5IUyHKLev12F/Xp06ex2sXBIEsTFV4AFY9jxozRsafJnSuv9n5ILanxBwDsalTUwjZPLWjqdS9MXwe6s4mBZivAe/gz2rdvr5WwkyZOlMmTJ+tnQpZsakBvn/wF8htbDwbeB7Je0VSsUFCw7kPFZM2aNTWTmPgHDLz+CWj4YgYdUFqEbtrEt3iQG5Anwfv4W+/bk/vECRO0KyJxLjCi3377bWNLJOq11zwepESpHIwIa8l6SklKegQlOH/WdA4i9ydOntAuwKazaYISfyw0PAiQcAFwYK2/H4YXukNDoiM5pYJhYWESER6h3Uwhvm+WgaYUXMNXr1yR0qVLG3s8Q9u2bSV6Q4zkyZ1Pt9F8q379SHcnWUIIIb7N4MGD9X4I0Pn7rbfe0jHxHXBPRYA8vYE9g4X5G9dv6nbPnj0pOeYHQErCDF6OHPVvDdx5mnLlyiYZnEwuqfUH0LgKIC6S2HaF3zNz5kxj6978zyOPGKO7qV69uiYoIFnB+vsxRkIFkpmQtPBnwC/De9y3f7/KGEACIrW+OILMSEDxJJBA2Ry70S1Nh2B2ZGR9lYchzoeB1/swe/ZszU4CyGobMWKEju0CbvyYdDCJIRMPq6+Jgyd2Bp8Fk3HRYkXc3STTC7wXaNSYuq6NGjVSo4s4H6yuIvAH9rhunOjQ72mgBYRV0tQCLeTU8Pe//10dTOhVlS9XTruPwtlElg90VTFHPggwohB8/eijjzRDFbqu+Bs1XX8zc0CAXt/Jpd/L/fQ6DAzMrnqwqQEascD8Pj0JjKxvNsZIUIGEVf24uHhp3ry5TziJhBBC7g0c8HHjxukYwQF0+L5fdpgvsmbNGhk+fLgumMLJT6tKlvQCfk7JUqV1oTi9QQAOepcgODhERo8erWPibFCh1adPHx0j6J4W5yI0VDdv2ZJqfz61/gC0UqOiojQuUqJYce1hAH8AAVlorvZz2e5/xv0yXtFT4p1x4zXJBHqu+N14wHZGQsW7Ln8guT1czO8ApFZr9/jx4/p34X95GgSCo6OjNWEEXLr0s0TWb5AmgXriYxiSAyQR0OGB9gYOER6p1QtMb/A5TP1DPKAtgq6F0G2E5gm0E9EFMC07MKYF0L2E3gw+EzRVL1++bLySPowcOdJ9jKGdc/bsWeMV4g9Ak8jlhOn3Dx3o06dPG694BlMXKLXaoNBCatGihbF1b9AJNLFWLeYQ6FxD5wifLTAw+x9hYWF/9OvXT/WTMDdCuykpXSbsHzJkiLF1G+g04TVoHuGB6wf6Zzh+0K9Cd1Wr7tH9/oaJ2VUW7yu14BhB4zUtOXz48B95cudzzxdJaeASQgjxHZo0aeKes5O6p9kF3MtNWwXPuO/is0VFRanWYnR0tO00yKH5iPsoPg/8ggMHDhivpA+wV8xjDLvtfnYLcR7wR+EHmvOFp+MHpm4pdE9Tw4P4AwC61tgPvVf4BLCZoc+KHgzwfevUqaM+S2Jgmyf1d5cvX672Pfx6gN9fuXJlvYbwgO+BnzG5398wgV+B7wDxjtSCufJB/K7kgHMFn888V3As7RaPISmDgdd7gAvavBBglNgdfB7TELjXI6hAkIpuY7LFz/ui8QUDywwklyxZ0icC4rj5YXI2j2Nqb4bE3kCE3TwHkmPUpAQEcnH9whBwMlZh/5SCeQvHPrVOF4w5BH3RnCutgSOGv2WeL974m4QQQlKO2eASDyRk2N0xho2KoAk+T2K/wAx2YIEVQUzY21gYTe9gZlLge8AiLoI/+DxopvMgNoQngI9iXVjF+yP+h9ngCQ80rfL0nAH/1+nNm83EjNQwf/58PfbTpk0z9qQcBEG9kRgB3wPnCN4v5l4EsYlzYeA1CZDhZWZf4YHVJSeAlWyrQXC/B4Kw6W3AWIExg9UyBDhhYCEw7AvdQQ8ePOg2YPGwcyYEeTCwUGE9F3Dj9ySdOnXS65KroXeDY49AZqNGjYw9KQcVAPgd3lpwwqq+ea5gXmNnU0II8T0Q4DDn6vtlWdkJVF6gcsX8XEk9zKAsnn0p8AobCMFg2Fu4d+Lend5VbwDvy5q9hqxAX/KjiHdBFqd5LjxIJVZSmMlUtBuTBtchFo9S6y+Z9jniJt4A8yver3m+IHBPnAkDr0mwaNEi98nvhGxXKwhgIoXf/Hz3eowZM8b4H+kLgt5YcYdxhUkJgU1fMLAAJnSsiJnH7EGCPsQZWOcOOAWelByAgQVDixkUd4NjgmO+atUqY0/KgBNqOnDe5I033nCfLyiJopNGCCG+w7Fjx9wBSCQu+MKCv6eADYvsKvMedK8HpH98AfgvuEebAVfIjOH78RWQHWceMyTv+GLVIPEeSMzBeWqeE56shsQ8hEQMp8UoPMHGjRv1eMO+Tg04tshATUpmIS2x+o/I4veluY14DgZekwAXm3nyp9aR92UwqVh1XxM/cKNIz3J5GFcoqTYDxLi5ILDiKwFXgGNoPU8wSVPXlQCr8e3pjAc4Hbg+TS0kkgBWp1FSlJpjjWsZmQlwlFK7Op5a8LcRcDXPF6dLSRBCiJ3APdecn51a0YRECzO4nNQD2aW4V6UHsPuR/YXEBrxHBCQgK4TFUl/Cep6gcoY2GgGQkTLPC/iynvQToamK3wttZnIbSHnhmKT2WEMDF35WemQTYzHJPF+cLiXhrzDwmggE/cyTHo64kzOQ7qX7aq7QQcsKFz50k5B5mlaGF34v0vkRXDUbZuF9YZUdgtq+9h3g/VizBGAIstyDmMBRsDbmg9PiKXCtoIQGcxPmKvLgQJsXcx5WydMDNDc052Fk9XMBhxBCfANTew8PXwv2eRL0S7CWupoP3BvNgCeCnwjS4l6ZlouU8DcQsEI2n/n3YfcgAOvtxdHkAF/KesyQuUYIgL+IRlDmueHpYBoWIdLTfnUaM2bM0O8pvZIgkCVvSkJi3vOW1AHxHg/hH9cXTAymTp0qvXr10vHAgQNl2LBhOnYqmzZtkpbNW8jZ8+eMPSLfffednDp1SlatWiVr1qyRXbt26f5H/5pRyj5eTipVriRlypSRkiVLSv78+SVfvnySNWtW/Zn78d///leOHTsmLuNVjh49Kt9++61s375ddu/ZI1evXBGX0Se1aj0hLVq0kGbNmkmOHDmM/+lbvP766+IyPnWcKfNfZdkXy8V1Y9VtQgCum8jISB27bp6yfv1617ldS7cflOPHj0tE1WqSLWsWWbt2rV6DJOVgPhowYICMGjVKXMaWdO7c2XjF++Ceg3sPePXVV2Xs2LE6JoQQkj7Ex8dL+fLldfzEE09ITEyMjp3KoUOHpGXLFhIXF2/sEZk/f74UK1ZMbRr4BLFbt8iN6zfVrildqpSEVaokFStWlBIlSkjhwoUlV65ckjt3buN/3x/4GSdOnJAff/xR9u3bJ9u2bZOdO3fKhQsX5C9/+YvUqFFDGjduLK1atZLg4GDjf/kWn3/+ueuYtVR7Arz33nvSu3dvHRMCjhw5IuVc8wj8XPDOO+/IK6+8ouMH5bfffpOGDRvK9h07ZNXKlVK9enXjFZJSFixYIM8++6y8+OKLMnnyZGOv95k5c6Z06dJFx5UrV9Z5kTgHBl4T0bRpU1m2bJmOcbLjpHc6MH5atmjpMqhiNeAJQ8LKFdfNYuvWrRIbG6tB2Li4OA2cYsI3QQAyd6688uijGSVTpkzGXpEbN27IL7/8KpcuXXKNr7v/D4y2okWLqlGLgFTt2rU1mIv9vsxbb70lw4cP1zHeK45VkyZNdJsQK2+++aYG9UC+/AVk547tkjdvXt1+UOCo1Kr9pDz80EOyeMliCQ8PN14hyQHz0gsvvCCLFi2SiRMnSt++fY1X0gfMwcVLFFOHNkvWrHLk8GGfXXgihBB/APdv3MeBL9wnvAHujV27dtWAa1CBIDl67OgddjlseCRM7NixQ5/j4nbJocNH3EEl/GyGDBnksZy5JCBzJsmSJYvuB7/9+qtcu35D/YHffv9F73cm+Ftly5XVYCuC3FWrVtXgqy+zYsUKTRQx/Zo33nhDRo4cqWNCrOBcwSICwDXiyWQM+OjwQ+GjI4mgQ4cOxiskOWDRBEl2gwcPlueff16PYXrGIvB+wsIquhfA1q1bx+QuB8HAayKyZ8/hMgp+lpw5c8rZs2fT9eLzJjAcsErbqVOnZF3g+HkECxAAwvP58+fll19+0RvAtWvX5NatW/pzjz76qD6wAo6VcBxXrIoXL17c542qxCDgOmjQIB1jYpw7dy5vcOSe4BrBSjQMLBARHiExX8d47LzHdffMM89oVg6ysP/xj3/csehBkubLL7+UF1/sLefOn5HZs+ZoNo0v8Nprr8m4ceN0PGTIEPdcQwghxPs0aNBAvvrqKx2jEiw0NFTHTgf2Laq6YKskJzMPP48sVRyjM2fOqG0C++fixYvqF+ABEJANCAiQxx57TH0BPBcoUECzZZNTNedLwI5AoooZdO3Zs6dMmTJFx4QkxcsvvyzvvvuuXi84/5HdXbBgQePVBwMLJqic+uijj6Rdu3YyevRoj/1uJwP/qU+fPrJx40atgPOVKufFixdL69atdVy/fn2db4hDQOCVJACdThwSPHyliyfxDazdx/GA/hQhfwb0OqHHap430BP1JNB8RcMPl4P0R55cuVVP9vTp08arxATHCQ240EQL3wOanh04cMB41TeAZi++R7w/fJdppalNCCHk/kCbEU2SzPmYEBNouJr3ajzQUNXJ/UCIZ8A5Ym3KjAbSntYshg4yNEJxfvbr1++PPXv2GK8QE3wP0MTt1KmT6qiWLFkyXRuKJwXeo1Vf3Nf8FZJ6mPFqYfbs2Vp+CrDaiwwk4t9gZRKZwKb+IuC5QVICVrWrVavmzoxAKRpK0jwJdF/ffvttXe3G34FECsqYypYtK9mzZ5fMmTMbP+kf4BignBF60pBJWb9hg5ZCIut4yNAhmsnki0Ar7tNPP9XxZ599phnNhBBCvAv0TiGHBZKS4CL+yfTp06VHjx7qGwBIDUCyyF+qI8mD8dNPP0mlSpXlyJHDug2JAMwtnjx/UHk6fvx4mTRpkmaio8IU8h0RERGaZZ4tWzbjJ/0HHHdk4kNCcv2GaDl96qQel6ioKO3vgOx+XwO9HvD+AGVMnAMDrxasmowQkfdV55x4B6sOpIm/6HwRz2KKtpvGelqdRzC4oFG9dOlSDfgeOHDAeMX/gCGbOSBAqlWtqkFolF+hSYgvAwO8efPmOsb7nTdvno4JIYR4D+tc7A+NdsmfY9X8BdDC/eCDDxh0JSli7969Uq16dbcuMiT+Zs2a5fHzCAkIkDpbsmSJxMZukd2797h9EH8EwVUkpeAB+xo60r587UK2BVIs+M6Cg0Pk8OFDxivEzjDwasGabXTw4EEpUqSIjon/ce7cOWnWtJk2HAOYnOfMmUNNV5Jq3n//fXnppZeMLfGKRjAML6z0Qmvt5s3bjSycDK5V6EljZd9umrf4vvLkyas644GB2V3f2wU6dYQQ4mWQMda/f38dIyiCpivEP8F9uVu3blpRZNKvXz+ZMGGCsUVIyti0aZNE1q/nbjDnrfMJvu3PP/8sV69eNfY4n8DAQO0zYzcdaWDVGd+zZ488/vjjOib2hYFXC1UjqroDbb/++qvtmj8RzxATEyPtn+2gpQgAXcaXLF4s9erV021CUos1q57BfJIUbdq0cWfZo0tteHi4jgkhhHgHa7NDdpX2XyDj1KZ1mzuSMFACnJymY4Tcj8SVcCgrR1MsQkwgF4GgPHjnnXc47zgAptJYuHzlsj4j0Magq38C/aZGTzd0B12DCgTJ5k2bGHQlHgEaPeh+C+MdxtZzzz0nM2fONF4lRKRRo0bGSGT16tXGiBBCiLdAZpgJu4P7J0jCCAsLcwdd4RciWMbgB/EEbdu2lRkzZrirmtA/pFevXn4tB0DupHbt2sZIZOPGjcaI2BkGXi1cu3pNn7NlsV86OnkwoI3Zvn17LScySz8gRr5j5w6m9hOPAsmBF198UccwsLp06aKrmoQANEAw2bFjhzEihBDiLa5fv26MRDJmzGiMiD8Au2zo0KGa5YzmRABJGGjM06pVK90mxBNAwsQafEUjZzRvg7wFIWXKlNFkQLB1y3Z9JvaGgVcLl68mCF3/z0MZ9Jn4B9DaKV++gsyfP9/Yk6C3s2bNGtWFIcSTwMCaPHnyHXqvON/eeustY4v4M6VKlZJMmf+qY2g6EUII8S6//PKLMRK/7ALurxw5ckSefPJJGTx4sDvzEFUocfFxUq5cOd0mxJMg+ArZMRNUXqKxHxo8E/8G/mKVSgnJGMdOHNGeHcTeMPBqIaMhL/DfP27pM3E2uKlBc7NGjRouY+uw7kNDG+grQuScchMkLUHw9Y033jC2RIYPH65lRlzp9m9gaJUMLaXjAwcO8HwghBAv8+ijjxqjBFuROBsEWSH7VK58efn66691H+7FQ4YMkWXLlkmOHDl0HyFpAXo9IPnH9DtXrlwpkZGRd0ieEP+kTNkEfwB89913xojYFQZeLWTPnl2fr1lKjIgzWb9+vVSoUMHd6AhUr15d4uPjWEpEvAY0XydOnHhHmRH0hGls+TeFCxc2RiKnTp0yRoQQQryB6Q+AixcvGiPiRH788UfNcoXs09UrCZWPwcEhGoAdNGiQ2z4jJC2B5uuqVas0AQigGjMioqrs3LlTt4l/EhISYowSMvKJveHdxEKO7Akrmpcu/Uxxa4eCIEbHjh2lbt26mk0GUNYLUXMYWWyiQLxN37595ZNPPnGvdOM8RGlJfHy8bhP/wzoPMQhPCCHeJTAw0Bgx8OpUkMkMiSf0cTCzXEHXrl0lLm6XJmMQ4k2gKxwdvUHy5S+g26jGfKJWTfn88891m/gfVslD3ovsDwOvFvLkzWOMuKrgNNA8C2L5WDn6+OOPjb0JDbTidsXLa6+9xlVtkm5gpRuGf55cCTdYaPlUq15VtZ6I/5ElSxb3fIS5ixBCiPfInz+/MaI/4DQg3wPbqkhIMRkxYoTcupUgL1e8eHFZvXq1TJs2TbIaDW0I8TbQEt65Y7tUrlxZt9HwGZqvkMaj9JT/YZ2Lbt5MaP5N7AsjTRaKFStmjBK09Yj9wYo2OsYXLVpUxfLNm1bOnDm1k2RMTMwd3zsh6UV4eLhscxlbZpYFjK1u3bpJ+/btKajuZ8DQMqsuaGgTQoh3sdqFZ86cMUbEzuCeiszB8uXLq2119txp3ZchQwYZOHCgNrOE1BMh6U3evHklOjpaG2+ZQBqv1hO1ZO/evcYe4g9YA6/MeLU/DLxasBpaP/zwgzEidgSBKgRcsaKNjvEXLlzQ/SjnjoqKkoMHD0rnzp11HyG+AkrMoT+Mc9YEgvvly5WXL7/80thDCCGEkLTC6g9s27bNGBE7gsXLxYsXu+yocpo5aG1Q07p1a9V4HTZsGBvqEp8iU6ZMMmvWLJkyZYr73IzdGivhEVXk/fffpyQiITaEgVcLlSpVMkYi27dvN0bEThw/flzLMYJDQjR4hRVtk3bt2qmBNXr0aJYREZ8FBtaECRPkiy++cIvsnzh5Qp5++mnN0mD2q/P5/fffjZHIww8/bIwIIYR4g1KlSqn+P4iLi9NnYi8g04MEjNDQkhpg3WPJFERlUWxsrCxcuJC9HYhP07NnT22wVebxx3Ub1XAvvfSSNoSDT0ucjVVu7JFHHjFGxK4w8GoBXe7NVaWYmNtC68S3warfsmXLpGnTphIcHKzlGGZnUugkdujQQUuI5s2bRwOL2IYmTZrI/v37pH79+rqN8xy6ZKVLlVGdYq52OxdrQy1rd21CCCFpD2zHCuUr6hjSY2jMSuwBEmewSB3ksveRgIEGRSbo6wAd140bN6q8EyF2AA3gduzcqeezqf+PvhDYjwZxlKRyLr/++qsxoj/gBBh4tYCgK1aQAG7U1FHxbdD1HU2xggoW0qArgq9mMArfJTqTwmCeO3eu3pwIsRvQeYLEwHvvvSdZjCxtZHF37NhRtciwCk6chymNArJly2aMCCGEeIuaNWsaI5FVq1YZI+KLoNpt+PDhUqFCealSpYouUpsJGAAL2dDMRF8H6rgSO2JWw61Zs0aCg0N0HwKuaBCHrG7oFxPnwUQMZ8HAayKeeuopYySqCeRPoIGAL2fR4QYDownB1pCQIiqQP27cODl96qTxE6Jd4aHVdPToUe1MWqRIEeMVQuxL7969Ze+ePdKoUSNjj6gWLORRkNlx6NAhYy9xAqdP35ZICQlJMLAJIYR4j8aNG7uzy/wtqAFJI1/OooOvguSLoUOHqh1UqFAhzfyLi4s3fkJUKgIl2ah4g3RTrVq1jFcIsS916tSRvXv3uLNfcS0gWQz6xXXr1pWtW7caP0mcgFVOgv6A/XnoDxfGmLjAqilu4AB6KrtdN2x/AAZWoYLBIn/8n1SvWUP1JKtVq6Y6V6bh6W3wnlAy9M0338iGDRtk7dq1SRqCWAVs2LCh9OjRQ8uyTbkIQpzIihUr5JVXXtFsbhOc82gWN2DAAJXbIPYmV65cmvUaVCBIjp84buwlhBDiLRDQKFyosGqs4x4L/yB37tzGq87mmWeekTVrV0vV8JrSoGE9rQa0yrF5G3wX+/fvV4kAZK5+9dVXd1SGWIF+a5cuXVRmDA2KCHEqqMxFYgZkB6wgSQOLEpUrVzb2ELtiVvSCY8eOUTLR5jDwmgRYFTUnMdzkcRN3OljNx2qZFQRcc+TIocFXlO4gw7R06dKaRYr9ngSp9FjVQRODXbt2aQk1VrNv3bqlryfOxMV7Q7lQmzZtpGXLlh5/P4T4MliAgPwASuuszocZgMVKOOU17Am0BAsUKKBjLCRBaoIQQoj3efnll2XixIk6xnPfvn117GQQYMYCbmK7G/ZFuXLlJCwsTLNMS5YsKcWKFZP8+fMbP+EZ0EwG/gAyVeETfPvtt7J9x447pAMSg/eEQGuLFi1Y6Ub8jgULFsjgwYPlu+++M/YkgADsq6++qpmw6ZVERR4MVPgioxkZ/FevXOP3aHMYeE2C2bNnywsvvKBjdMJHUyan81Td+rJu/Wpj689BSX+BgkESFBQkOXPmlMDAQMmTJ49kyZJFu3DDQMMYotDXrl3T/3P16lW5fv26XLx4UcuY8Azj6szZs/c1qEzwN5+sW0cDrQi6MthK/B04KOPHj5eRo/6tnU6tIGiHbqhYLU2vLBWSciBxgw7MYODAgSqdQgghxPvARi1evLiO8YzAhtMdX8h5QcYruUB/vnDBglKwUCGt1oA/gMzgrK79GTNm1OOFMbh06ZI+37hxQ/0B+AJYPMbzkcOH5fy583L2/G1Nw3uBv1mzRg21b6Dfyiww4u9goWTmzJkyeNBgzdI3wfVXtmwZ6dOnr7Rt29Z9LRLfBxKQ+fLl0zEaA0JukdgbBl6TAAZBkeAQvfljwjpy5Iijb+qbNm2SGi4DBsCwRKAZmb5btmyRbdu23VHS7C1w3EuUKKHZxhEREVK7dm0JDQ01XiWEWEHG+NixY+X9//znrkWMPLnzSfceXaV79+6UIbABf/vb3zSbGUCXDk4lIYSQ9AHZYtBUB4sWLZJWrVrp2IlgMTfI5e/AjsCC7erVq9UHgk8QG7tFdu/ec1cmbFLAhk/OzyUXyO5UrVZVfZXw8HCpWrWq/g1CyJ2gIg49Tv53+P/eEYAFyJps3+5Z6dWrl15HxLeZPXu2yqZgLh0yZIgMGjTIeIXYFQZe7wFKeCHUDtAdH5OYU2nQoIHqJYEPPvhAAzRWENRBqQ/0lcwHVmHQwCopzdWUAMOucOHCWq6EoC9Kl8wSJq7KEZIysGg0a9YsGTVqtJamJAZ6T+3bt1f9NlxzxPfAghMWu+BUokqAGnWEEJJ+oIt4ZGSkjtH7IS4+3rFBP/g98H/A888/r/aEFdgY6L3www8/yO7duzUDGLqDJ0+dSlbl2v3AMQ3KX0iKFg9RfwD3QkicQd7AX7R1CfEUCNZ9+umnMtrlD8RujTX23iY4OETatm2jC0nwDbiQ4XvAX5s/f76O161bp43ViL1h4PUeoOylaNFicunSz7oNrSEnaiZCPxCNqQAm4YMHf0zR5IvjhA7cCM5ipRylQ6a0gJUMGTJItmzZJCAgQLJnz64yAWYpEiHEs2BBZOXKlTJ9+nQVZU8q8wQO5NONG2vnZhhdvhTgw/tHhs1nn30mUVFRflNGCG1rLDwB6rsSQohvUDWiqjt4kVSCghOAtmvJUqEqWwQ/AAuAKdFLRVAWv+Ps2bPqB+BhSgskBnIEsDngC8A3gEQBg6uEpA2obMUiyifz5iW5QJIvfwFp2qSxNtZGSbsvSfnBf0EMBv4AqmAhNegPYD7NlTunzseQdDx58iRl4xwAA6/3AdqJ/fv313FEeIRs2rzJUStCuKgff7yMOzMOqyrQfyGEOAcsikD36eOP50pcXLyx905QfhQRXlWNmooVK2oJkreCnTCqkEG/efNmNQ4hcYKMGjOb3p/Ka6wyAzNmzNBGaYQQQtKXrVu3quwVCAzMLnv37vF4U6n0Bv0TkCEH0KBzwoQJOiaEOAP4/WjEhRL26OjoJJMyEOeAJmzt2k/qnAd/oFChQl4L+iGhC0kI8AeQgLHZ5ROYweK6dSJl7bqECl2ng+/I7DeEfh1TpkzRMbE3DLzeB0xIyHI1uwSOGTNGReedArq1vvvuu/o5KdpMiPP5/vvv5fPPP9cHApyJjS5zYQn70cyudJnHJSQkREqXLq3SBMhKQQYMVsNTYoQhiIosGGTDnDhxQp/37dunc+u+ffvdlQVJAY3aY8ePOH6lFwZxgQJBeiwQCD996gwrAgghxEfo2LGjfPzxxzpGA8SFCxfq2AlYmzri3r/vu/1sYEuIg0FSBrJI8YiO2XBXg14raGZXumQpKV4iQRIQfgGaayMgi0z1lFTMwb9AsgV8AVTMQqoEvgAaGcbt2i1nz502fvJu4KPAj/EHqbRatWrJ119/rWMEoJEYQ+wPA69/AlZcEJTERAHHHyc/ynLtzooVK7TEGOBz7d27l5qPhPgRWFVetWqVrF27VtatW5+kJuz9QHAw018zS0BAFsmWLYs8/HAG45UEfvrpZ7l27apKkKRUC9rsIm029kOJFPTmnMykSZM0ywg4XVecEELsBgIV5cqUdXfdRwYSMpHsDppnVawY5l4AZfUbIf4FFv43bNig/sDatWvuWR13LxBHyJQps0qIBGTOJH/JmNF4JQH0K7hy+ZpcvX7pvgHepMBCUMHChbQSDrz00ksyefJkHTsVq+wYAt3orUOcAQOvyeDNN9+UUaNG6bhQULBs2xFray0irCpVqRLuNrImTpwoffv21TEhxD85deqUbNu2TReb0DRj5/YdbgczLYFRFVa5koSFhbnmpSr6QAknMvBr166tPwPDIy4uzrFZrzB6S4U+LsdOHNFtfFY0FCGEEOI7QDO9adOmOsb9aP369bbORMLCKBq2wNEHHTp0kLlz5+qYEOKfYF6AvEpsbKzs2rVLtrv8gWPHjt5VJedpkFlbuVIlKVu2rAYeIXUQGhqqiSIFCwVp0BbzLuIYTu79YJV9caqmuL/CwGsyQLZWtWrV1DBBmnuNGjU0U8yO3aaxYl+zZk13JlmzZs207JgQQhKDgCAMHMwXBw8elKNHj2pp0IULF+RnlyF07foNd/OMGzeu61yJOTJr1my6LyBzZgnIEqASBXny5NHSRZQmIZAKownP9yunt5baOFnzdOzYsdpEDLRo0UKWLFmiY0IIIb5Fr169ZOrUqTpGU5pNG7+R4OBg3bYTCKI888wzGkwGuB8j0EKJG0JIYmDfHz58WH0BPCAPAPsfPsFPP12Uy5evapXbrVv/J7/9/os7sxWa2CDjI49I1sCERnrwB7JkyaJ+AJIM8ubNq1W399PNtibBOTnrFckviDMB3F+OHD7k2KQTf4SB12SCbDA02Dpx8oRuN2nSRDWR7HQxYAWrfmR9d2dWdDXf6LrAaWQRQnwRa9YrtF737d/jON05aF2VCA11Nw9gtishhPguCEA0bNhQs10BpHFQpmunZlsIuvbo0UMbb2KMTLPNLn8AfS0IIcTXQNZrcEiI2spI8ECFHirlnATmYmT5mrIKkByD9BhxDs5p0Z/GwKBavmK56hoCrBC3atVKM8LsACYsa9AVqyhfuD4Dg66EEF8FGa/IAAXnL5yVAQMG6NhJYOXeDLpCL5BBV0II8V2QcLFo0SLNEAWoCHnqqac0QcMOmEHX6dOn6xifZ9kXXzDoSgjxWZB08dbAgTo25zA8OwlIP5pBV/QT6tSpk46Jc2DGawpBBlZkZKS7WQy0nb5wGSy+nIWFDuL169fXsgCQM2dOXZ2nkUUI8XUwf5UsFeouW1q+fLk8/fTTOrY76JCNTtmAnaQJIcQ+oClVnTp13Y0pkdCwauUKn148Q7JIu3bt3PICyBxbsGCBJpIQQogvg9hLpbAw2bN3r24PHDhQhg0bpmO7gybnyOA1Jdsgs2Zn/XCSNMx4TSHIwFq9erWW5QBocVSqVFni41PWAdBbrFmzRi9kM+gKw5BBV0KIXYAG1L9HjDS2RDp27KTBWLvz/fffy4u9extbIpPff49BV0IIsQnQdY2JiXZnvp4+dVJqPvGEz/ZNOHTokMuRr+YOuiLTFXriDLoSQuwA5qxp06drYBIMHz7cLfliZ7Ag1r5dO3dSX58+fRh0dSgMvKYCBF83uC50BDEBVrvRiXv8+PE+k/aOi3fo0KGanYtGOAA6VLFbNjPoSgixFX379nVLDly69LO0ad3GNjIvSQHpl+bNm7slBlBOROeXEELsBRYGo6OjtSwUYE7H3N6tWzefukchq7VCxYoSF5eQJILkETQJRnMtQgixC+Hh4TJixAhjS6Rt27baBNiuIG6EKgQzixf9d0aPHq1j4jwoNfAAQM+pZYuWbt1UgAZc773/XroKPiMLF0afmeUKIDXwySefMKOKEGJL0BwQzi309ECzZs3k008/da982wU443Xr1HXfN8qXL+easzdLpkyZdJsQQoi9wLzeu3dvmT17trEHGbEhMnnyu+kqjQM5BOiIr1y50tiTkIQBibTQ0FBjDyGE2AcEK9Hk3JzXMKd98803kjt3bt22C/gcuG9MnTpVt7Egtuvbb6VIkSK6TZwHM14fADTcivk6RqKioow9os40sl979erl9XJYlBG1adNGatSo4Q66Ii1/zJgxOjkx6EoIsStoBAhn0ZR5Wbp0qa4Sm6U5dgDvtXXr1nc2OfxiGYOuhBBiYzCHz5o1S2bMmOFuwotquMaNG2vg1WyY4i1QVfH6669rcNUadH3++edl165dDLoSQmwLEi7mzZunAVegDQ7r1pVz587ptl3o37+/fPjhhzpW6ZfFixl0dTjMePUQaLqFYKs1yxQXEUpIX3311TQt78ffhswBdKWsUgfIpJo/fwENLEKIY4CeU8OGDd0BVwQy4fD6evASGbtYoYdgPggMzC7ffPM1pV8IIcRBIAmiR/cXZd361caeBBo1aqTB0Nq1a6dZpQa0w9EZe85HH7mlbACaN344fZregwghxAkgo/+Jmk/IiZMndBtl+itWrlQJGF8HMSMz0xX3gzlz5kiHDh10mzgXBl49CAIBkyZNkiFDh95h8ABIDzz33HOq4+eJCQHd7z777DOZ98knbl0Qk5w5c6rgdPfu3W1XhksIIX/Gl19+KS1btZAb12/qNiQIli9f7rNlRnDEn2nWzD1XI2t3zerVqlVFCCHEeSxevFgGDBjglscxKRQULM+90FG1CcuVK2fsTT2QPUPixcKFC+9qNIMEkFdeeUW7f6NqhBBCnATs69q1aruDr3ly55Nly5e6dbd9DSRhIB6EJodmshwqJTp37qxj4mwYeE0DUOIzcuRIef8//7krAAvQARXd6iIiIjRNvlSpUhowuFeQFEYVhKMRbIWGCfQAUcKUGJStvvZqf+nRowcNLEKIo0Gmf5OmTd1zLDJ6Pvp4rtSrV0+3fQU4xJ07d9GmYADvc+myLxh0JYQQh4OEjGnTpsmoUaOTtNtxP3gqsp4mZ8AXKF26tMqYIWCaFHDa9+zZoz5BbGysxERH35V8AbC418XlyEMKzQ7ZX4QQklog7VirVm33HIv5E4lwvpaAhjgOqvSscpAffPCBSsAQ/4CB1zQEYvsogZ01c9YdDbiSAhcfgqUBAVmMPSLXrl2VCxcuGFv3pk6dOrpS0r59+3saa4QQ4jRgxDRp0vQOhxbSLv/617/SXXrA1NibPn26sSdh0Q2ZudRwIoQQ/wGZTdAonzJlilZsWGXBEoNAQdas2SQwMNDYI/Lrb7/J2TOn7/v/AEptu3XvLl27dmUCBiHEb4DN3bx5c7ecF4C8CzRUsZiVnmABDpKQ//znP90yaZAbW7JkscZwiP/AwKuXgO4S0srhdMdu3eIukU0NCK4++eSTqtWESYar2YQQfwXG1rPPPitfffWVsUckqECQjB03VleWvb3aDcd49uzZ8vc3/yFnz5029iZo0SLzic4wIYT4L2gAA38A1RAxMV+7qyFSS0R4hNSLrOcx6QJCCLEjCGoi4QE61yZodjh40NsquZIeyWlr1qyRqKjXJC4u3tiT0INnyZJPmYThhzDwmg5gYkBXUZQJId382LFjcvz4Mbl8+aquat+8ccO90p0z52OSN29evTjRhKVChQr6YGYrIYQkgGAnDK0333zTvZoM4JAOGTpEGjRoYOxJO/B3obv9r6FD7yj9hNH3zrjx0rNnT2MPIYQQknDv2r9/v2zbtk0fCMqiYcyFCxfl1u+/y7Xr1yUgc2bJ8MgjrudMUrBQIcmXL5+ULVvW5byXl0qVKnExjxBCLGBhq3vXbnL2/Dljj0hwcIgMHPgPLev3RgwFcmhD3h52V5PFfv36yejRoxnH8VMYeCWEEOIIoHuHAGfiBiMo8Yexg+aGnm7ABQ1uCON/+OG0uzT82rVrpwYWqxIIIYQQQghJe6CHjezXqVOnGnsSQD+crl06q0RjsWLFjL2eAX9zyZIlMnnyZNm+fbuxNwEkgkycNJH9HfwcBl4JIYQ4Cqx2Dx48WHbu3GnsScCUaYHuU61atbR6IKVSBMhQgkG1YcMGLRXdtGmT8cptYGANGz7M5xp9EUIIIYQQ4g/Ex8fLwIED1S9ITOXKlbUirn79+jpOTW8ISEmuW7dOVq1apQ9r1R1Apu3gwYM009aXGn2R9IGBV0IIIY4EhtaoUaPuENu3AhmACuUrSpkyZaRo0aIq8WJtaALQJPHkyZNy6NAhOXDggOyKi5OrV64Yr94JdLfR3Iti+YQQQgghhKQ/SMQYMWKEZqQm1aQQQVEkY6BCLjQ0VGUeAwICJEOGDPr6ww8/LNevX5fz58/LDz/8oJIwu/fsldOnTurriUEgt3///trfgbICxISBV0IIIY4GK9Jz5syRBQsWaPDUkxQvXlybmvTq1YuSAoQQQgghhPggZ86ckYULF8rcj+ZK7NZYY69nyJkzp7Rs2VL9gbCwMGMvIbdh4JUQQojfgCAsMmE3btwoO7Z9K8dOHDFeSR4ItKKpCaQKGjduzK6khBBCCCGE2AgEYZcuXar+wM4dO2Tf/v1JZsPeizy5ckuViHCpUqWKVrylRr6M+BcMvBJCCPFbfvrpJy0ZggGGB0qJbt68qa+hPChHjhy6io2mXCVKlGAHaUIIIYQQQhwEpMUOHz4sp0+f1sa58AeuXr1qvJqQ0frYY49Jrly5VJIA/gEhyUfk/wE0Q2PneigaVgAAAABJRU5ErkJggg==;fontFamily=Georgia;fontSize=20;" parent="1" vertex="1">
          <mxGeometry x="73.49" y="610" width="513.02" height="230" as="geometry" />
        </mxCell>
        <mxCell id="9xmN-UpCPUkyQyn0io4q-4" value="" style="ellipse;whiteSpace=wrap;html=1;aspect=fixed;strokeColor=#2D7600;fontColor=#ffffff;fillColor=#60A917;fontFamily=Georgia;fontSize=20;" parent="1" vertex="1">
          <mxGeometry x="241.51" y="405" width="30" height="30" as="geometry" />
        </mxCell>
        <mxCell id="9xmN-UpCPUkyQyn0io4q-5" value="" style="ellipse;whiteSpace=wrap;html=1;aspect=fixed;strokeColor=#2D7600;fontColor=#ffffff;fillColor=#7EDE1E;fontFamily=Georgia;fontSize=20;" parent="1" vertex="1">
          <mxGeometry x="241.51" y="485" width="30" height="30" as="geometry" />
        </mxCell>
        <mxCell id="9xmN-UpCPUkyQyn0io4q-6" value="" style="ellipse;whiteSpace=wrap;html=1;aspect=fixed;strokeColor=#2D7600;fontColor=#ffffff;fillColor=#549414;fontFamily=Georgia;fontSize=20;" parent="1" vertex="1">
          <mxGeometry x="241.51" y="445" width="30" height="30" as="geometry" />
        </mxCell>
        <mxCell id="9xmN-UpCPUkyQyn0io4q-7" value="" style="ellipse;whiteSpace=wrap;html=1;aspect=fixed;strokeColor=#2D7600;fontColor=#ffffff;fillColor=#274509;fontFamily=Georgia;fontSize=20;" parent="1" vertex="1">
          <mxGeometry x="281.51" y="405" width="30" height="30" as="geometry" />
        </mxCell>
        <mxCell id="9xmN-UpCPUkyQyn0io4q-8" value="" style="ellipse;whiteSpace=wrap;html=1;aspect=fixed;fillColor=#60a917;strokeColor=#2D7600;fontColor=#ffffff;fontFamily=Georgia;fontSize=20;" parent="1" vertex="1">
          <mxGeometry x="281.51" y="445" width="30" height="30" as="geometry" />
        </mxCell>
        <mxCell id="9xmN-UpCPUkyQyn0io4q-9" value="" style="ellipse;whiteSpace=wrap;html=1;aspect=fixed;fillColor=#60a917;strokeColor=#2D7600;fontColor=#ffffff;fontFamily=Georgia;fontSize=20;" parent="1" vertex="1">
          <mxGeometry x="321.51" y="405" width="30" height="30" as="geometry" />
        </mxCell>
        <mxCell id="9xmN-UpCPUkyQyn0io4q-10" value="" style="ellipse;whiteSpace=wrap;html=1;aspect=fixed;strokeColor=#2D7600;fontColor=#ffffff;fillColor=#76CF1C;fontFamily=Georgia;fontSize=20;" parent="1" vertex="1">
          <mxGeometry x="321.51" y="445" width="30" height="30" as="geometry" />
        </mxCell>
        <mxCell id="9xmN-UpCPUkyQyn0io4q-11" value="" style="ellipse;whiteSpace=wrap;html=1;aspect=fixed;strokeColor=#2D7600;fontColor=#ffffff;fillColor=#81E31F;fontFamily=Georgia;fontSize=20;" parent="1" vertex="1">
          <mxGeometry x="401.51" y="405" width="30" height="30" as="geometry" />
        </mxCell>
        <mxCell id="9xmN-UpCPUkyQyn0io4q-12" value="" style="ellipse;whiteSpace=wrap;html=1;aspect=fixed;strokeColor=#2D7600;fontColor=#ffffff;fillColor=#1C3807;fontFamily=Georgia;fontSize=20;" parent="1" vertex="1">
          <mxGeometry x="361.51" y="445" width="30" height="30" as="geometry" />
        </mxCell>
        <mxCell id="9xmN-UpCPUkyQyn0io4q-13" value="" style="ellipse;whiteSpace=wrap;html=1;aspect=fixed;strokeColor=#2D7600;fontColor=#ffffff;fillColor=#3B690E;fontFamily=Georgia;fontSize=20;" parent="1" vertex="1">
          <mxGeometry x="281.51" y="485" width="30" height="30" as="geometry" />
        </mxCell>
        <mxCell id="9xmN-UpCPUkyQyn0io4q-14" value="" style="ellipse;whiteSpace=wrap;html=1;aspect=fixed;strokeColor=#2D7600;fontColor=#ffffff;fillColor=#60A818;fontFamily=Georgia;fontSize=20;" parent="1" vertex="1">
          <mxGeometry x="321.51" y="485" width="30" height="30" as="geometry" />
        </mxCell>
        <mxCell id="9xmN-UpCPUkyQyn0io4q-15" value="" style="ellipse;whiteSpace=wrap;html=1;aspect=fixed;fillColor=#60a917;strokeColor=#2D7600;fontColor=#ffffff;fontFamily=Georgia;fontSize=20;" parent="1" vertex="1">
          <mxGeometry x="361.51" y="485" width="30" height="30" as="geometry" />
        </mxCell>
        <mxCell id="9xmN-UpCPUkyQyn0io4q-16" value="" style="ellipse;whiteSpace=wrap;html=1;aspect=fixed;strokeColor=#2D7600;fontColor=#ffffff;fillColor=#40700F;fontFamily=Georgia;fontSize=20;" parent="1" vertex="1">
          <mxGeometry x="361.51" y="485" width="30" height="30" as="geometry" />
        </mxCell>
        <mxCell id="9xmN-UpCPUkyQyn0io4q-17" value="" style="ellipse;whiteSpace=wrap;html=1;aspect=fixed;fillColor=#60a917;strokeColor=#2D7600;fontColor=#ffffff;fontFamily=Georgia;fontSize=20;" parent="1" vertex="1">
          <mxGeometry x="401.51" y="485" width="30" height="30" as="geometry" />
        </mxCell>
        <mxCell id="9xmN-UpCPUkyQyn0io4q-18" value="" style="ellipse;whiteSpace=wrap;html=1;aspect=fixed;strokeColor=#2D7600;fontColor=#ffffff;fillColor=#447810;fontFamily=Georgia;fontSize=20;" parent="1" vertex="1">
          <mxGeometry x="401.51" y="445" width="30" height="30" as="geometry" />
        </mxCell>
        <mxCell id="9xmN-UpCPUkyQyn0io4q-19" value="" style="ellipse;whiteSpace=wrap;html=1;aspect=fixed;strokeColor=#2D7600;fontColor=#ffffff;fillColor=#417310;fontFamily=Georgia;fontSize=20;" parent="1" vertex="1">
          <mxGeometry x="361.51" y="405" width="30" height="30" as="geometry" />
        </mxCell>
        <mxCell id="9xmN-UpCPUkyQyn0io4q-20" value="" style="shape=curlyBracket;whiteSpace=wrap;html=1;rounded=1;fillColor=#81E31F;rotation=90;size=0.5;fontFamily=Georgia;fontSize=20;" parent="1" vertex="1">
          <mxGeometry x="326.51" y="290" width="20" height="180" as="geometry" />
        </mxCell>
        <mxCell id="9xmN-UpCPUkyQyn0io4q-21" value="&amp;gt;100 strains" style="text;html=1;align=center;verticalAlign=middle;resizable=0;points=[];autosize=1;fontStyle=1;fontFamily=Georgia;fontSize=20;" parent="1" vertex="1">
          <mxGeometry x="271.51" y="340" width="140" height="30" as="geometry" />
        </mxCell>
        <mxCell id="9xmN-UpCPUkyQyn0io4q-22" value="&lt;div style=&quot;font-size: 20px;&quot; align=&quot;center&quot;&gt;&lt;font style=&quot;font-size: 20px;&quot;&gt;TID&lt;/font&gt;&lt;/div&gt;" style="text;html=1;align=center;verticalAlign=middle;resizable=0;points=[];autosize=1;fontStyle=1;fontFamily=Georgia;fontSize=20;" parent="1" vertex="1">
          <mxGeometry x="301.51" y="200" width="50" height="30" as="geometry" />
        </mxCell>
        <mxCell id="9xmN-UpCPUkyQyn0io4q-24" value="&lt;font style=&quot;font-size: 20px;&quot;&gt;&lt;b style=&quot;font-size: 20px;&quot;&gt;DNA-damage sensing by memory circuit&lt;/b&gt;&lt;/font&gt;" style="text;html=1;align=center;verticalAlign=middle;resizable=0;points=[];autosize=1;fontFamily=Georgia;fontSize=20;" parent="1" vertex="1">
          <mxGeometry x="180" y="560" width="430" height="30" as="geometry" />
        </mxCell>
        <mxCell id="9xmN-UpCPUkyQyn0io4q-27" value="&lt;font style=&quot;font-size: 20px;&quot;&gt;&lt;b style=&quot;font-size: 20px;&quot;&gt;Analysis of radiation environment&lt;br style=&quot;font-size: 20px;&quot;&gt;&lt;/b&gt;&lt;/font&gt;" style="text;html=1;align=center;verticalAlign=middle;resizable=0;points=[];autosize=1;fontFamily=Georgia;fontSize=20;" parent="1" vertex="1">
          <mxGeometry x="180" y="120" width="370" height="30" as="geometry" />
        </mxCell>
        <mxCell id="9xmN-UpCPUkyQyn0io4q-28" value="&lt;font style=&quot;font-size: 20px;&quot;&gt;&lt;b style=&quot;font-size: 20px;&quot;&gt;Differential regulation of selected genes&lt;/b&gt;&lt;/font&gt;" style="text;html=1;align=center;verticalAlign=middle;resizable=0;points=[];autosize=1;fontFamily=Georgia;fontSize=20;" parent="1" vertex="1">
          <mxGeometry x="180" y="285" width="430" height="30" as="geometry" />
        </mxCell>
        <mxCell id="9xmN-UpCPUkyQyn0io4q-31" value="" style="shape=curlyBracket;whiteSpace=wrap;html=1;rounded=1;fillColor=#81E31F;fontFamily=Georgia;fontSize=20;direction=west;" parent="1" vertex="1">
          <mxGeometry x="600" y="90" width="80" height="770" as="geometry" />
        </mxCell>
        <mxCell id="9xmN-UpCPUkyQyn0io4q-32" value="&lt;b style=&quot;font-size: 20px;&quot;&gt;1&lt;/b&gt;" style="ellipse;shape=doubleEllipse;whiteSpace=wrap;html=1;aspect=fixed;fillColor=#f8cecc;fontFamily=Georgia;fontSize=20;strokeColor=#b85450;" parent="1" vertex="1">
          <mxGeometry x="150" y="120" width="30" height="30" as="geometry" />
        </mxCell>
        <mxCell id="9xmN-UpCPUkyQyn0io4q-33" value="&lt;b style=&quot;font-size: 20px;&quot;&gt;2&lt;/b&gt;" style="ellipse;shape=doubleEllipse;whiteSpace=wrap;html=1;aspect=fixed;fillColor=#f8cecc;fontFamily=Georgia;fontSize=20;strokeColor=#b85450;" parent="1" vertex="1">
          <mxGeometry x="268.02" y="200" width="30" height="30" as="geometry" />
        </mxCell>
        <mxCell id="9xmN-UpCPUkyQyn0io4q-34" value="&lt;b style=&quot;font-size: 20px;&quot;&gt;3&lt;/b&gt;" style="ellipse;shape=doubleEllipse;whiteSpace=wrap;html=1;aspect=fixed;fillColor=#f8cecc;fontFamily=Georgia;fontSize=20;strokeColor=#b85450;" parent="1" vertex="1">
          <mxGeometry x="148.25" y="285" width="30" height="30" as="geometry" />
        </mxCell>
        <mxCell id="9xmN-UpCPUkyQyn0io4q-35" value="&lt;b style=&quot;font-size: 20px;&quot;&gt;4&lt;/b&gt;" style="ellipse;shape=doubleEllipse;whiteSpace=wrap;html=1;aspect=fixed;fillColor=#f8cecc;fontFamily=Georgia;fontSize=20;strokeColor=#b85450;" parent="1" vertex="1">
          <mxGeometry x="145.75" y="560" width="30" height="30" as="geometry" />
        </mxCell>
        <mxCell id="9xmN-UpCPUkyQyn0io4q-43" value="" style="edgeStyle=orthogonalEdgeStyle;rounded=0;orthogonalLoop=1;jettySize=auto;html=1;fontFamily=Georgia;fontSize=20;" parent="1" source="9xmN-UpCPUkyQyn0io4q-38" edge="1">
          <mxGeometry relative="1" as="geometry">
            <mxPoint x="990" y="530" as="targetPoint" />
          </mxGeometry>
        </mxCell>
        <mxCell id="9xmN-UpCPUkyQyn0io4q-38" value="&lt;b style=&quot;font-size: 20px;&quot;&gt;&lt;font style=&quot;font-size: 20px;&quot;&gt;Probe gene expression in a specific radiation environment &lt;br style=&quot;font-size: 20px;&quot;&gt;&lt;/font&gt;&lt;/b&gt;" style="text;html=1;align=center;verticalAlign=middle;resizable=0;points=[];autosize=1;fontFamily=Georgia;fontSize=20;" parent="1" vertex="1">
          <mxGeometry x="685" y="335" width="610" height="30" as="geometry" />
        </mxCell>
        <mxCell id="9xmN-UpCPUkyQyn0io4q-40" value="&lt;div style=&quot;font-size: 20px;&quot;&gt;&lt;b style=&quot;font-size: 20px;&quot;&gt;&lt;font style=&quot;font-size: 20px;&quot;&gt;Associate affected genes with&lt;/font&gt;&lt;/b&gt;&lt;/div&gt;&lt;div style=&quot;font-size: 20px;&quot;&gt;&lt;b style=&quot;font-size: 20px;&quot;&gt;&lt;font style=&quot;font-size: 20px;&quot;&gt;cellular functions&lt;/font&gt;&lt;/b&gt;&lt;/div&gt;" style="text;html=1;align=center;verticalAlign=middle;resizable=0;points=[];autosize=1;fontFamily=Georgia;fontSize=20;" parent="1" vertex="1">
          <mxGeometry x="660" y="680" width="310" height="50" as="geometry" />
        </mxCell>
        <mxCell id="9xmN-UpCPUkyQyn0io4q-45" value="" style="edgeStyle=orthogonalEdgeStyle;rounded=0;orthogonalLoop=1;jettySize=auto;html=1;fontFamily=Georgia;fontSize=20;" parent="1" edge="1">
          <mxGeometry relative="1" as="geometry">
            <mxPoint x="990" y="565" as="sourcePoint" />
            <mxPoint x="800" y="675" as="targetPoint" />
            <Array as="points">
              <mxPoint x="990" y="615" />
              <mxPoint x="800" y="615" />
            </Array>
          </mxGeometry>
        </mxCell>
        <mxCell id="9xmN-UpCPUkyQyn0io4q-41" value="&lt;b style=&quot;font-size: 20px&quot;&gt;&lt;font style=&quot;font-size: 20px&quot;&gt;Infer global regulation response to radiation &lt;br style=&quot;font-size: 20px&quot;&gt;&lt;/font&gt;&lt;/b&gt;" style="text;html=1;align=center;verticalAlign=middle;resizable=0;points=[];autosize=1;fontFamily=Georgia;fontSize=20;" parent="1" vertex="1">
          <mxGeometry x="760" y="540" width="470" height="30" as="geometry" />
        </mxCell>
        <mxCell id="9xmN-UpCPUkyQyn0io4q-42" value="&lt;div style=&quot;font-size: 20px;&quot;&gt;&lt;b style=&quot;font-size: 20px;&quot;&gt;&lt;font style=&quot;font-size: 20px;&quot;&gt;Expand conclusions to human genes&lt;/font&gt;&lt;/b&gt;&lt;/div&gt;&lt;div style=&quot;font-size: 20px;&quot;&gt;&lt;b style=&quot;font-size: 20px;&quot;&gt;&lt;font style=&quot;font-size: 20px;&quot;&gt;via gene homology&lt;/font&gt;&lt;/b&gt;&lt;/div&gt;" style="text;html=1;align=center;verticalAlign=middle;resizable=0;points=[];autosize=1;fontFamily=Georgia;fontSize=20;" parent="1" vertex="1">
          <mxGeometry x="1000" y="680" width="390" height="50" as="geometry" />
        </mxCell>
        <mxCell id="9xmN-UpCPUkyQyn0io4q-46" value="" style="edgeStyle=orthogonalEdgeStyle;rounded=0;orthogonalLoop=1;jettySize=auto;html=1;fontFamily=Georgia;fontSize=20;" parent="1" edge="1">
          <mxGeometry relative="1" as="geometry">
            <mxPoint x="990" y="568" as="sourcePoint" />
            <mxPoint x="1180" y="665" as="targetPoint" />
            <Array as="points">
              <mxPoint x="990" y="615" />
              <mxPoint x="1180" y="615" />
              <mxPoint x="1180" y="665" />
            </Array>
          </mxGeometry>
        </mxCell>
      </root>
    </mxGraphModel>
  </diagram>
</mxfile>
